<?xml version="1.0" encoding="utf-8"?>
<!-- Generator: Adobe Illustrator 13.0.2, SVG Export Plug-In  -->
<!DOCTYPE svg PUBLIC "-//W3C//DTD SVG 1.1//EN" "http://www.w3.org/Graphics/SVG/1.1/DTD/svg11.dtd" [
	<!ENTITY ns_flows "http://ns.adobe.com/Flows/1.0/">
]>
<svg version="1.1"
	 xmlns="http://www.w3.org/2000/svg" xmlns:xlink="http://www.w3.org/1999/xlink" xmlns:a="http://ns.adobe.com/AdobeSVGViewerExtensions/3.0/"
	 x="0px" y="0px" width="75px" height="110px" viewBox="0 0 75 110" enable-background="new 0 0 75 110" xml:space="preserve">
<defs>
</defs>
<rect fill="none" width="75" height="110"/>
<linearGradient id="SVGID_1_" gradientUnits="userSpaceOnUse" x1="1554.4678" y1="1657.9805" x2="1616.5326" y2="1546.0125" gradientTransform="matrix(1 0 0 -1 -1548 1657)">
	<stop  offset="0" style="stop-color:#FFFFFF"/>
	<stop  offset="1" style="stop-color:#DEDEDF"/>
</linearGradient>
<path fill="url(#SVGID_1_)" d="M74.51,105.141c0,2.409-2.02,4.369-4.51,4.369H5c-2.49,0-4.51-1.96-4.51-4.369V4.86
	C0.49,2.45,2.51,0.5,5,0.5h65c2.49,0,4.51,1.96,4.51,4.37V105.141z"/>
<path fill="#B3B3B3" d="M5,110c-2.75-0.01-5-2.17-5-4.859l0,0V4.86C0,2.16,2.25,0.01,5,0l0,0h65c2.75,0.01,5,2.16,5,4.86l0,0v100.27
	l0,0c0,2.7-2.25,4.86-5,4.86l0,0H5V110z M0.99,4.86v100.27c0,2.12,1.78,3.87,4.01,3.87l0,0h65c2.23,0,4.01-1.75,4.01-3.87l0,0V4.86
	c0-2.13-1.779-3.87-4.01-3.87l0,0H5C2.77,0.99,0.99,2.74,0.99,4.86L0.99,4.86z"/>
<path fill="#EE3333" d="M4.78,15.69l1.97-0.16c0.15,1.04,0.5,1.81,1.04,2.33c0.54,0.51,1.16,0.76,1.87,0.76
	c0.89,0,1.66-0.36,2.3-1.08c0.64-0.72,0.96-1.71,0.96-2.96c0-1.18-0.31-2.09-0.93-2.74c-0.62-0.65-1.4-0.97-2.34-0.97
	c-0.57,0-1.1,0.14-1.59,0.42c-0.49,0.28-0.89,0.68-1.17,1.18l-1.76-0.25l0.41-8.45h8.66V5.7H7.36l-0.07,4.41
	c0.91-0.68,1.87-1.02,2.88-1.02c1.28,0,2.39,0.48,3.33,1.44c0.94,0.96,1.42,2.26,1.42,3.89c0,1.61-0.47,2.99-1.42,4.13
	c-0.94,1.15-2.21,1.72-3.81,1.72c-1.32,0-2.44-0.4-3.35-1.21C5.43,18.24,4.91,17.12,4.78,15.69z"/>
<path fill="#EE3333" d="M71.26,94.311l-1.97,0.159c-0.149-1.04-0.5-1.819-1.04-2.329c-0.54-0.511-1.16-0.761-1.87-0.761
	c-0.89,0-1.659,0.36-2.3,1.08s-0.96,1.71-0.96,2.96c0,1.18,0.31,2.09,0.93,2.74s1.4,0.97,2.341,0.97c0.569,0,1.1-0.14,1.59-0.42
	s0.89-0.68,1.17-1.18l1.76,0.25l-0.41,8.45h-8.66V104.3h6.83l0.07-4.409c-0.91,0.68-1.87,1.02-2.881,1.02
	c-1.279,0-2.389-0.48-3.33-1.44c-0.939-0.96-1.409-2.26-1.409-3.89c0-1.61,0.47-2.99,1.42-4.13c0.94-1.15,2.21-1.72,3.81-1.72
	c1.32,0,2.44,0.41,3.351,1.22C70.609,91.75,71.13,92.88,71.26,94.311z"/>
<path fill="#EE3333" d="M13.11,24.45c-0.53-0.58-1.16-0.87-1.87-0.87c-1.19,0-1.87,1.08-2.39,1.82c-0.53-0.74-1.16-1.82-2.39-1.82
	c-0.71,0-1.33,0.29-1.87,0.87c-0.56,0.61-0.84,1.35-0.84,2.23c0,1.31,0.48,2.64,1.45,3.99c0.32,0.45,3.65,5.14,3.65,5.14
	s3.38-4.74,3.71-5.21c0.93-1.33,1.4-2.63,1.4-3.92C13.95,25.8,13.67,25.05,13.11,24.45z"/>
<path fill="#EE3333" d="M46.45,44.43c-1.13-1.16-2.45-1.74-3.96-1.74c-2.52,0-3.961,2.16-5.08,3.64c-1.12-1.48-2.46-3.64-5.08-3.64
	c-1.51,0-2.83,0.58-3.96,1.74c-1.19,1.21-1.78,2.7-1.78,4.46c0,2.62,1.02,5.28,3.07,7.98c0.68,0.89,7.74,10.28,7.74,10.28
	s7.17-9.471,7.87-10.42c1.98-2.65,2.961-5.261,2.961-7.84C48.23,47.13,47.63,45.65,46.45,44.43z"/>
<path fill="#EE3333" d="M61.7,85.4c0.53,0.58,1.159,0.869,1.87,0.869c1.189,0,1.869-1.08,2.39-1.819
	c0.53,0.739,1.16,1.819,2.39,1.819c0.711,0,1.33-0.289,1.871-0.869c0.559-0.61,0.84-1.351,0.84-2.23c0-1.311-0.48-2.64-1.451-3.99
	c-0.319-0.449-3.649-5.14-3.649-5.14s-3.38,4.74-3.71,5.21c-0.93,1.32-1.4,2.63-1.4,3.92C60.859,84.05,61.141,84.79,61.7,85.4z"/>
</svg>
