<?xml version="1.0" encoding="utf-8"?>
<!-- Generator: Adobe Illustrator 13.0.2, SVG Export Plug-In  -->
<!DOCTYPE svg PUBLIC "-//W3C//DTD SVG 1.1//EN" "http://www.w3.org/Graphics/SVG/1.1/DTD/svg11.dtd" [
	<!ENTITY ns_flows "http://ns.adobe.com/Flows/1.0/">
]>
<svg version="1.1"
	 xmlns="http://www.w3.org/2000/svg" xmlns:xlink="http://www.w3.org/1999/xlink" xmlns:a="http://ns.adobe.com/AdobeSVGViewerExtensions/3.0/"
	 x="0px" y="0px" width="75px" height="110px" viewBox="0 0 75 110" enable-background="new 0 0 75 110" xml:space="preserve">
<defs>
</defs>
<rect fill="none" width="75" height="110"/>
<linearGradient id="SVGID_1_" gradientUnits="userSpaceOnUse" x1="1554.4678" y1="1657.9805" x2="1616.5326" y2="1546.0125" gradientTransform="matrix(1 0 0 -1 -1548 1657)">
	<stop  offset="0" style="stop-color:#FFFFFF"/>
	<stop  offset="1" style="stop-color:#DEDEDF"/>
</linearGradient>
<path fill="url(#SVGID_1_)" d="M74.51,105.141c0,2.409-2.02,4.369-4.51,4.369H5c-2.49,0-4.51-1.96-4.51-4.369V4.86
	C0.49,2.45,2.51,0.5,5,0.5h65c2.49,0,4.51,1.96,4.51,4.37V105.141z"/>
<path fill="#B3B3B3" d="M5,110c-2.75-0.01-5-2.17-5-4.859l0,0V4.86C0,2.16,2.25,0.01,5,0l0,0h65c2.75,0.01,5,2.16,5,4.86l0,0v100.27
	l0,0c0,2.7-2.25,4.86-5,4.86l0,0H5V110z M0.99,4.86v100.27c0,2.12,1.78,3.87,4.01,3.87l0,0h65c2.23,0,4.01-1.75,4.01-3.87l0,0V4.86
	c0-2.13-1.779-3.87-4.01-3.87l0,0H5C2.77,0.99,0.99,2.74,0.99,4.86L0.99,4.86z"/>
<path fill="#EE3333" d="M2.74,3.77v3.36c0,0.18,0.21,0.32,0.48,0.32h1.19c0.26,0,0.48-0.14,0.48-0.32v-1.4h6.46
	c-1.09,1.19-2.11,2.62-3.05,4.31c-0.94,1.69-1.68,3.47-2.22,5.33c-0.54,1.86-0.83,3.5-0.86,4.9h2.22c0.19-2.71,0.94-5.44,2.22-8.19
	c1.29-2.76,2.78-4.99,4.48-6.71v-1.6H2.74z"/>
<path fill="#EE3333" d="M72.26,106.23v-3.36c0-0.181-0.21-0.32-0.48-0.32H70.6c-0.27,0-0.479,0.14-0.479,0.32v1.39h-6.46
	c1.09-1.189,2.109-2.619,3.05-4.31s1.681-3.47,2.22-5.33c0.541-1.86,0.82-3.5,0.85-4.9h-2.219c-0.19,2.71-0.94,5.44-2.221,8.19
	c-1.29,2.76-2.779,4.99-4.48,6.71v1.6h11.4V106.23z"/>
<path fill="#EE3333" d="M13.23,24.47c-0.53-0.58-1.16-0.87-1.87-0.87c-1.19,0-1.87,1.08-2.39,1.82c-0.53-0.74-1.16-1.82-2.39-1.82
	c-0.71,0-1.33,0.29-1.87,0.87c-0.56,0.61-0.84,1.35-0.84,2.23c0,1.31,0.48,2.64,1.45,3.99c0.32,0.45,3.65,5.14,3.65,5.14
	s3.38-4.74,3.71-5.21c0.93-1.33,1.4-2.63,1.4-3.92C14.07,25.82,13.79,25.08,13.23,24.47z"/>
<path fill="#EE3333" d="M46.57,44.46c-1.131-1.16-2.45-1.74-3.961-1.74c-2.52,0-3.959,2.16-5.08,3.64
	c-1.12-1.48-2.46-3.64-5.08-3.64c-1.51,0-2.83,0.58-3.96,1.74c-1.19,1.21-1.78,2.7-1.78,4.46c0,2.62,1.02,5.28,3.07,7.98
	c0.68,0.89,7.74,10.279,7.74,10.279s7.169-9.47,7.871-10.42c1.979-2.65,2.959-5.26,2.959-7.84C48.359,47.16,47.76,45.67,46.57,44.46
	z"/>
<path fill="#EE3333" d="M61.83,85.42c0.529,0.58,1.15,0.87,1.87,0.87c1.19,0,1.87-1.08,2.39-1.82c0.53,0.74,1.16,1.82,2.391,1.82
	c0.709,0,1.34-0.29,1.869-0.87c0.561-0.609,0.84-1.35,0.84-2.23c0-1.31-0.479-2.64-1.449-3.989c-0.32-0.45-3.65-5.14-3.65-5.14
	s-3.38,4.739-3.71,5.209c-0.93,1.33-1.399,2.631-1.399,3.92C60.98,84.07,61.27,84.82,61.83,85.42z"/>
</svg>
