<?xml version="1.0" encoding="utf-8"?>
<!-- Generator: Adobe Illustrator 13.0.2, SVG Export Plug-In  -->
<!DOCTYPE svg PUBLIC "-//W3C//DTD SVG 1.1//EN" "http://www.w3.org/Graphics/SVG/1.1/DTD/svg11.dtd" [
	<!ENTITY ns_flows "http://ns.adobe.com/Flows/1.0/">
]>
<svg version="1.1"
	 xmlns="http://www.w3.org/2000/svg" xmlns:xlink="http://www.w3.org/1999/xlink" xmlns:a="http://ns.adobe.com/AdobeSVGViewerExtensions/3.0/"
	 x="0px" y="0px" width="75px" height="110px" viewBox="0 0 75 110" enable-background="new 0 0 75 110" xml:space="preserve">
<defs>
</defs>
<rect fill="none" width="75" height="110"/>
<linearGradient id="SVGID_1_" gradientUnits="userSpaceOnUse" x1="1554.4678" y1="1657.9805" x2="1616.5326" y2="1546.0125" gradientTransform="matrix(1 0 0 -1 -1548 1657)">
	<stop  offset="0" style="stop-color:#FFFFFF"/>
	<stop  offset="1" style="stop-color:#DEDEDF"/>
</linearGradient>
<path fill="url(#SVGID_1_)" d="M74.51,105.141c0,2.409-2.02,4.369-4.51,4.369H5c-2.49,0-4.51-1.96-4.51-4.369V4.86
	C0.49,2.45,2.51,0.5,5,0.5h65c2.49,0,4.51,1.96,4.51,4.37V105.141z"/>
<path fill="#B3B3B3" d="M5,110c-2.75-0.01-5-2.17-5-4.859l0,0V4.86C0,2.16,2.25,0.01,5,0l0,0h65c2.75,0.01,5,2.16,5,4.86l0,0v100.27
	l0,0c0,2.7-2.25,4.86-5,4.86l0,0H5V110z M0.99,4.86v100.27c0,2.12,1.78,3.87,4.01,3.87l0,0h65c2.23,0,4.01-1.75,4.01-3.87l0,0V4.86
	c0-2.13-1.779-3.87-4.01-3.87l0,0H5C2.77,0.99,0.99,2.74,0.99,4.86L0.99,4.86z"/>
<path fill="#EE3333" d="M13.8,18.63h-0.81l-4.31-8.17l3.74-5.05h0.71c0.19,0,0.33-0.17,0.33-0.37v-0.9c0-0.21-0.15-0.37-0.33-0.37
	H9.67c-0.18,0-0.33,0.16-0.33,0.37v0.91c0,0.2,0.15,0.37,0.33,0.37h0.68l-4.7,6.54V5.41h0.89c0.19,0,0.33-0.17,0.33-0.37v-0.9
	c0-0.21-0.15-0.37-0.33-0.37H3.07c-0.19,0-0.33,0.16-0.33,0.37v0.91c0,0.2,0.15,0.37,0.33,0.37h0.91v13.21H3.07
	c-0.19,0-0.33,0.16-0.33,0.37v0.91c0,0.2,0.15,0.37,0.33,0.37h3.46c0.19,0,0.33-0.17,0.33-0.37V19c0-0.2-0.15-0.37-0.33-0.37H5.65
	v-4.07l1.95-2.63l3.37,6.7h-0.63c-0.18,0-0.33,0.16-0.33,0.37v0.91c0,0.2,0.15,0.37,0.33,0.37h3.52v-0.01
	c0.16-0.03,0.29-0.17,0.29-0.36V19C14.14,18.79,13.99,18.63,13.8,18.63z"/>
<path fill="#EE3333" d="M61.2,91.37h0.81l4.311,8.17l-3.74,5.05h-0.71c-0.19,0-0.33,0.17-0.33,0.37v0.91c0,0.2,0.149,0.37,0.33,0.37
	h3.46c0.189,0,0.33-0.16,0.33-0.37v-0.91c0-0.2-0.15-0.37-0.33-0.37h-0.68l4.699-6.54v6.54h-0.89c-0.19,0-0.33,0.17-0.33,0.37v0.91
	c0,0.2,0.149,0.37,0.33,0.37h3.46c0.189,0,0.33-0.16,0.33-0.37v-0.91c0-0.2-0.15-0.37-0.33-0.37h-0.91V91.37h0.91
	c0.189,0,0.33-0.17,0.33-0.37v-0.9c0-0.199-0.15-0.369-0.33-0.369h-3.46c-0.19,0-0.33,0.17-0.33,0.369v0.91
	c0,0.2,0.149,0.37,0.33,0.37h0.89v4.07L67.4,98.08l-3.371-6.7h0.631c0.18,0,0.33-0.17,0.33-0.37V90.1c0-0.199-0.15-0.369-0.33-0.369
	h-3.52v0.01c-0.16,0.029-0.291,0.18-0.291,0.359v0.91C60.859,91.21,61.01,91.37,61.2,91.37z"/>
<path fill="#EE3333" d="M13.27,24.49c-0.53-0.58-1.16-0.87-1.87-0.87c-1.19,0-1.87,1.08-2.39,1.82c-0.53-0.74-1.16-1.82-2.39-1.82
	c-0.71,0-1.33,0.29-1.87,0.87C4.19,25.1,3.9,25.84,3.9,26.72c0,1.311,0.48,2.64,1.45,3.99C5.67,31.16,9,35.85,9,35.85
	s3.38-4.74,3.71-5.21c0.93-1.33,1.4-2.63,1.4-3.92C14.11,25.84,13.83,25.1,13.27,24.49z"/>
<path fill="#EE3333" d="M46.609,44.48c-1.129-1.16-2.449-1.74-3.959-1.74c-2.521,0-3.961,2.16-5.081,3.64
	c-1.12-1.48-2.46-3.64-5.08-3.64c-1.51,0-2.83,0.58-3.96,1.74c-1.19,1.21-1.78,2.7-1.78,4.46c0,2.62,1.02,5.28,3.07,7.98
	c0.68,0.891,7.74,10.28,7.74,10.28s7.17-9.47,7.87-10.42c1.98-2.65,2.961-5.26,2.961-7.84C48.391,47.18,47.8,45.69,46.609,44.48z"/>
<path fill="#EE3333" d="M61.859,85.439c0.531,0.58,1.16,0.871,1.871,0.871c1.189,0,1.869-1.08,2.399-1.82
	c0.53,0.74,1.16,1.82,2.39,1.82c0.711,0,1.33-0.291,1.871-0.871c0.56-0.609,0.84-1.35,0.84-2.229c0-1.31-0.48-2.64-1.451-3.99
	c-0.319-0.45-3.649-5.14-3.649-5.14s-3.38,4.74-3.71,5.21c-0.93,1.319-1.4,2.63-1.4,3.92C61.02,84.09,61.3,84.84,61.859,85.439z"/>
<path fill="#EE3333" d="M59.85,22.29v65.36H15.28V22.29H59.85z M57.85,24.29H17.28v61.36h40.57V24.29z M54.7,27.36v55.21H20.43
	V27.36H54.7z M53.77,28.29H21.36v53.351h32.419V28.29H53.77z M50.2,31.99H24.93v45.949H50.2V31.99z M51.08,31.11v47.71H24.05V31.11
	H51.08z"/>
</svg>
