<?xml version="1.0" encoding="utf-8"?>
<!-- Generator: Adobe Illustrator 13.0.2, SVG Export Plug-In  -->
<!DOCTYPE svg PUBLIC "-//W3C//DTD SVG 1.1//EN" "http://www.w3.org/Graphics/SVG/1.1/DTD/svg11.dtd" [
	<!ENTITY ns_flows "http://ns.adobe.com/Flows/1.0/">
]>
<svg version="1.1"
	 xmlns="http://www.w3.org/2000/svg" xmlns:xlink="http://www.w3.org/1999/xlink" xmlns:a="http://ns.adobe.com/AdobeSVGViewerExtensions/3.0/"
	 x="0px" y="0px" width="75px" height="110px" viewBox="0 0 75 110" enable-background="new 0 0 75 110" xml:space="preserve">
<defs>
</defs>
<rect fill="none" width="75" height="110"/>
<linearGradient id="SVGID_1_" gradientUnits="userSpaceOnUse" x1="1554.4678" y1="1657.9805" x2="1616.5326" y2="1546.0125" gradientTransform="matrix(1 0 0 -1 -1548 1657)">
	<stop  offset="0" style="stop-color:#FFFFFF"/>
	<stop  offset="1" style="stop-color:#DEDEDF"/>
</linearGradient>
<path fill="url(#SVGID_1_)" d="M74.51,105.141c0,2.409-2.02,4.369-4.51,4.369H5c-2.49,0-4.51-1.96-4.51-4.369V4.86
	C0.49,2.45,2.51,0.5,5,0.5h65c2.49,0,4.51,1.96,4.51,4.37V105.141z"/>
<path fill="#B3B3B3" d="M5,110c-2.75-0.01-5-2.17-5-4.859l0,0V4.86C0,2.16,2.25,0.01,5,0l0,0h65c2.75,0.01,5,2.16,5,4.86l0,0v100.27
	l0,0c0,2.7-2.25,4.86-5,4.86l0,0H5V110z M0.99,4.86v100.27c0,2.12,1.78,3.87,4.01,3.87l0,0h65c2.23,0,4.01-1.75,4.01-3.87l0,0V4.86
	c0-2.13-1.779-3.87-4.01-3.87l0,0H5C2.77,0.99,0.99,2.74,0.99,4.86L0.99,4.86z"/>
<path fill="#ED1C24" d="M14.74,18.64h-0.8L9.48,3.77H7.73L3.51,18.64H2.75c-0.18,0-0.33,0.16-0.33,0.36v0.89
	c0,0.2,0.15,0.36,0.33,0.36h3.09c0.18,0,0.33-0.16,0.33-0.36V19c0-0.2-0.15-0.36-0.33-0.36H5.18l0.89-3.39h5.11l0.96,3.39h-0.49
	c-0.18,0-0.33,0.16-0.33,0.36v0.89c0,0.2,0.15,0.36,0.33,0.36h3.1c0.18,0,0.33-0.16,0.33-0.36V19
	C15.07,18.8,14.92,18.64,14.74,18.64z M6.54,13.48L7.9,8.65C8.18,7.6,8.4,6.55,8.56,5.5c0.18,0.88,0.47,2.01,0.86,3.42l1.26,4.56
	H6.54z"/>
<path fill="#ED1C24" d="M60.26,91.359h0.801l4.469,14.871h1.75l4.211-14.871h0.77c0.18,0,0.33-0.159,0.33-0.359v-0.891
	c0-0.199-0.15-0.359-0.33-0.359h-3.09c-0.18,0-0.33,0.16-0.33,0.359V91c0,0.2,0.15,0.359,0.33,0.359h0.65L68.93,94.75H63.82
	l-0.961-3.391h0.49c0.18,0,0.33-0.159,0.33-0.359v-0.891c0-0.199-0.15-0.359-0.33-0.359h-3.09c-0.18,0-0.33,0.16-0.33,0.359V91
	C59.93,91.2,60.08,91.359,60.26,91.359z M68.46,96.53l-1.36,4.829c-0.289,1.041-0.51,2.091-0.67,3.15
	c-0.18-0.88-0.47-2.01-0.859-3.42l-1.26-4.56H68.46z"/>
<path fill="#ED1C24" d="M13.06,24.73c-0.53-0.58-1.16-0.87-1.87-0.87c-1.19,0-1.87,1.08-2.4,1.82c-0.53-0.74-1.16-1.82-2.39-1.82
	c-0.71,0-1.33,0.29-1.87,0.87c-0.56,0.61-0.84,1.35-0.84,2.23c0,1.31,0.48,2.64,1.45,3.99c0.32,0.45,3.65,5.14,3.65,5.14
	s3.38-4.74,3.71-5.21c0.93-1.33,1.4-2.63,1.4-3.92C13.9,26.08,13.62,25.34,13.06,24.73z"/>
<path fill="#ED1C24" d="M46.54,43.72c-1.13-1.16-2.45-1.74-3.96-1.74c-2.52,0-3.96,2.16-5.08,3.64c-1.12-1.48-2.46-3.64-5.08-3.64
	c-1.51,0-2.83,0.58-3.96,1.74c-1.19,1.21-1.78,2.7-1.78,4.46c0,2.62,1.02,5.28,3.07,7.98c0.68,0.89,7.74,10.279,7.74,10.279
	s7.17-9.47,7.869-10.42c1.98-2.649,2.961-5.26,2.961-7.839C48.33,46.42,47.73,44.93,46.54,43.72z"/>
<path fill="#ED1C24" d="M61.65,85.68c0.529,0.58,1.16,0.87,1.869,0.87c1.19,0,1.871-1.08,2.391-1.819
	c0.529,0.739,1.16,1.819,2.39,1.819c0.71,0,1.33-0.29,1.87-0.87c0.561-0.609,0.84-1.35,0.84-2.229c0-1.31-0.48-2.64-1.449-3.99
	c-0.32-0.45-3.65-5.14-3.65-5.14s-3.381,4.74-3.71,5.21c-0.931,1.329-1.4,2.63-1.4,3.92C60.811,84.33,61.09,85.07,61.65,85.68z"/>
<path fill="#ED1C24" d="M37.49,70.84l4.119-5.6l6.021-8.2c2.7-3.72,3.97-7.28,3.97-10.68c0-2.22-0.72-4.04-2.149-5.54
	c-1.37-1.45-2.91-2.12-4.66-2.12c-3.28,0-5.54,2.07-7.29,4.45c-1.79-2.43-3.92-4.45-7.29-4.45c-1.75,0-3.29,0.67-4.66,2.12
	c-1.43,1.5-2.15,3.32-2.15,5.54c0,3.46,1.31,7.08,4.12,10.88L37.49,70.84z M44.29,36.94c2.41,0,4.51,0.94,6.26,2.73
	c1.841,1.88,2.771,4.21,2.771,6.9c0,3.8-1.461,7.57-4.23,11.28l-5.619,7.45L40.3,69.49l-0.54,0.76c-0.189,0.3-0.41,0.65-0.65,0.93
	L37.5,73.47l-1.44-2.159L26.07,58.05c-2.86-3.77-4.38-7.61-4.38-11.48c0-2.69,0.92-5.02,2.77-6.9c1.75-1.79,3.85-2.73,6.26-2.73
	c2.92,0,4.96,1.65,6.64,3.78l0.33-0.01C39.359,38.63,41.43,36.94,44.29,36.94z"/>
</svg>
