<?xml version="1.0" encoding="utf-8"?>
<!-- Generator: Adobe Illustrator 13.0.2, SVG Export Plug-In  -->
<!DOCTYPE svg PUBLIC "-//W3C//DTD SVG 1.1//EN" "http://www.w3.org/Graphics/SVG/1.1/DTD/svg11.dtd" [
	<!ENTITY ns_flows "http://ns.adobe.com/Flows/1.0/">
]>
<svg version="1.1"
	 xmlns="http://www.w3.org/2000/svg" xmlns:xlink="http://www.w3.org/1999/xlink" xmlns:a="http://ns.adobe.com/AdobeSVGViewerExtensions/3.0/"
	 x="0px" y="0px" width="75px" height="110px" viewBox="0 0 75 110" enable-background="new 0 0 75 110" xml:space="preserve">
<defs>
</defs>
<rect fill="none" width="75" height="110"/>
<linearGradient id="SVGID_1_" gradientUnits="userSpaceOnUse" x1="1554.4678" y1="1657.9805" x2="1616.5326" y2="1546.0125" gradientTransform="matrix(1 0 0 -1 -1548 1657)">
	<stop  offset="0" style="stop-color:#FFFFFF"/>
	<stop  offset="1" style="stop-color:#DEDEDF"/>
</linearGradient>
<path fill="url(#SVGID_1_)" d="M74.51,105.141c0,2.409-2.02,4.369-4.51,4.369H5c-2.49,0-4.51-1.96-4.51-4.369V4.86
	C0.49,2.45,2.51,0.5,5,0.5h65c2.49,0,4.51,1.96,4.51,4.37V105.141z"/>
<path fill="#B3B3B3" d="M5,110c-2.75-0.01-5-2.17-5-4.859l0,0V4.86C0,2.16,2.25,0.01,5,0l0,0h65c2.75,0.01,5,2.16,5,4.86l0,0v100.27
	l0,0c0,2.7-2.25,4.86-5,4.86l0,0H5V110z M0.99,4.86v100.27c0,2.12,1.78,3.87,4.01,3.87l0,0h65c2.23,0,4.01-1.75,4.01-3.87l0,0V4.86
	c0-2.13-1.779-3.87-4.01-3.87l0,0H5C2.77,0.99,0.99,2.74,0.99,4.86L0.99,4.86z"/>
<path fill="#EE3333" d="M14.39,18.75c-0.05-0.01-0.65-0.14-1.47-0.51c0.43-0.61,0.68-1.32,0.68-2.08V7.88c0-2.27-2.2-4.11-4.91-4.11
	c-2.72,0-4.92,1.84-4.92,4.11v5.17c-0.32-0.02-0.57-0.02-0.7-0.02c-0.05,0-0.08,0-0.09,0l0.04,1.56h0.05c0.11,0,0.36,0,0.7,0.02
	v1.55c0,2.27,2.2,4.11,4.92,4.11c1.11,0,2.14-0.31,2.96-0.84c1.27,0.62,2.24,0.82,2.31,0.84L14.39,18.75z M8.69,5.33
	c1.68,0,3.05,1.14,3.05,2.55v8.28c0,0.42-0.12,0.81-0.34,1.16c-0.08-0.08-0.17-0.17-0.26-0.27c-0.38-0.42-0.83-1-1.41-1.58
	c-0.58-0.59-1.3-1.2-2.27-1.66c-0.58-0.28-1.21-0.44-1.81-0.56V7.88C5.64,6.47,7.01,5.33,8.69,5.33z M5.64,16.16v-1.29
	c0.33,0.08,0.65,0.18,0.89,0.3c0.92,0.44,1.62,1.11,2.23,1.8c0.31,0.35,0.59,0.7,0.88,1.021c0.14,0.15,0.28,0.29,0.42,0.43
	C9.64,18.6,9.18,18.7,8.68,18.7C7.01,18.71,5.64,17.56,5.64,16.16z"/>
<path fill="#EE3333" d="M60.609,91.25c0.051,0.01,0.65,0.141,1.471,0.51c-0.43,0.61-0.68,1.32-0.68,2.08v8.28
	c0,2.271,2.199,4.11,4.91,4.11c2.719,0,4.92-1.84,4.92-4.11v-5.17c0.319,0.02,0.569,0.02,0.689,0.02c0.051,0,0.08,0,0.09,0
	l-0.039-1.56H71.92c-0.109,0-0.359,0-0.689-0.02V93.84c0-2.27-2.201-4.109-4.92-4.109c-1.11,0-2.141,0.319-2.961,0.84
	c-1.27-0.62-2.24-0.82-2.31-0.84L60.609,91.25z M66.311,104.67c-1.681,0-3.041-1.14-3.041-2.55v-8.28c0-0.42,0.121-0.81,0.34-1.16
	c0.08,0.08,0.17,0.17,0.261,0.271c0.38,0.42,0.83,1,1.409,1.579c0.58,0.591,1.301,1.201,2.271,1.66c0.58,0.271,1.21,0.44,1.82,0.561
	v5.38C69.359,103.53,67.99,104.67,66.311,104.67z M69.359,93.84v1.29c-0.33-0.08-0.649-0.18-0.889-0.3
	c-0.921-0.439-1.621-1.11-2.23-1.801c-0.311-0.35-0.59-0.699-0.881-1.02c-0.139-0.15-0.279-0.29-0.42-0.43
	c0.42-0.18,0.881-0.28,1.381-0.28C67.99,91.29,69.359,92.439,69.359,93.84z"/>
<path fill="#EE3333" d="M13.17,24.32c-0.53-0.58-1.16-0.87-1.87-0.87c-1.19,0-1.87,1.08-2.39,1.82c-0.53-0.74-1.16-1.82-2.39-1.82
	c-0.71,0-1.33,0.29-1.87,0.87c-0.56,0.61-0.84,1.35-0.84,2.23c0,1.31,0.48,2.64,1.45,3.99c0.32,0.45,3.65,5.14,3.65,5.14
	s3.38-4.74,3.71-5.21c0.93-1.32,1.4-2.63,1.4-3.92C14.01,25.67,13.73,24.92,13.17,24.32z"/>
<path fill="#EE3333" d="M46.5,44.3c-1.13-1.16-2.45-1.74-3.96-1.74c-2.521,0-3.96,2.16-5.08,3.64c-1.12-1.48-2.46-3.64-5.08-3.64
	c-1.51,0-2.83,0.58-3.96,1.74c-1.19,1.21-1.78,2.7-1.78,4.46c0,2.62,1.02,5.28,3.07,7.98c0.68,0.89,7.74,10.279,7.74,10.279
	s7.17-9.47,7.87-10.42c1.979-2.649,2.959-5.26,2.959-7.84C48.29,47,47.689,45.52,46.5,44.3z"/>
<path fill="#EE3333" d="M61.76,85.27c0.53,0.58,1.16,0.871,1.87,0.871c1.19,0,1.87-1.08,2.399-1.82c0.531,0.74,1.16,1.82,2.391,1.82
	c0.71,0,1.33-0.291,1.87-0.871c0.56-0.609,0.84-1.35,0.84-2.229c0-1.31-0.479-2.64-1.45-3.99c-0.32-0.45-3.65-5.14-3.65-5.14
	s-3.379,4.74-3.709,5.21c-0.93,1.319-1.4,2.63-1.4,3.92C60.92,83.92,61.2,84.66,61.76,85.27z"/>
<path fill="#EE3333" d="M56.92,25.14v59.31H18V25.14H56.92z M54.92,27.14H20v55.31h34.91V27.14H54.92z M51.15,31.05H23.77v47.49
	h27.38V31.05z M52.1,30.1v49.38H22.83V30.1H52.1z"/>
</svg>
