<?xml version="1.0" encoding="utf-8"?>
<!-- Generator: Adobe Illustrator 13.0.2, SVG Export Plug-In  -->
<!DOCTYPE svg PUBLIC "-//W3C//DTD SVG 1.1//EN" "http://www.w3.org/Graphics/SVG/1.1/DTD/svg11.dtd" [
	<!ENTITY ns_flows "http://ns.adobe.com/Flows/1.0/">
]>
<svg version="1.1"
	 xmlns="http://www.w3.org/2000/svg" xmlns:xlink="http://www.w3.org/1999/xlink" xmlns:a="http://ns.adobe.com/AdobeSVGViewerExtensions/3.0/"
	 x="0px" y="0px" width="75px" height="110px" viewBox="0 0 75 110" enable-background="new 0 0 75 110" xml:space="preserve">
<defs>
</defs>
<rect fill="none" width="75" height="110"/>
<linearGradient id="SVGID_1_" gradientUnits="userSpaceOnUse" x1="1554.4678" y1="1657.9805" x2="1616.5326" y2="1546.0125" gradientTransform="matrix(1 0 0 -1 -1548 1657)">
	<stop  offset="0" style="stop-color:#FFFFFF"/>
	<stop  offset="1" style="stop-color:#DEDEDF"/>
</linearGradient>
<path fill="url(#SVGID_1_)" d="M74.51,105.141c0,2.409-2.02,4.369-4.51,4.369H5c-2.49,0-4.51-1.96-4.51-4.369V4.86
	C0.49,2.45,2.51,0.5,5,0.5h65c2.49,0,4.51,1.96,4.51,4.37V105.141z"/>
<path fill="#B3B3B3" d="M5,110c-2.75-0.01-5-2.17-5-4.859l0,0V4.86C0,2.16,2.25,0.01,5,0l0,0h65c2.75,0.01,5,2.16,5,4.86l0,0v100.27
	l0,0c0,2.7-2.25,4.86-5,4.86l0,0H5V110z M0.99,4.86v100.27c0,2.12,1.78,3.87,4.01,3.87l0,0h65c2.23,0,4.01-1.75,4.01-3.87l0,0V4.86
	c0-2.13-1.779-3.87-4.01-3.87l0,0H5C2.77,0.99,0.99,2.74,0.99,4.86L0.99,4.86z"/>
<path fill="#EE3333" d="M5.6,19.74c0,0.17-0.16,0.31-0.36,0.31H4.1c-0.2,0-0.36-0.14-0.36-0.31V4.3c0-0.17,0.16-0.31,0.36-0.31h1.13
	c0.2,0,0.36,0.14,0.36,0.31v15.44H5.6z"/>
<path fill="#EE3333" d="M12.46,3.77c-2.6,0-4.7,1.84-4.7,4.11v8.28c0,2.27,2.11,4.11,4.7,4.11c2.6,0,4.7-1.84,4.7-4.11V7.88
	C17.16,5.61,15.06,3.77,12.46,3.77z M15.38,16.16c0,1.4-1.31,2.55-2.92,2.55s-2.92-1.14-2.92-2.55V7.88c0-1.4,1.31-2.55,2.92-2.55
	s2.92,1.14,2.92,2.55V16.16z"/>
<path fill="#EE3333" d="M69.4,90.26c0-0.17,0.16-0.31,0.359-0.31h1.131c0.199,0,0.359,0.14,0.359,0.31v15.44
	c0,0.17-0.17,0.31-0.359,0.31H69.76c-0.199,0-0.359-0.14-0.359-0.31V90.26z"/>
<path fill="#EE3333" d="M62.54,106.23c2.601,0,4.7-1.84,4.7-4.11v-8.28c0-2.27-2.11-4.109-4.7-4.109c-2.601,0-4.7,1.84-4.7,4.109
	v8.28C57.83,104.391,59.939,106.23,62.54,106.23z M59.62,93.84c0-1.41,1.31-2.55,2.909-2.55c1.611,0,2.921,1.14,2.921,2.55v8.28
	c0,1.41-1.31,2.55-2.921,2.55c-1.609,0-2.909-1.15-2.909-2.55V93.84z"/>
<path fill="#EE3333" d="M13.39,24.6c-0.53-0.58-1.16-0.87-1.87-0.87c-1.19,0-1.87,1.08-2.39,1.82c-0.53-0.74-1.16-1.82-2.39-1.82
	c-0.71,0-1.33,0.29-1.87,0.87c-0.56,0.61-0.84,1.35-0.84,2.23c0,1.31,0.48,2.64,1.45,3.99c0.32,0.45,3.65,5.14,3.65,5.14
	s3.38-4.74,3.71-5.21c0.93-1.33,1.4-2.63,1.4-3.92C14.24,25.95,13.96,25.2,13.39,24.6z"/>
<path fill="#EE3333" d="M46.73,44.58c-1.131-1.16-2.451-1.74-3.961-1.74c-2.52,0-3.959,2.16-5.08,3.64
	c-1.12-1.48-2.46-3.64-5.08-3.64c-1.51,0-2.83,0.58-3.96,1.74c-1.19,1.21-1.78,2.7-1.78,4.46c0,2.62,1.02,5.28,3.07,7.979
	c0.68,0.891,7.74,10.28,7.74,10.28s7.169-9.47,7.87-10.42c1.979-2.65,2.96-5.26,2.96-7.84C48.52,47.28,47.92,45.79,46.73,44.58z"/>
<path fill="#EE3333" d="M61.99,85.54c0.529,0.58,1.16,0.87,1.869,0.87c1.19,0,1.871-1.08,2.391-1.82
	c0.529,0.74,1.16,1.82,2.391,1.82c0.709,0,1.33-0.29,1.869-0.87c0.561-0.61,0.84-1.351,0.84-2.229c0-1.311-0.479-2.641-1.449-3.99
	c-0.32-0.45-3.65-5.141-3.65-5.141s-3.38,4.74-3.71,5.211c-0.931,1.329-1.399,2.629-1.399,3.92C61.15,84.2,61.43,84.939,61.99,85.54
	z"/>
</svg>
