<?xml version="1.0" encoding="utf-8"?>
<!-- Generator: Adobe Illustrator 13.0.2, SVG Export Plug-In  -->
<!DOCTYPE svg PUBLIC "-//W3C//DTD SVG 1.1//EN" "http://www.w3.org/Graphics/SVG/1.1/DTD/svg11.dtd" [
	<!ENTITY ns_flows "http://ns.adobe.com/Flows/1.0/">
]>
<svg version="1.1"
	 xmlns="http://www.w3.org/2000/svg" xmlns:xlink="http://www.w3.org/1999/xlink" xmlns:a="http://ns.adobe.com/AdobeSVGViewerExtensions/3.0/"
	 x="0px" y="0px" width="75px" height="110px" viewBox="0 0 75 110" enable-background="new 0 0 75 110" xml:space="preserve">
<defs>
</defs>
<rect fill="none" width="75" height="110"/>
<linearGradient id="SVGID_1_" gradientUnits="userSpaceOnUse" x1="1554.4678" y1="1657.9805" x2="1616.5326" y2="1546.0125" gradientTransform="matrix(1 0 0 -1 -1548 1657)">
	<stop  offset="0" style="stop-color:#FFFFFF"/>
	<stop  offset="1" style="stop-color:#DEDEDF"/>
</linearGradient>
<path fill="url(#SVGID_1_)" d="M74.51,105.141c0,2.409-2.02,4.369-4.51,4.369H5c-2.49,0-4.51-1.96-4.51-4.369V4.86
	C0.49,2.45,2.51,0.5,5,0.5h65c2.49,0,4.51,1.96,4.51,4.37V105.141z"/>
<path fill="#B3B3B3" d="M5,110c-2.75-0.01-5-2.17-5-4.859l0,0V4.86C0,2.16,2.25,0.01,5,0l0,0h65c2.75,0.01,5,2.16,5,4.86l0,0v100.27
	l0,0c0,2.7-2.25,4.86-5,4.86l0,0H5V110z M0.99,4.86v100.27c0,2.12,1.78,3.87,4.01,3.87l0,0h65c2.23,0,4.01-1.75,4.01-3.87l0,0V4.86
	c0-2.13-1.779-3.87-4.01-3.87l0,0H5C2.77,0.99,0.99,2.74,0.99,4.86L0.99,4.86z"/>
<path fill="#EE3333" d="M14.39,16.31v-1.86H12.2V3.77h-1.65L3.24,14.45v1.86h6.98v2.31H9.36c-0.21,0-0.38,0.17-0.38,0.37v0.91
	c0,0.2,0.17,0.37,0.38,0.37h3.56c0.21,0,0.38-0.17,0.38-0.37v-0.91c0-0.2-0.17-0.37-0.38-0.37H12.2v-2.31H14.39z M5.19,14.45
	l5.03-7.43v7.43H5.19z"/>
<path fill="#EE3333" d="M60.609,93.689v1.86h2.19v10.681h1.65l7.31-10.681v-1.86h-6.98v-2.31h0.861c0.209,0,0.379-0.17,0.379-0.37
	V90.1c0-0.199-0.17-0.369-0.379-0.369H62.08c-0.21,0-0.38,0.17-0.38,0.369v0.91c0,0.2,0.17,0.37,0.38,0.37h0.72v2.31H60.609z
	 M69.811,95.55l-5.031,7.431V95.55H69.811z"/>
<path fill="#EE3333" d="M13.22,24.52c-0.53-0.58-1.16-0.87-1.87-0.87c-1.19,0-1.87,1.08-2.39,1.82c-0.53-0.74-1.16-1.82-2.39-1.82
	c-0.71,0-1.33,0.29-1.87,0.87c-0.56,0.61-0.84,1.35-0.84,2.23c0,1.31,0.48,2.64,1.45,3.99c0.32,0.45,3.65,5.14,3.65,5.14
	s3.38-4.74,3.71-5.21c0.93-1.33,1.4-2.63,1.4-3.92C14.06,25.87,13.78,25.13,13.22,24.52z"/>
<path fill="#EE3333" d="M46.561,44.51c-1.131-1.16-2.451-1.74-3.961-1.74c-2.52,0-3.959,2.16-5.08,3.64
	c-1.12-1.48-2.46-3.64-5.08-3.64c-1.51,0-2.83,0.58-3.96,1.74c-1.19,1.21-1.78,2.7-1.78,4.46c0,2.62,1.02,5.28,3.07,7.98
	c0.68,0.89,7.74,10.28,7.74,10.28s7.17-9.471,7.87-10.42c1.979-2.65,2.96-5.261,2.96-7.841C48.34,47.21,47.74,45.72,46.561,44.51z"
	/>
<path fill="#EE3333" d="M61.811,85.47c0.529,0.58,1.16,0.87,1.869,0.87c1.19,0,1.87-1.08,2.391-1.82c0.529,0.74,1.16,1.82,2.39,1.82
	c0.71,0,1.33-0.29,1.87-0.87c0.561-0.61,0.84-1.35,0.84-2.229c0-1.311-0.48-2.641-1.449-3.99c-0.32-0.45-3.65-5.141-3.65-5.141
	s-3.381,4.74-3.711,5.211c-0.93,1.32-1.399,2.63-1.399,3.92C60.971,84.12,61.25,84.859,61.811,85.47z"/>
</svg>
