<?xml version="1.0" encoding="utf-8"?>
<!-- Generator: Adobe Illustrator 13.0.2, SVG Export Plug-In  -->
<!DOCTYPE svg PUBLIC "-//W3C//DTD SVG 1.1//EN" "http://www.w3.org/Graphics/SVG/1.1/DTD/svg11.dtd" [
	<!ENTITY ns_flows "http://ns.adobe.com/Flows/1.0/">
]>
<svg version="1.1"
	 xmlns="http://www.w3.org/2000/svg" xmlns:xlink="http://www.w3.org/1999/xlink" xmlns:a="http://ns.adobe.com/AdobeSVGViewerExtensions/3.0/"
	 x="0px" y="0px" width="75px" height="110px" viewBox="0 0 75 110" enable-background="new 0 0 75 110" xml:space="preserve">
<defs>
</defs>
<rect fill="none" width="75" height="110"/>
<linearGradient id="SVGID_1_" gradientUnits="userSpaceOnUse" x1="1554.4678" y1="1657.9805" x2="1616.5326" y2="1546.0125" gradientTransform="matrix(1 0 0 -1 -1548 1657)">
	<stop  offset="0" style="stop-color:#FFFFFF"/>
	<stop  offset="1" style="stop-color:#DEDEDF"/>
</linearGradient>
<path fill="url(#SVGID_1_)" d="M74.51,105.141c0,2.409-2.02,4.369-4.51,4.369H5c-2.49,0-4.51-1.96-4.51-4.369V4.86
	C0.49,2.45,2.51,0.5,5,0.5h65c2.49,0,4.51,1.96,4.51,4.37V105.141z"/>
<path fill="#B3B3B3" d="M5,110c-2.75-0.01-5-2.17-5-4.859l0,0V4.86C0,2.16,2.25,0.01,5,0l0,0h65c2.75,0.01,5,2.16,5,4.86l0,0v100.27
	l0,0c0,2.7-2.25,4.86-5,4.86l0,0H5V110z M0.99,4.86v100.27c0,2.12,1.78,3.87,4.01,3.87l0,0h65c2.23,0,4.01-1.75,4.01-3.87l0,0V4.86
	c0-2.13-1.779-3.87-4.01-3.87l0,0H5C2.77,0.99,0.99,2.74,0.99,4.86L0.99,4.86z"/>
<path fill="#EE3333" d="M13.76,16.65h-1.03c-0.23,0-0.42,0.14-0.42,0.32v1.37H6.63c0.21-0.37,0.47-0.73,0.8-1.1
	c0.33-0.37,1.06-1.06,2.18-2.07c1.77-1.6,2.97-2.88,3.6-3.84s0.95-1.96,0.95-3.01c0-1.18-0.4-2.23-1.21-3.16
	c-0.81-0.93-1.99-1.39-3.56-1.39c-1.44,0-2.6,0.4-3.48,1.2c-0.89,0.8-1.39,1.99-1.53,3.57l1.96,0.22c0-1.07,0.28-1.9,0.84-2.47
	c0.56-0.57,1.28-0.86,2.16-0.86c0.82,0,1.5,0.26,2.06,0.79c0.56,0.53,0.83,1.21,0.83,2.05c0,0.73-0.27,1.51-0.81,2.35
	s-1.7,2.04-3.47,3.58c-1.51,1.32-2.55,2.47-3.11,3.44C4.27,18.61,4,19.49,4.03,20.27H14.2v-3.3C14.18,16.8,13.99,16.65,13.76,16.65z
	"/>
<path fill="#EE3333" d="M61.55,93.35h1.03c0.23,0,0.42-0.14,0.42-0.319v-1.37h5.68c-0.199,0.37-0.47,0.73-0.8,1.1
	c-0.33,0.37-1.06,1.061-2.18,2.07c-1.771,1.6-2.97,2.88-3.601,3.84c-0.629,0.96-0.949,1.96-0.949,3.01c0,1.18,0.41,2.23,1.209,3.16
	c0.811,0.93,1.99,1.391,3.561,1.391c1.439,0,2.6-0.4,3.48-1.2c0.89-0.8,1.39-1.99,1.529-3.57l-1.959-0.22
	c0,1.07-0.281,1.89-0.841,2.47c-0.56,0.57-1.28,0.86-2.159,0.86c-0.82,0-1.5-0.26-2.061-0.79s-0.83-1.21-0.83-2.05
	c0-0.73,0.27-1.511,0.811-2.351c0.549-0.84,1.699-2.04,3.469-3.58c1.511-1.319,2.551-2.47,3.111-3.44
	c0.569-0.969,0.84-1.85,0.809-2.629H61.13v3.3C61.13,93.2,61.311,93.35,61.55,93.35z"/>
<path fill="#EE3333" d="M13.07,24.29c-0.53-0.58-1.16-0.87-1.87-0.87c-1.19,0-1.87,1.08-2.39,1.82c-0.53-0.74-1.16-1.82-2.4-1.82
	c-0.71,0-1.33,0.29-1.87,0.87C3.98,24.9,3.7,25.64,3.7,26.52c0,1.31,0.48,2.64,1.45,3.99c0.32,0.45,3.65,5.14,3.65,5.14
	s3.38-4.74,3.71-5.21c0.93-1.33,1.4-2.63,1.4-3.92C13.91,25.64,13.63,24.89,13.07,24.29z"/>
<path fill="#EE3333" d="M46.41,44.27c-1.131-1.16-2.45-1.74-3.96-1.74c-2.521,0-3.96,2.16-5.08,3.64c-1.12-1.48-2.46-3.64-5.08-3.64
	c-1.51,0-2.83,0.58-3.96,1.74c-1.19,1.21-1.78,2.7-1.78,4.46c0,2.62,1.02,5.28,3.07,7.98c0.68,0.89,7.74,10.28,7.74,10.28
	s7.169-9.471,7.871-10.42c1.979-2.65,2.959-5.26,2.959-7.84C48.189,46.97,47.6,45.49,46.41,44.27z"/>
<path fill="#EE3333" d="M61.66,85.24c0.529,0.58,1.16,0.869,1.869,0.869c1.191,0,1.871-1.079,2.391-1.819
	c0.53,0.74,1.16,1.819,2.391,1.819c0.709,0,1.33-0.289,1.869-0.869c0.561-0.61,0.84-1.35,0.84-2.23c0-1.31-0.479-2.64-1.449-3.99
	c-0.32-0.449-3.65-5.14-3.65-5.14s-3.38,4.74-3.71,5.21c-0.931,1.32-1.399,2.63-1.399,3.92C60.82,83.891,61.1,84.63,61.66,85.24z"/>
</svg>
