<?xml version="1.0" encoding="utf-8"?>
<!-- Generator: Adobe Illustrator 13.0.2, SVG Export Plug-In  -->
<!DOCTYPE svg PUBLIC "-//W3C//DTD SVG 1.1//EN" "http://www.w3.org/Graphics/SVG/1.1/DTD/svg11.dtd" [
	<!ENTITY ns_flows "http://ns.adobe.com/Flows/1.0/">
]>
<svg version="1.1"
	 xmlns="http://www.w3.org/2000/svg" xmlns:xlink="http://www.w3.org/1999/xlink" xmlns:a="http://ns.adobe.com/AdobeSVGViewerExtensions/3.0/"
	 x="0px" y="0px" width="75px" height="110px" viewBox="0 0 75 110" enable-background="new 0 0 75 110" xml:space="preserve">
<defs>
</defs>
<rect fill="none" width="75" height="110"/>
<linearGradient id="SVGID_1_" gradientUnits="userSpaceOnUse" x1="1554.4678" y1="1657.9805" x2="1616.5326" y2="1546.0125" gradientTransform="matrix(1 0 0 -1 -1548 1657)">
	<stop  offset="0" style="stop-color:#FFFFFF"/>
	<stop  offset="1" style="stop-color:#DEDEDF"/>
</linearGradient>
<path fill="url(#SVGID_1_)" d="M74.51,105.141c0,2.409-2.02,4.369-4.51,4.369H5c-2.49,0-4.51-1.96-4.51-4.369V4.86
	C0.49,2.45,2.51,0.5,5,0.5h65c2.49,0,4.51,1.96,4.51,4.37V105.141z"/>
<path fill="#B3B3B3" d="M5,110c-2.75-0.01-5-2.17-5-4.859l0,0V4.86C0,2.16,2.25,0.01,5,0l0,0h65c2.75,0.01,5,2.16,5,4.86l0,0v100.27
	l0,0c0,2.7-2.25,4.86-5,4.86l0,0H5V110z M0.99,4.86v100.27c0,2.12,1.78,3.87,4.01,3.87l0,0h65c2.23,0,4.01-1.75,4.01-3.87l0,0V4.86
	c0-2.13-1.779-3.87-4.01-3.87l0,0H5C2.77,0.99,0.99,2.74,0.99,4.86L0.99,4.86z"/>
<path fill="#EE3333" d="M13.51,12.22c-0.26-0.58-1.58-2.2-4.09-2.46C9.2,9.75,9.02,9.73,8.84,9.73l4.74-4.27
	c0.09-0.08,0.1-0.19,0.07-0.3c0.01-0.04,0.02-0.07,0.02-0.11V4.13c0-0.2-0.17-0.37-0.38-0.37H4.71c-0.09,0-0.17,0.03-0.24,0.08
	C4.46,3.86,4.45,3.86,4.45,3.87c-0.01,0-0.02,0.01-0.03,0.02c-0.06,0.05-0.1,0.12-0.1,0.19v2.99c0,0.18,0.2,0.32,0.44,0.32h1.09
	c0.25,0,0.45-0.14,0.45-0.32V5.41h4.63L5.88,9.94c-0.08,0.07-0.1,0.17-0.08,0.27l-0.14,1.02C6.22,11.07,7.08,11,7.46,11
	c0.89,0,2.8,0.29,3.41,0.88c0.61,0.58,0.92,2.32,0.92,3.28c0,1.02-0.33,1.85-1,2.49s-1.46,0.96-2.36,0.96
	c-1.68,0-2.73-1.08-3.15-3.26l-1.99,0.28c0.13,1.42,0.68,2.54,1.64,3.38c0.96,0.84,2.13,1.26,3.52,1.26c1.49,0,2.77-0.48,3.84-1.44
	s1.61-2.2,1.61-3.71C13.9,14.4,13.77,12.8,13.51,12.22z"/>
<path fill="#EE3333" d="M61.49,97.78c0.26,0.579,1.58,2.2,4.09,2.46c0.21,0.02,0.4,0.029,0.58,0.04l-4.74,4.27
	c-0.09,0.08-0.1,0.19-0.07,0.3c-0.01,0.041-0.02,0.07-0.02,0.11v0.91c0,0.2,0.17,0.37,0.38,0.37h8.58c0.09,0,0.17-0.03,0.239-0.08
	c0.011,0,0.021-0.01,0.021-0.02c0.011-0.011,0.021-0.021,0.021-0.021c0.06-0.05,0.1-0.12,0.1-0.2v-2.99
	c0-0.18-0.199-0.32-0.439-0.32h-1.09c-0.25,0-0.451,0.141-0.451,0.32v1.66h-4.629l5.049-4.529c0.08-0.07,0.101-0.17,0.08-0.271
	l0.141-1.021C68.779,98.93,67.92,99,67.54,99c-0.89,0-2.8-0.29-3.41-0.88s-0.92-2.32-0.92-3.28c0-1.02,0.33-1.85,1-2.49
	c0.67-0.64,1.46-0.959,2.36-0.959c1.68,0,2.729,1.08,3.15,3.26l1.989-0.28c-0.13-1.42-0.681-2.54-1.64-3.38
	c-0.961-0.84-2.131-1.26-3.521-1.26c-1.489,0-2.771,0.479-3.84,1.439s-1.61,2.2-1.61,3.71C61.1,95.6,61.23,97.2,61.49,97.78z"/>
<path fill="#EE3333" d="M13.04,24.06c-0.53-0.58-1.16-0.87-1.87-0.87c-1.19,0-1.87,1.08-2.39,1.82c-0.53-0.74-1.16-1.82-2.39-1.82
	c-0.71,0-1.33,0.29-1.87,0.87c-0.56,0.61-0.84,1.35-0.84,2.23c0,1.31,0.48,2.64,1.45,3.99c0.32,0.45,3.65,5.14,3.65,5.14
	s3.38-4.74,3.71-5.21c0.93-1.33,1.4-2.63,1.4-3.92C13.88,25.41,13.6,24.67,13.04,24.06z"/>
<path fill="#EE3333" d="M46.38,44.05c-1.13-1.16-2.45-1.74-3.96-1.74c-2.52,0-3.96,2.16-5.08,3.64c-1.12-1.48-2.46-3.64-5.08-3.64
	c-1.51,0-2.83,0.58-3.96,1.74c-1.19,1.21-1.78,2.7-1.78,4.46c0,2.62,1.02,5.28,3.07,7.98c0.68,0.89,7.74,10.279,7.74,10.279
	s7.17-9.47,7.87-10.42c1.979-2.649,2.96-5.26,2.96-7.84C48.17,46.75,47.57,45.26,46.38,44.05z"/>
<path fill="#EE3333" d="M61.63,85.01c0.53,0.58,1.16,0.87,1.87,0.87c1.189,0,1.87-1.08,2.391-1.819
	c0.529,0.739,1.159,1.819,2.389,1.819c0.711,0,1.33-0.29,1.871-0.87C70.721,84.4,71,83.66,71,82.78c0-1.311-0.48-2.64-1.45-3.99
	c-0.319-0.45-3.649-5.14-3.649-5.14s-3.381,4.74-3.711,5.209c-0.93,1.32-1.399,2.631-1.399,3.921
	C60.79,83.66,61.07,84.4,61.63,85.01z"/>
</svg>
