<?xml version="1.0" encoding="utf-8"?>
<!-- Generator: Adobe Illustrator 13.0.2, SVG Export Plug-In  -->
<!DOCTYPE svg PUBLIC "-//W3C//DTD SVG 1.1//EN" "http://www.w3.org/Graphics/SVG/1.1/DTD/svg11.dtd" [
	<!ENTITY ns_flows "http://ns.adobe.com/Flows/1.0/">
]>
<svg version="1.1"
	 xmlns="http://www.w3.org/2000/svg" xmlns:xlink="http://www.w3.org/1999/xlink" xmlns:a="http://ns.adobe.com/AdobeSVGViewerExtensions/3.0/"
	 x="0px" y="0px" width="75px" height="110px" viewBox="0 0 75 110" enable-background="new 0 0 75 110" xml:space="preserve">
<defs>
</defs>
<rect fill="none" width="75" height="110"/>
<linearGradient id="SVGID_1_" gradientUnits="userSpaceOnUse" x1="1554.4678" y1="1657.9805" x2="1616.5326" y2="1546.0125" gradientTransform="matrix(1 0 0 -1 -1548 1657)">
	<stop  offset="0" style="stop-color:#FFFFFF"/>
	<stop  offset="1" style="stop-color:#DEDEDF"/>
</linearGradient>
<path fill="url(#SVGID_1_)" d="M74.51,105.141c0,2.409-2.02,4.369-4.51,4.369H5c-2.49,0-4.51-1.96-4.51-4.369V4.86
	C0.49,2.45,2.51,0.5,5,0.5h65c2.49,0,4.51,1.96,4.51,4.37V105.141z"/>
<path fill="#B3B3B3" d="M5,110c-2.75-0.01-5-2.17-5-4.859l0,0V4.86C0,2.16,2.25,0.01,5,0l0,0h65c2.75,0.01,5,2.16,5,4.86l0,0v100.27
	l0,0c0,2.7-2.25,4.86-5,4.86l0,0H5V110z M0.99,4.86v100.27c0,2.12,1.78,3.87,4.01,3.87l0,0h65c2.23,0,4.01-1.75,4.01-3.87l0,0V4.86
	c0-2.13-1.779-3.87-4.01-3.87l0,0H5C2.77,0.99,0.99,2.74,0.99,4.86L0.99,4.86z"/>
<path fill="#EE3333" d="M13.71,7.78l-1.87,0.16c-0.18-0.83-0.44-1.42-0.78-1.78c-0.5-0.51-1.45-0.77-2.15-0.77
	c-1.08,0-2.31,0.59-2.97,1.76c-0.56,1.01-0.85,2.51-0.86,4.5c0.43-0.7,0.97-1.24,1.62-1.6c0.65-0.36,1.7-0.54,2.42-0.54
	c1.2,0,2.61,0.48,3.51,1.43c0.9,0.95,1.34,2.23,1.34,3.82c0,1.08-0.22,2.06-0.68,2.94c-0.45,0.88-1.03,1.53-1.74,1.95
	s-1.85,0.63-2.7,0.63c-1.54,0-3.16-0.6-4.15-1.811c-1-1.21-1.49-3.22-1.49-6.03c0-3.13,0.51-5.35,1.53-6.68
	c1.02-1.33,2.68-1.99,4.28-1.99c1.16,0,2.48,0.34,3.26,1.03C13.07,5.48,13.54,6.48,13.71,7.78z M5.38,14.75
	c0,1.17,0.32,2.11,0.95,2.82c0.63,0.71,1.72,1.07,2.56,1.07c0.73,0,1.74-0.33,2.32-1.01c0.58-0.67,0.86-1.59,0.86-2.76
	c0-1.15-0.29-2.04-0.86-2.67c-0.57-0.64-1.63-0.95-2.45-0.95c-0.81,0-1.87,0.31-2.47,0.94C5.68,12.83,5.38,13.68,5.38,14.75z"/>
<path fill="#EE3333" d="M61.29,102.22l1.87-0.159c0.18,0.83,0.439,1.42,0.779,1.779c0.5,0.51,1.451,0.77,2.15,0.77
	c1.08,0,2.311-0.59,2.971-1.76c0.56-1.01,0.85-2.51,0.859-4.49c-0.43,0.701-0.97,1.24-1.62,1.601c-0.649,0.36-1.7,0.54-2.42,0.54
	c-1.2,0-2.61-0.48-3.51-1.43c-0.899-0.95-1.341-2.23-1.341-3.82c0-1.08,0.221-2.061,0.671-2.939c0.45-0.881,1.03-1.531,1.739-1.951
	c0.711-0.42,1.851-0.629,2.701-0.629c1.539,0,3.159,0.6,4.149,1.81c1,1.21,1.489,3.21,1.489,6.03c0,3.119-0.51,5.35-1.529,6.68
	s-2.689,1.99-4.279,1.99c-1.16,0-2.48-0.34-3.261-1.03S61.46,103.52,61.29,102.22z M69.62,95.25c0-1.17-0.31-2.109-0.95-2.82
	c-0.63-0.71-1.72-1.07-2.561-1.07c-0.729,0-1.75,0.33-2.319,1c-0.58,0.671-0.86,1.591-0.86,2.761c0,1.149,0.291,2.04,0.86,2.67
	s1.63,0.95,2.45,0.95c0.81,0,1.869-0.311,2.47-0.94C69.32,97.17,69.62,96.32,69.62,95.25z"/>
<path fill="#EE3333" d="M13.08,24.19c-0.53-0.58-1.16-0.87-1.87-0.87c-1.19,0-1.87,1.08-2.39,1.82c-0.53-0.74-1.16-1.82-2.4-1.82
	c-0.71,0-1.33,0.29-1.87,0.87C4,24.8,3.71,25.54,3.71,26.42c0,1.31,0.48,2.64,1.45,3.99c0.32,0.45,3.65,5.14,3.65,5.14
	s3.38-4.74,3.71-5.21c0.93-1.33,1.4-2.63,1.4-3.92C13.92,25.54,13.64,24.8,13.08,24.19z"/>
<path fill="#EE3333" d="M46.42,44.18c-1.13-1.16-2.449-1.74-3.96-1.74c-2.521,0-3.96,2.16-5.08,3.64c-1.12-1.48-2.46-3.64-5.08-3.64
	c-1.51,0-2.83,0.58-3.96,1.74c-1.19,1.21-1.78,2.7-1.78,4.46c0,2.62,1.02,5.28,3.07,7.98c0.68,0.89,7.74,10.28,7.74,10.28
	s7.17-9.471,7.87-10.42c1.98-2.65,2.96-5.261,2.96-7.84C48.2,46.88,47.609,45.39,46.42,44.18z"/>
<path fill="#EE3333" d="M61.67,85.141c0.53,0.579,1.16,0.869,1.87,0.869c1.19,0,1.87-1.08,2.39-1.82c0.53,0.74,1.16,1.82,2.391,1.82
	c0.709,0,1.33-0.29,1.869-0.869c0.561-0.61,0.84-1.351,0.84-2.23c0-1.311-0.479-2.641-1.449-3.99c-0.32-0.45-3.65-5.14-3.65-5.14
	s-3.38,4.739-3.709,5.21c-0.931,1.32-1.4,2.63-1.4,3.92C60.83,83.79,61.109,84.53,61.67,85.141z"/>
</svg>
