<?xml version="1.0" encoding="utf-8"?>
<!-- Generator: Adobe Illustrator 13.0.2, SVG Export Plug-In  -->
<!DOCTYPE svg PUBLIC "-//W3C//DTD SVG 1.1//EN" "http://www.w3.org/Graphics/SVG/1.1/DTD/svg11.dtd" [
	<!ENTITY ns_flows "http://ns.adobe.com/Flows/1.0/">
]>
<svg version="1.1"
	 xmlns="http://www.w3.org/2000/svg" xmlns:xlink="http://www.w3.org/1999/xlink" xmlns:a="http://ns.adobe.com/AdobeSVGViewerExtensions/3.0/"
	 x="0px" y="0px" width="75px" height="110px" viewBox="0 0 75 110" enable-background="new 0 0 75 110" xml:space="preserve">
<defs>
</defs>
<rect fill="none" width="75" height="110"/>
<linearGradient id="SVGID_1_" gradientUnits="userSpaceOnUse" x1="1554.4678" y1="1657.9805" x2="1616.5326" y2="1546.0125" gradientTransform="matrix(1 0 0 -1 -1548 1657)">
	<stop  offset="0" style="stop-color:#FFFFFF"/>
	<stop  offset="1" style="stop-color:#DEDEDF"/>
</linearGradient>
<path fill="url(#SVGID_1_)" d="M74.51,105.141c0,2.409-2.02,4.369-4.51,4.369H5c-2.49,0-4.51-1.96-4.51-4.369V4.86
	C0.49,2.45,2.51,0.5,5,0.5h65c2.49,0,4.51,1.96,4.51,4.37V105.141z"/>
<path fill="#B3B3B3" d="M5,110c-2.75-0.01-5-2.17-5-4.859l0,0V4.86C0,2.16,2.25,0.01,5,0l0,0h65c2.75,0.01,5,2.16,5,4.86l0,0v100.27
	l0,0c0,2.7-2.25,4.86-5,4.86l0,0H5V110z M0.99,4.86v100.27c0,2.12,1.78,3.87,4.01,3.87l0,0h65c2.23,0,4.01-1.75,4.01-3.87l0,0V4.86
	c0-2.13-1.779-3.87-4.01-3.87l0,0H5C2.77,0.99,0.99,2.74,0.99,4.86L0.99,4.86z"/>
<path fill="#EE3333" d="M13.75,3.77H9c-0.21,0-0.38,0.16-0.38,0.36v0.89c0,0.2,0.17,0.36,0.38,0.36h1.33v9.57
	c0,0.97-0.09,1.7-0.28,2.18c-0.14,0.36-0.4,0.65-0.79,0.88c-0.39,0.23-1.23,0.35-1.74,0.35c-0.73,0-1.69-0.23-2.1-0.69
	C5,17.21,4.77,16.36,4.71,15.11l-1.96,0.03c0,1.67,0.44,3.18,1.24,4.02c0.69,0.74,2.13,1.11,3.54,1.11c1.45,0,2.96-0.41,3.75-1.23
	c0.8-0.82,1.2-2.22,1.2-4.22V5.38h1.28c0.21,0,0.38-0.16,0.38-0.36V4.13C14.14,3.93,13.96,3.77,13.75,3.77z"/>
<path fill="#EE3333" d="M61.25,106.23H66c0.21,0,0.38-0.16,0.38-0.36v-0.89c0-0.2-0.17-0.36-0.38-0.36h-1.33v-9.57
	c0-0.97,0.09-1.7,0.28-2.18c0.14-0.36,0.399-0.65,0.79-0.88c0.39-0.23,1.23-0.35,1.74-0.35c0.729,0,1.689,0.229,2.1,0.689
	c0.42,0.46,0.65,1.311,0.71,2.561l1.96-0.031c0-1.67-0.439-3.18-1.24-4.02c-0.689-0.74-2.13-1.109-3.539-1.109
	c-1.451,0-2.961,0.41-3.75,1.229c-0.801,0.82-1.201,2.22-1.201,4.22v9.44H61.24c-0.211,0-0.381,0.16-0.381,0.36v0.89
	C60.859,106.07,61.04,106.23,61.25,106.23z"/>
<path fill="#EE3333" d="M13.28,24.32c-0.53-0.58-1.16-0.87-1.87-0.87c-1.19,0-1.87,1.08-2.39,1.82c-0.53-0.74-1.16-1.82-2.39-1.82
	c-0.71,0-1.33,0.29-1.87,0.87c-0.56,0.61-0.84,1.35-0.84,2.23c0,1.31,0.48,2.64,1.45,3.99c0.32,0.45,3.65,5.14,3.65,5.14
	s3.38-4.74,3.71-5.21c0.93-1.32,1.4-2.63,1.4-3.92C14.12,25.67,13.84,24.92,13.28,24.32z"/>
<path fill="#EE3333" d="M46.62,44.3c-1.13-1.16-2.45-1.74-3.96-1.74c-2.52,0-3.96,2.16-5.08,3.64c-1.12-1.48-2.46-3.64-5.08-3.64
	c-1.51,0-2.83,0.58-3.96,1.74c-1.19,1.21-1.78,2.7-1.78,4.46c0,2.62,1.02,5.28,3.07,7.98c0.68,0.89,7.74,10.279,7.74,10.279
	s7.17-9.47,7.87-10.42c1.98-2.649,2.961-5.26,2.961-7.84C48.4,47,47.811,45.51,46.62,44.3z"/>
<path fill="#EE3333" d="M61.87,85.26c0.53,0.58,1.159,0.87,1.87,0.87c1.189,0,1.869-1.08,2.39-1.819
	c0.53,0.739,1.16,1.819,2.39,1.819c0.711,0,1.33-0.29,1.871-0.87c0.56-0.609,0.84-1.35,0.84-2.229c0-1.311-0.48-2.64-1.451-3.99
	c-0.319-0.45-3.649-5.14-3.649-5.14s-3.38,4.74-3.71,5.209c-0.93,1.33-1.4,2.631-1.4,3.921C61.029,83.92,61.311,84.66,61.87,85.26z"
	/>
<path fill="#EE3333" d="M54.08,28.19v53.19H21.07V28.19H54.08z M52.08,30.19H23.07v49.19h29.01V30.19z"/>
</svg>
