<?xml version="1.0" encoding="utf-8"?>
<!-- Generator: Adobe Illustrator 13.0.2, SVG Export Plug-In  -->
<!DOCTYPE svg PUBLIC "-//W3C//DTD SVG 1.1//EN" "http://www.w3.org/Graphics/SVG/1.1/DTD/svg11.dtd" [
	<!ENTITY ns_flows "http://ns.adobe.com/Flows/1.0/">
]>
<svg version="1.1"
	 xmlns="http://www.w3.org/2000/svg" xmlns:xlink="http://www.w3.org/1999/xlink" xmlns:a="http://ns.adobe.com/AdobeSVGViewerExtensions/3.0/"
	 x="0px" y="0px" width="75px" height="110px" viewBox="0 0 75 110" enable-background="new 0 0 75 110" xml:space="preserve">
<defs>
</defs>
<rect fill="none" width="75" height="110"/>
<linearGradient id="SVGID_1_" gradientUnits="userSpaceOnUse" x1="1554.4678" y1="1657.9805" x2="1616.5326" y2="1546.0125" gradientTransform="matrix(1 0 0 -1 -1548 1657)">
	<stop  offset="0" style="stop-color:#FFFFFF"/>
	<stop  offset="1" style="stop-color:#DEDEDF"/>
</linearGradient>
<path fill="url(#SVGID_1_)" d="M74.51,105.141c0,2.409-2.02,4.369-4.51,4.369H5c-2.49,0-4.51-1.96-4.51-4.369V4.86
	C0.49,2.45,2.51,0.5,5,0.5h65c2.49,0,4.51,1.96,4.51,4.37V105.141z"/>
<path fill="#B3B3B3" d="M5,110c-2.75-0.01-5-2.17-5-4.859l0,0V4.86C0,2.16,2.25,0.01,5,0l0,0h65c2.75,0.01,5,2.16,5,4.86l0,0v100.27
	l0,0c0,2.7-2.25,4.86-5,4.86l0,0H5V110z M0.99,4.86v100.27c0,2.12,1.78,3.87,4.01,3.87l0,0h65c2.23,0,4.01-1.75,4.01-3.87l0,0V4.86
	c0-2.13-1.779-3.87-4.01-3.87l0,0H5C2.77,0.99,0.99,2.74,0.99,4.86L0.99,4.86z"/>
<path d="M4.54,15.69l1.97-0.16c0.15,1.04,0.5,1.81,1.04,2.33c0.54,0.51,1.16,0.76,1.87,0.76c0.89,0,1.66-0.36,2.3-1.08
	c0.64-0.72,0.96-1.71,0.96-2.96c0-1.18-0.31-2.09-0.93-2.74c-0.62-0.65-1.4-0.97-2.34-0.97c-0.57,0-1.1,0.14-1.59,0.42
	c-0.49,0.28-0.89,0.68-1.17,1.18l-1.76-0.25L5.3,3.77h8.66V5.7H7.11l-0.07,4.41c0.91-0.68,1.87-1.02,2.88-1.02
	c1.28,0,2.39,0.48,3.33,1.44c0.94,0.96,1.42,2.26,1.42,3.89c0,1.61-0.47,2.99-1.42,4.13c-0.94,1.15-2.21,1.72-3.81,1.72
	c-1.32,0-2.44-0.4-3.35-1.21C5.18,18.24,4.66,17.12,4.54,15.69z"/>
<path d="M71.01,94.311l-1.97,0.159c-0.149-1.04-0.5-1.819-1.04-2.329c-0.54-0.511-1.16-0.761-1.87-0.761
	c-0.89,0-1.659,0.36-2.3,1.08s-0.96,1.71-0.96,2.96c0,1.18,0.31,2.09,0.93,2.74s1.4,0.97,2.341,0.97c0.569,0,1.1-0.14,1.59-0.42
	s0.89-0.68,1.17-1.18l1.76,0.25l-0.41,8.45H61.6V104.3h6.83l0.07-4.409c-0.91,0.68-1.87,1.02-2.88,1.02c-1.28,0-2.39-0.48-3.33-1.44
	s-1.41-2.26-1.41-3.89c0-1.61,0.47-2.99,1.42-4.13c0.94-1.15,2.21-1.72,3.81-1.72c1.32,0,2.44,0.41,3.351,1.22
	C70.37,91.75,70.88,92.88,71.01,94.311z"/>
<path d="M12.64,32.91c-0.49,0.5-1.07,0.76-1.73,0.76c-0.86,0-1.42-0.57-1.86-1.13c0.06,1.09,0.59,2.39,1.41,3.05H6.94
	c0.81-0.65,1.35-1.96,1.41-3.04c-0.43,0.56-0.98,1.12-1.86,1.12c-0.66,0-1.23-0.25-1.72-0.76c-0.52-0.53-0.78-1.17-0.78-1.94
	c0-0.66,0.18-1.49,0.57-2.12c0.65-1.06,4.14-5.6,4.14-5.6s3.48,4.54,4.12,5.49c0.41,0.6,0.59,1.58,0.59,2.229
	C13.41,31.74,13.16,32.38,12.64,32.91z"/>
<path d="M62.141,76.26c0.489-0.5,1.069-0.75,1.729-0.75c0.86,0,1.42,0.57,1.86,1.131c-0.061-1.091-0.59-2.391-1.41-3.051h3.51
	c-0.811,0.65-1.35,1.96-1.41,3.04c0.43-0.56,0.98-1.12,1.87-1.12c0.649,0,1.229,0.25,1.72,0.75c0.52,0.53,0.78,1.17,0.78,1.94
	c0,0.659-0.181,1.489-0.569,2.12c-0.65,1.06-4.141,5.6-4.141,5.6s-3.48-4.54-4.12-5.49c-0.41-0.6-0.59-1.58-0.59-2.229
	C61.359,77.439,61.62,76.79,62.141,76.26z"/>
<path d="M45.93,62.17c-1.07,1.1-2.32,1.641-3.74,1.641c-1.859,0-3.09-1.24-4.049-2.451c0.139,2.36,1.299,5.201,3.06,6.621h-7.63
	c1.76-1.42,2.92-4.25,3.06-6.61c-0.93,1.21-2.13,2.44-4.05,2.44c-1.43,0-2.68-0.551-3.75-1.641c-1.12-1.141-1.68-2.55-1.68-4.21
	c0-1.44,0.4-3.23,1.23-4.61c1.4-2.3,8.99-12.17,8.99-12.17s7.55,9.86,8.96,11.93c0.891,1.31,1.29,3.43,1.29,4.85
	C47.62,59.62,47.061,61.03,45.93,62.17z"/>
</svg>
