<?xml version="1.0" encoding="utf-8"?>
<!-- Generator: Adobe Illustrator 13.0.2, SVG Export Plug-In  -->
<!DOCTYPE svg PUBLIC "-//W3C//DTD SVG 1.1//EN" "http://www.w3.org/Graphics/SVG/1.1/DTD/svg11.dtd" [
	<!ENTITY ns_flows "http://ns.adobe.com/Flows/1.0/">
]>
<svg version="1.1"
	 xmlns="http://www.w3.org/2000/svg" xmlns:xlink="http://www.w3.org/1999/xlink" xmlns:a="http://ns.adobe.com/AdobeSVGViewerExtensions/3.0/"
	 x="0px" y="0px" width="75px" height="110px" viewBox="0 0 75 110" enable-background="new 0 0 75 110" xml:space="preserve">
<defs>
</defs>
<rect fill="none" width="75" height="110"/>
<linearGradient id="SVGID_1_" gradientUnits="userSpaceOnUse" x1="1554.4678" y1="1657.9805" x2="1616.5326" y2="1546.0125" gradientTransform="matrix(1 0 0 -1 -1548 1657)">
	<stop  offset="0" style="stop-color:#FFFFFF"/>
	<stop  offset="1" style="stop-color:#DEDEDF"/>
</linearGradient>
<path fill="url(#SVGID_1_)" d="M74.51,105.141c0,2.409-2.02,4.369-4.51,4.369H5c-2.49,0-4.51-1.96-4.51-4.369V4.86
	C0.49,2.45,2.51,0.5,5,0.5h65c2.49,0,4.51,1.96,4.51,4.37V105.141z"/>
<path fill="#B3B3B3" d="M5,110c-2.75-0.01-5-2.17-5-4.859l0,0V4.86C0,2.16,2.25,0.01,5,0l0,0h65c2.75,0.01,5,2.16,5,4.86l0,0v100.27
	l0,0c0,2.7-2.25,4.86-5,4.86l0,0H5V110z M0.99,4.86v100.27c0,2.12,1.78,3.87,4.01,3.87l0,0h65c2.23,0,4.01-1.75,4.01-3.87l0,0V4.86
	c0-2.13-1.779-3.87-4.01-3.87l0,0H5C2.77,0.99,0.99,2.74,0.99,4.86L0.99,4.86z"/>
<path d="M13.75,3.77H9c-0.21,0-0.38,0.16-0.38,0.36v0.89c0,0.2,0.17,0.36,0.38,0.36h1.33v9.57c0,0.97-0.09,1.7-0.28,2.18
	c-0.14,0.36-0.4,0.65-0.79,0.88c-0.39,0.23-1.23,0.35-1.74,0.35c-0.73,0-1.69-0.23-2.1-0.69C5,17.21,4.77,16.36,4.71,15.11
	l-1.96,0.03c0,1.67,0.44,3.18,1.24,4.02c0.69,0.74,2.13,1.11,3.54,1.11c1.45,0,2.96-0.41,3.75-1.23c0.8-0.82,1.2-2.22,1.2-4.22V5.38
	h1.28c0.21,0,0.38-0.16,0.38-0.36V4.13C14.14,3.93,13.96,3.77,13.75,3.77z"/>
<path d="M61.25,106.23H66c0.21,0,0.38-0.16,0.38-0.36v-0.89c0-0.2-0.17-0.36-0.38-0.36h-1.33v-9.57c0-0.97,0.09-1.7,0.28-2.18
	c0.14-0.36,0.399-0.65,0.79-0.88c0.39-0.23,1.23-0.35,1.74-0.35c0.729,0,1.689,0.229,2.1,0.689c0.42,0.46,0.65,1.311,0.71,2.561
	l1.96-0.031c0-1.67-0.439-3.18-1.24-4.02c-0.689-0.74-2.13-1.109-3.539-1.109c-1.451,0-2.961,0.41-3.75,1.229
	c-0.801,0.82-1.201,2.22-1.201,4.22v9.44H61.24c-0.211,0-0.381,0.16-0.381,0.36v0.89C60.859,106.07,61.04,106.23,61.25,106.23z"/>
<path d="M54.05,28.42v53.189H21.04V28.42H54.05z M52.05,30.42H23.04v49.189h29.01V30.42z"/>
<path d="M12.58,33.02c-0.49,0.5-1.07,0.76-1.73,0.76c-0.86,0-1.42-0.57-1.86-1.13c0.06,1.09,0.59,2.39,1.41,3.05H6.88
	c0.81-0.65,1.35-1.96,1.41-3.04c-0.43,0.56-0.98,1.12-1.86,1.12c-0.66,0-1.23-0.25-1.72-0.76c-0.52-0.53-0.78-1.17-0.78-1.94
	c0-0.66,0.18-1.49,0.57-2.12c0.65-1.06,4.14-5.6,4.14-5.6s3.48,4.54,4.12,5.49c0.41,0.6,0.59,1.58,0.59,2.23
	C13.35,31.84,13.1,32.49,12.58,33.02z"/>
<path d="M62.08,76.37c0.49-0.5,1.07-0.761,1.73-0.761c0.859,0,1.42,0.57,1.859,1.131c-0.061-1.09-0.59-2.391-1.41-3.051h3.51
	c-0.81,0.65-1.35,1.961-1.41,3.041c0.431-0.561,0.98-1.121,1.861-1.121c0.659,0,1.229,0.25,1.719,0.761
	c0.521,0.53,0.781,1.17,0.781,1.94c0,0.659-0.181,1.489-0.57,2.119C69.5,81.49,66.01,86.03,66.01,86.03s-3.48-4.54-4.119-5.49
	c-0.41-0.601-0.591-1.58-0.591-2.229C61.3,77.54,61.561,76.9,62.08,76.37z"/>
<path d="M45.87,62.28c-1.07,1.1-2.32,1.64-3.74,1.64c-1.86,0-3.09-1.24-4.05-2.45c0.141,2.36,1.3,5.2,3.061,6.62H33.51
	c1.77-1.42,2.92-4.25,3.06-6.609c-0.93,1.209-2.13,2.439-4.05,2.439c-1.43,0-2.68-0.55-3.75-1.641
	c-1.12-1.139-1.68-2.549-1.68-4.209c0-1.44,0.4-3.23,1.23-4.61c1.4-2.3,8.99-12.17,8.99-12.17s7.549,9.86,8.959,11.93
	c0.891,1.31,1.291,3.431,1.291,4.851C47.561,59.73,47,61.141,45.87,62.28z"/>
</svg>
