<?xml version="1.0" encoding="utf-8"?>
<!-- Generator: Adobe Illustrator 13.0.2, SVG Export Plug-In  -->
<!DOCTYPE svg PUBLIC "-//W3C//DTD SVG 1.1//EN" "http://www.w3.org/Graphics/SVG/1.1/DTD/svg11.dtd" [
	<!ENTITY ns_flows "http://ns.adobe.com/Flows/1.0/">
]>
<svg version="1.1"
	 xmlns="http://www.w3.org/2000/svg" xmlns:xlink="http://www.w3.org/1999/xlink" xmlns:a="http://ns.adobe.com/AdobeSVGViewerExtensions/3.0/"
	 x="0px" y="0px" width="75px" height="110px" viewBox="0 0 75 110" enable-background="new 0 0 75 110" xml:space="preserve">
<defs>
</defs>
<rect fill="none" width="75" height="110"/>
<linearGradient id="SVGID_1_" gradientUnits="userSpaceOnUse" x1="1554.4678" y1="1657.9805" x2="1616.5326" y2="1546.0125" gradientTransform="matrix(1 0 0 -1 -1548 1657)">
	<stop  offset="0" style="stop-color:#FFFFFF"/>
	<stop  offset="1" style="stop-color:#DEDEDF"/>
</linearGradient>
<path fill="url(#SVGID_1_)" d="M74.51,105.141c0,2.409-2.02,4.369-4.51,4.369H5c-2.49,0-4.51-1.96-4.51-4.369V4.86
	C0.49,2.45,2.51,0.5,5,0.5h65c2.49,0,4.51,1.96,4.51,4.37V105.141z"/>
<path fill="#B3B3B3" d="M5,110c-2.75-0.01-5-2.17-5-4.859l0,0V4.86C0,2.16,2.25,0.01,5,0l0,0h65c2.75,0.01,5,2.16,5,4.86l0,0v100.27
	l0,0c0,2.7-2.25,4.86-5,4.86l0,0H5V110z M0.99,4.86v100.27c0,2.12,1.78,3.87,4.01,3.87l0,0h65c2.23,0,4.01-1.75,4.01-3.87l0,0V4.86
	c0-2.13-1.779-3.87-4.01-3.87l0,0H5C2.77,0.99,0.99,2.74,0.99,4.86L0.99,4.86z"/>
<path d="M6.05,11.23c-0.79-0.29-1.39-0.71-1.8-1.26c-0.4-0.55-0.6-1.229-0.6-2.05c0-1.23,0.44-2.23,1.32-3
	c0.88-0.77,2.36-1.16,3.69-1.16c1.34,0,2.83,0.39,3.72,1.18c0.89,0.79,1.33,1.8,1.33,3.04c0,0.78-0.2,1.44-0.59,1.98
	c-0.39,0.54-0.99,0.96-1.79,1.26c0.98,0.32,1.73,0.83,2.26,1.53c0.53,0.71,0.79,1.58,0.79,2.62c0,1.44-0.51,2.62-1.52,3.52
	c-1.01,0.91-2.66,1.36-4.16,1.36c-1.52,0-3.17-0.45-4.19-1.36c-1.02-0.91-1.52-2.1-1.52-3.58c0-1.08,0.27-1.97,0.82-2.67
	C4.34,11.96,5.09,11.48,6.05,11.23z M5.01,15.34c0,0.99,0.32,1.79,0.97,2.4c0.65,0.61,1.8,0.91,2.71,0.91s2.06-0.29,2.7-0.88
	c0.63-0.59,0.95-1.37,0.95-2.36c0-0.99-0.33-1.79-0.98-2.4c-0.65-0.6-1.81-0.91-2.72-0.91c-0.9,0-2.05,0.3-2.68,0.9
	C5.32,13.6,5.01,14.38,5.01,15.34z M5.68,7.87c0,0.79,0.25,1.43,0.76,1.9c0.51,0.47,1.51,0.71,2.25,0.71c0.72,0,1.71-0.23,2.22-0.7
	c0.51-0.46,0.76-1.061,0.76-1.8c0-0.76-0.26-1.38-0.78-1.86S9.37,5.4,8.66,5.4s-1.7,0.23-2.21,0.71C5.94,6.59,5.68,7.16,5.68,7.87z"
	/>
<path d="M68.95,98.77c0.79,0.291,1.39,0.711,1.8,1.261s0.609,1.229,0.609,2.05c0,1.23-0.439,2.23-1.319,3s-2.36,1.16-3.69,1.16
	c-1.34,0-2.83-0.391-3.72-1.18c-0.89-0.791-1.33-1.801-1.33-3.041c0-0.779,0.2-1.439,0.591-1.979c0.389-0.54,0.989-0.96,1.789-1.26
	c-0.979-0.32-1.729-0.83-2.26-1.53c-0.529-0.71-0.79-1.58-0.79-2.62c0-1.44,0.511-2.62,1.521-3.521
	c1.02-0.909,2.66-1.359,4.16-1.359c1.52,0,3.17,0.45,4.189,1.359c1.01,0.91,1.52,2.101,1.52,3.58c0,1.08-0.27,1.971-0.819,2.67
	C70.66,98.04,69.91,98.52,68.95,98.77z M69.99,94.66c0-0.99-0.32-1.79-0.971-2.4c-0.649-0.609-1.799-0.91-2.709-0.91
	s-2.061,0.291-2.701,0.881C62.98,92.82,62.66,93.6,62.66,94.59s0.33,1.79,0.98,2.4c0.649,0.6,1.819,0.91,2.729,0.91
	c0.899,0,2.05-0.301,2.68-0.9C69.67,96.4,69.99,95.62,69.99,94.66z M69.32,102.13c0-0.79-0.25-1.43-0.76-1.899
	c-0.511-0.471-1.511-0.711-2.25-0.711c-0.721,0-1.711,0.23-2.221,0.7c-0.51,0.46-0.76,1.06-0.76,1.8c0,0.761,0.26,1.381,0.779,1.86
	c0.521,0.479,1.521,0.72,2.23,0.72s1.7-0.229,2.21-0.709C69.061,103.43,69.32,102.84,69.32,102.13z"/>
<path d="M12.34,33.04c-0.49,0.5-1.07,0.76-1.73,0.76c-0.86,0-1.42-0.57-1.86-1.13c0.06,1.09,0.6,2.39,1.41,3.05H6.65
	c0.81-0.65,1.35-1.96,1.41-3.04c-0.43,0.56-0.98,1.12-1.87,1.12c-0.66,0-1.23-0.25-1.72-0.76c-0.52-0.53-0.78-1.17-0.78-1.94
	c0-0.66,0.18-1.49,0.57-2.12c0.65-1.06,4.14-5.6,4.14-5.6s3.48,4.54,4.13,5.49c0.41,0.6,0.59,1.58,0.59,2.23
	C13.12,31.86,12.86,32.51,12.34,33.04z"/>
<path d="M61.84,76.391c0.49-0.5,1.07-0.761,1.73-0.761c0.859,0,1.42,0.57,1.859,1.13c-0.06-1.09-0.59-2.39-1.41-3.05h3.51
	c-0.809,0.649-1.35,1.96-1.409,3.04c0.43-0.561,0.979-1.12,1.87-1.12c0.66,0,1.23,0.25,1.72,0.761c0.521,0.529,0.78,1.17,0.78,1.939
	c0,0.66-0.18,1.49-0.57,2.12c-0.65,1.06-4.141,5.6-4.141,5.6s-3.479-4.54-4.119-5.489c-0.41-0.601-0.59-1.58-0.59-2.23
	C61.061,77.561,61.32,76.92,61.84,76.391z"/>
<path d="M45.63,62.3c-1.069,1.101-2.319,1.64-3.739,1.64c-1.861,0-3.091-1.239-4.051-2.449c0.14,2.359,1.301,5.199,3.061,6.619
	h-7.63c1.76-1.42,2.92-4.25,3.06-6.609c-0.93,1.21-2.13,2.439-4.05,2.439c-1.43,0-2.68-0.549-3.75-1.64
	c-1.12-1.14-1.68-2.55-1.68-4.21c0-1.439,0.4-3.23,1.23-4.61c1.4-2.3,8.99-12.17,8.99-12.17s7.55,9.86,8.959,11.93
	c0.891,1.31,1.281,3.43,1.281,4.85C47.32,59.75,46.76,61.16,45.63,62.3z"/>
</svg>
