<?xml version="1.0" encoding="utf-8"?>
<!-- Generator: Adobe Illustrator 13.0.2, SVG Export Plug-In  -->
<!DOCTYPE svg PUBLIC "-//W3C//DTD SVG 1.1//EN" "http://www.w3.org/Graphics/SVG/1.1/DTD/svg11.dtd" [
	<!ENTITY ns_flows "http://ns.adobe.com/Flows/1.0/">
]>
<svg version="1.1"
	 xmlns="http://www.w3.org/2000/svg" xmlns:xlink="http://www.w3.org/1999/xlink" xmlns:a="http://ns.adobe.com/AdobeSVGViewerExtensions/3.0/"
	 x="0px" y="0px" width="75px" height="110px" viewBox="0 0 75 110" enable-background="new 0 0 75 110" xml:space="preserve">
<defs>
</defs>
<rect fill="none" width="75" height="110"/>
<linearGradient id="SVGID_1_" gradientUnits="userSpaceOnUse" x1="1554.4678" y1="1657.9805" x2="1616.5326" y2="1546.0125" gradientTransform="matrix(1 0 0 -1 -1548 1657)">
	<stop  offset="0" style="stop-color:#FFFFFF"/>
	<stop  offset="1" style="stop-color:#DEDEDF"/>
</linearGradient>
<path fill="url(#SVGID_1_)" d="M74.51,105.141c0,2.409-2.02,4.369-4.51,4.369H5c-2.49,0-4.51-1.96-4.51-4.369V4.86
	C0.49,2.45,2.51,0.5,5,0.5h65c2.49,0,4.51,1.96,4.51,4.37V105.141z"/>
<path fill="#B3B3B3" d="M5,110c-2.75-0.01-5-2.17-5-4.859l0,0V4.86C0,2.16,2.25,0.01,5,0l0,0h65c2.75,0.01,5,2.16,5,4.86l0,0v100.27
	l0,0c0,2.7-2.25,4.86-5,4.86l0,0H5V110z M0.99,4.86v100.27c0,2.12,1.78,3.87,4.01,3.87l0,0h65c2.23,0,4.01-1.75,4.01-3.87l0,0V4.86
	c0-2.13-1.779-3.87-4.01-3.87l0,0H5C2.77,0.99,0.99,2.74,0.99,4.86L0.99,4.86z"/>
<path d="M3.03,16.25L5,16.1c0.19,0.83,0.46,1.42,0.83,1.78c0.52,0.51,1.54,0.77,2.28,0.77c1.15,0,2.45-0.59,3.14-1.76
	c0.6-1.01,0.9-2.51,0.91-4.5c-0.45,0.7-1.02,1.23-1.71,1.6c-0.69,0.36-1.8,0.54-2.56,0.54c-1.27,0-2.77-0.48-3.72-1.43
	c-0.95-0.95-1.42-2.23-1.42-3.82c0-1.08,0.24-2.06,0.72-2.94C3.93,5.46,4.55,4.81,5.3,4.39c0.75-0.42,1.96-0.63,2.86-0.63
	c1.63,0,3.35,0.6,4.4,1.81c1.05,1.21,1.58,3.22,1.58,6.03c0,3.12-0.54,5.35-1.62,6.67c-1.08,1.33-2.85,1.99-4.53,1.99
	c-1.22,0-2.63-0.34-3.45-1.03C3.71,18.56,3.2,17.56,3.03,16.25z M11.85,9.28c0-1.17-0.33-2.11-1-2.82S9.03,5.4,8.15,5.4
	c-0.78,0-1.85,0.33-2.46,1C5.07,7.07,4.77,7.99,4.77,9.16c0,1.15,0.3,2.04,0.91,2.67c0.61,0.63,1.73,0.95,2.6,0.95
	c0.86,0,1.98-0.32,2.62-0.95C11.53,11.21,11.85,10.36,11.85,9.28z"/>
<path d="M71.971,93.75L70,93.9c-0.189-0.83-0.46-1.42-0.83-1.78c-0.52-0.511-1.54-0.771-2.279-0.771c-1.15,0-2.451,0.59-3.141,1.76
	c-0.6,1.011-0.9,2.511-0.91,4.5c0.45-0.699,1.02-1.229,1.71-1.6c0.69-0.359,1.8-0.539,2.56-0.539c1.271,0,2.771,0.479,3.721,1.43
	c0.949,0.949,1.42,2.229,1.42,3.82c0,1.079-0.24,2.06-0.721,2.939c-0.479,0.88-1.09,1.529-1.84,1.949
	c-0.75,0.421-1.959,0.631-2.859,0.631c-1.63,0-3.35-0.6-4.4-1.811c-1.05-1.209-1.58-3.22-1.58-6.029c0-3.12,0.541-5.351,1.621-6.67
	c1.079-1.33,2.85-1.99,4.529-1.99c1.221,0,2.63,0.34,3.45,1.029C71.27,91.46,71.8,92.439,71.971,93.75z M63.15,100.72
	c0,1.171,0.33,2.11,1,2.82s1.82,1.06,2.699,1.06c0.78,0,1.851-0.33,2.461-1c0.609-0.67,0.91-1.59,0.91-2.76
	c0-1.15-0.301-2.04-0.91-2.67c-0.601-0.63-1.73-0.95-2.601-0.95c-0.86,0-1.979,0.32-2.62,0.95C63.45,98.8,63.15,99.641,63.15,100.72
	z"/>
<path d="M12.06,32.82c-0.49,0.5-1.07,0.75-1.73,0.75c-0.86,0-1.42-0.57-1.86-1.13c0.06,1.09,0.59,2.39,1.41,3.05H6.37
	c0.81-0.65,1.35-1.96,1.41-3.04c-0.43,0.56-0.98,1.12-1.87,1.12c-0.66,0-1.23-0.25-1.72-0.75c-0.52-0.53-0.78-1.17-0.78-1.94
	c0-0.66,0.18-1.49,0.57-2.12c0.65-1.06,4.14-5.6,4.14-5.6s3.48,4.54,4.12,5.49c0.41,0.6,0.59,1.58,0.59,2.23
	C12.84,31.64,12.58,32.29,12.06,32.82z"/>
<path d="M61.561,76.17c0.489-0.5,1.069-0.75,1.729-0.75c0.86,0,1.42,0.57,1.86,1.13c-0.061-1.09-0.59-2.39-1.41-3.05h3.51
	c-0.811,0.65-1.35,1.96-1.41,3.04c0.43-0.56,0.98-1.12,1.86-1.12c0.659,0,1.229,0.25,1.72,0.75c0.52,0.53,0.78,1.17,0.78,1.939
	c0,0.66-0.181,1.49-0.57,2.121c-0.649,1.06-4.14,5.6-4.14,5.6s-3.48-4.54-4.131-5.49c-0.409-0.6-0.59-1.58-0.59-2.23
	C60.79,77.34,61.04,76.7,61.561,76.17z"/>
<path d="M45.359,62.08c-1.069,1.1-2.319,1.64-3.739,1.64c-1.86,0-3.091-1.239-4.05-2.45c0.14,2.36,1.3,5.2,3.06,6.621H33
	c1.76-1.421,2.92-4.25,3.06-6.61c-0.93,1.21-2.13,2.439-4.05,2.439c-1.43,0-2.68-0.55-3.75-1.64c-1.12-1.15-1.68-2.55-1.68-4.21
	c0-1.44,0.4-3.23,1.23-4.61c1.4-2.3,8.99-12.17,8.99-12.17s7.55,9.86,8.96,11.93c0.891,1.31,1.29,3.43,1.29,4.85
	C47.04,59.53,46.48,60.93,45.359,62.08z"/>
</svg>
