<?xml version="1.0" encoding="utf-8"?>
<!-- Generator: Adobe Illustrator 13.0.2, SVG Export Plug-In  -->
<!DOCTYPE svg PUBLIC "-//W3C//DTD SVG 1.1//EN" "http://www.w3.org/Graphics/SVG/1.1/DTD/svg11.dtd" [
	<!ENTITY ns_flows "http://ns.adobe.com/Flows/1.0/">
]>
<svg version="1.1"
	 xmlns="http://www.w3.org/2000/svg" xmlns:xlink="http://www.w3.org/1999/xlink" xmlns:a="http://ns.adobe.com/AdobeSVGViewerExtensions/3.0/"
	 x="0px" y="0px" width="75px" height="110px" viewBox="0 0 75 110" enable-background="new 0 0 75 110" xml:space="preserve">
<defs>
</defs>
<rect fill="none" width="75" height="110"/>
<linearGradient id="SVGID_1_" gradientUnits="userSpaceOnUse" x1="1554.4678" y1="1657.9805" x2="1616.5326" y2="1546.0125" gradientTransform="matrix(1 0 0 -1 -1548 1657)">
	<stop  offset="0" style="stop-color:#FFFFFF"/>
	<stop  offset="1" style="stop-color:#DEDEDF"/>
</linearGradient>
<path fill="url(#SVGID_1_)" d="M74.51,105.141c0,2.409-2.02,4.369-4.51,4.369H5c-2.49,0-4.51-1.96-4.51-4.369V4.86
	C0.49,2.45,2.51,0.5,5,0.5h65c2.49,0,4.51,1.96,4.51,4.37V105.141z"/>
<path fill="#B3B3B3" d="M5,110c-2.75-0.01-5-2.17-5-4.859l0,0V4.86C0,2.16,2.25,0.01,5,0l0,0h65c2.75,0.01,5,2.16,5,4.86l0,0v100.27
	l0,0c0,2.7-2.25,4.86-5,4.86l0,0H5V110z M0.99,4.86v100.27c0,2.12,1.78,3.87,4.01,3.87l0,0h65c2.23,0,4.01-1.75,4.01-3.87l0,0V4.86
	c0-2.13-1.779-3.87-4.01-3.87l0,0H5C2.77,0.99,0.99,2.74,0.99,4.86L0.99,4.86z"/>
<path d="M13.8,18.63h-0.81l-4.31-8.17l3.74-5.05h0.71c0.19,0,0.33-0.17,0.33-0.37v-0.9c0-0.21-0.15-0.37-0.33-0.37H9.67
	c-0.18,0-0.33,0.16-0.33,0.37v0.91c0,0.2,0.15,0.37,0.33,0.37h0.68l-4.7,6.54V5.41h0.89c0.19,0,0.33-0.17,0.33-0.37v-0.9
	c0-0.21-0.15-0.37-0.33-0.37H3.07c-0.19,0-0.33,0.16-0.33,0.37v0.91c0,0.2,0.15,0.37,0.33,0.37h0.91v13.21H3.07
	c-0.19,0-0.33,0.16-0.33,0.37v0.91c0,0.2,0.15,0.37,0.33,0.37h3.46c0.19,0,0.33-0.17,0.33-0.37V19c0-0.2-0.15-0.37-0.33-0.37H5.65
	v-4.07l1.95-2.63l3.37,6.7h-0.63c-0.18,0-0.33,0.16-0.33,0.37v0.91c0,0.2,0.15,0.37,0.33,0.37h3.52v-0.01
	c0.16-0.03,0.29-0.17,0.29-0.36V19C14.14,18.79,13.99,18.63,13.8,18.63z"/>
<path d="M61.2,91.37h0.81l4.311,8.17l-3.74,5.05h-0.71c-0.19,0-0.33,0.17-0.33,0.37v0.91c0,0.21,0.149,0.37,0.33,0.37h3.46
	c0.189,0,0.33-0.16,0.33-0.37v-0.91c0-0.2-0.15-0.37-0.33-0.37h-0.68l4.699-6.54v6.54h-0.89c-0.19,0-0.33,0.17-0.33,0.37v0.91
	c0,0.21,0.149,0.37,0.33,0.37h3.46c0.189,0,0.33-0.16,0.33-0.37v-0.91c0-0.2-0.15-0.37-0.33-0.37h-0.91V91.37h0.91
	c0.189,0,0.33-0.17,0.33-0.37v-0.9c0-0.199-0.15-0.369-0.33-0.369h-3.46c-0.19,0-0.33,0.17-0.33,0.369v0.91
	c0,0.2,0.149,0.37,0.33,0.37h0.89v4.07L67.4,98.08l-3.371-6.7h0.631c0.18,0,0.33-0.17,0.33-0.37V90.1c0-0.199-0.15-0.369-0.33-0.369
	h-3.52v0.01c-0.16,0.029-0.291,0.18-0.291,0.359v0.91C60.859,91.21,61.01,91.37,61.2,91.37z"/>
<path d="M59.891,22.25V87.6H15.32V22.25H59.891z M57.891,24.25H17.32V85.6h40.571V24.25z M54.74,27.32v55.21H20.47V27.32H54.74z
	 M53.811,28.25H21.4V81.6h32.42V28.25H53.811z M50.24,31.95H24.97V77.9h25.27V31.95z M51.12,31.07v47.71H24.09V31.07H51.12z"/>
<path d="M12.42,32.89c-0.49,0.5-1.07,0.76-1.73,0.76c-0.86,0-1.42-0.57-1.86-1.13c0.06,1.09,0.59,2.39,1.41,3.05H6.72
	c0.81-0.65,1.35-1.96,1.41-3.04c-0.43,0.56-0.98,1.12-1.86,1.12c-0.66,0-1.23-0.25-1.72-0.76c-0.52-0.53-0.78-1.17-0.78-1.94
	c0-0.66,0.18-1.49,0.57-2.12c0.65-1.06,4.14-5.6,4.14-5.6s3.48,4.54,4.12,5.49c0.41,0.6,0.59,1.58,0.59,2.23
	C13.19,31.71,12.94,32.36,12.42,32.89z"/>
<path d="M61.92,76.24c0.49-0.5,1.07-0.76,1.73-0.76c0.859,0,1.42,0.569,1.859,1.129c-0.06-1.09-0.59-2.39-1.41-3.049h3.51
	C66.8,74.21,66.26,75.52,66.2,76.6c0.43-0.56,0.979-1.119,1.86-1.119c0.66,0,1.229,0.25,1.719,0.76
	c0.521,0.529,0.781,1.17,0.781,1.939c0,0.66-0.181,1.49-0.57,2.12c-0.65,1.06-4.141,5.601-4.141,5.601s-3.479-4.541-4.119-5.49
	c-0.41-0.6-0.59-1.58-0.59-2.23C61.141,77.41,61.4,76.77,61.92,76.24z"/>
<path d="M45.71,62.15c-1.069,1.1-2.319,1.64-3.739,1.64c-1.861,0-3.091-1.24-4.051-2.45c0.141,2.36,1.301,5.2,3.061,6.62h-7.63
	c1.77-1.42,2.92-4.25,3.06-6.61c-0.93,1.211-2.13,2.44-4.05,2.44c-1.43,0-2.68-0.55-3.75-1.64c-1.12-1.141-1.68-2.551-1.68-4.211
	c0-1.439,0.4-3.229,1.23-4.609c1.4-2.31,8.99-12.17,8.99-12.17s7.55,9.86,8.959,11.93C47,54.4,47.4,56.52,47.4,57.939
	C47.4,59.6,46.83,61.01,45.71,62.15z"/>
</svg>
