<?xml version="1.0" encoding="utf-8"?>
<!-- Generator: Adobe Illustrator 13.0.2, SVG Export Plug-In  -->
<!DOCTYPE svg PUBLIC "-//W3C//DTD SVG 1.1//EN" "http://www.w3.org/Graphics/SVG/1.1/DTD/svg11.dtd" [
	<!ENTITY ns_flows "http://ns.adobe.com/Flows/1.0/">
]>
<svg version="1.1"
	 xmlns="http://www.w3.org/2000/svg" xmlns:xlink="http://www.w3.org/1999/xlink" xmlns:a="http://ns.adobe.com/AdobeSVGViewerExtensions/3.0/"
	 x="0px" y="0px" width="75px" height="110px" viewBox="0 0 75 110" enable-background="new 0 0 75 110" xml:space="preserve">
<defs>
</defs>
<rect fill="none" width="75" height="110"/>
<linearGradient id="SVGID_1_" gradientUnits="userSpaceOnUse" x1="1554.4678" y1="1657.9805" x2="1616.5326" y2="1546.0125" gradientTransform="matrix(1 0 0 -1 -1548 1657)">
	<stop  offset="0" style="stop-color:#FFFFFF"/>
	<stop  offset="1" style="stop-color:#DEDEDF"/>
</linearGradient>
<path fill="url(#SVGID_1_)" d="M74.51,105.141c0,2.409-2.02,4.369-4.51,4.369H5c-2.49,0-4.51-1.96-4.51-4.369V4.86
	C0.49,2.45,2.51,0.5,5,0.5h65c2.49,0,4.51,1.96,4.51,4.37V105.141z"/>
<path fill="#B3B3B3" d="M5,110c-2.75-0.01-5-2.17-5-4.859l0,0V4.86C0,2.16,2.25,0.01,5,0l0,0h65c2.75,0.01,5,2.16,5,4.86l0,0v100.27
	l0,0c0,2.7-2.25,4.86-5,4.86l0,0H5V110z M0.99,4.86v100.27c0,2.12,1.78,3.87,4.01,3.87l0,0h65c2.23,0,4.01-1.75,4.01-3.87l0,0V4.86
	c0-2.13-1.779-3.87-4.01-3.87l0,0H5C2.77,0.99,0.99,2.74,0.99,4.86L0.99,4.86z"/>
<path d="M14.74,18.64h-0.8L9.48,3.77H7.73L3.51,18.64H2.75c-0.18,0-0.33,0.16-0.33,0.36v0.89c0,0.2,0.15,0.36,0.33,0.36h3.09
	c0.18,0,0.33-0.16,0.33-0.36V19c0-0.2-0.15-0.36-0.33-0.36H5.18l0.89-3.39h5.11l0.96,3.39h-0.49c-0.18,0-0.33,0.16-0.33,0.36v0.89
	c0,0.2,0.15,0.36,0.33,0.36h3.1c0.18,0,0.33-0.16,0.33-0.36V19C15.07,18.8,14.92,18.64,14.74,18.64z M6.54,13.48L7.9,8.65
	C8.18,7.6,8.4,6.55,8.56,5.5c0.18,0.88,0.47,2.01,0.86,3.42l1.26,4.56H6.54z"/>
<path d="M60.26,91.359h0.801l4.469,14.871h1.75l4.211-14.871h0.77c0.18,0,0.33-0.159,0.33-0.359v-0.891
	c0-0.199-0.15-0.359-0.33-0.359h-3.09c-0.18,0-0.33,0.16-0.33,0.359V91c0,0.2,0.15,0.359,0.33,0.359h0.65L68.93,94.75H63.82
	l-0.961-3.391h0.49c0.18,0,0.33-0.159,0.33-0.359v-0.891c0-0.199-0.15-0.359-0.33-0.359h-3.09c-0.18,0-0.33,0.16-0.33,0.359V91
	C59.93,91.2,60.08,91.359,60.26,91.359z M68.46,96.53l-1.36,4.829c-0.289,1.041-0.51,2.091-0.67,3.15
	c-0.18-0.88-0.47-2.01-0.859-3.42l-1.26-4.56H68.46z"/>
<path d="M12.83,32.71c-0.49,0.5-1.07,0.76-1.73,0.76c-0.86,0-1.42-0.57-1.86-1.13c0.06,1.09,0.59,2.39,1.41,3.05H7.14
	c0.81-0.65,1.35-1.96,1.41-3.04c-0.43,0.56-0.98,1.12-1.86,1.12c-0.66,0-1.23-0.25-1.72-0.76c-0.52-0.53-0.78-1.17-0.78-1.94
	c0-0.66,0.18-1.49,0.57-2.12c0.65-1.06,4.14-5.6,4.14-5.6s3.48,4.54,4.13,5.49c0.41,0.6,0.59,1.58,0.59,2.23
	C13.61,31.54,13.35,32.19,12.83,32.71z"/>
<path d="M62.33,76.07c0.49-0.5,1.07-0.76,1.73-0.76c0.859,0,1.42,0.569,1.859,1.129c-0.061-1.09-0.59-2.39-1.41-3.049h3.51
	c-0.81,0.649-1.35,1.959-1.41,3.039c0.431-0.56,0.98-1.119,1.871-1.119c0.66,0,1.229,0.25,1.72,0.76
	c0.521,0.529,0.78,1.17,0.78,1.939c0,0.66-0.181,1.49-0.57,2.12c-0.65,1.06-4.141,5.601-4.141,5.601s-3.479-4.541-4.119-5.49
	c-0.41-0.6-0.59-1.58-0.59-2.23C61.561,77.24,61.811,76.6,62.33,76.07z"/>
<path d="M47.57,62.22c-1.25,1.101-2.711,1.64-4.381,1.64c-2.18,0-3.619-1.239-4.739-2.449c0.159,2.359,1.521,8.91,3.59,10.33H33.1
	c2.07-1.42,3.42-7.96,3.59-10.311c-1.09,1.211-2.49,2.44-4.74,2.44c-1.67,0-3.13-0.55-4.39-1.64c-1.31-1.141-1.97-2.551-1.97-4.211
	c0-1.439,0.46-3.229,1.44-4.609c1.64-2.3,10.53-12.17,10.53-12.17s8.84,9.86,10.49,11.93c1.04,1.31,1.5,3.43,1.5,4.85
	C49.55,59.67,48.891,61.08,47.57,62.22z"/>
<path d="M41.641,67.13c1.17,3.34,3.35,4.87,6.01,6.92H27.5c2.65-2.03,4.82-3.55,6-6.87c-1.06,0.65-1.33,1.09-2.89,1.09
	c-2.42,0-4.54-0.899-6.31-2.629c-1.87-1.82-2.8-4.07-2.8-6.681c0-2.181,0.62-4.88,1.97-7.01c1.03-1.61,4.32-5.87,7.36-9.72
	c3.01-3.82,5.88-7.38,5.88-7.38s0.46-0.1,0.79-0.11c1.42-0.04,1.96,1.42,2.77,2.43l3.99,5.01c3.01,3.79,6.28,7.95,7.301,9.38
	c1.479,2.09,2.08,5.299,2.08,7.39c0,2.61-0.94,4.86-2.811,6.68c-1.77,1.729-3.88,2.63-6.301,2.63C43,68.27,42.721,67.8,41.641,67.13
	z M41,65.25c1.141,1,1.58,1.78,3.42,1.78c2.1,0,3.939-0.771,5.5-2.3c1.641-1.601,2.46-3.551,2.46-5.851c0-1.94-0.569-4.86-1.86-6.69
	c-1-1.41-4.189-5.46-7.129-9.17l-3.92-4.92l-1.581-1.97c-0.24-0.06-0.44-0.05-0.61-0.02c-0.55,0.68-2.95,3.67-5.54,6.95
	c-2.96,3.75-6.16,7.89-7.16,9.46c-1.21,1.91-1.78,4.371-1.78,6.36c0,2.3,0.82,4.261,2.45,5.851c1.56,1.529,3.4,2.3,5.5,2.3
	c2.54,0,2.83-1.23,4.58-2.761c-0.96,3.851-1.64,5.801-4.79,8.431h14.08c-3.149-2.65-3.841-4.61-4.79-8.48L41,65.25z"/>
</svg>
