<?xml version="1.0" encoding="utf-8"?>
<!-- Generator: Adobe Illustrator 13.0.2, SVG Export Plug-In  -->
<!DOCTYPE svg PUBLIC "-//W3C//DTD SVG 1.1//EN" "http://www.w3.org/Graphics/SVG/1.1/DTD/svg11.dtd" [
	<!ENTITY ns_flows "http://ns.adobe.com/Flows/1.0/">
]>
<svg version="1.1"
	 xmlns="http://www.w3.org/2000/svg" xmlns:xlink="http://www.w3.org/1999/xlink" xmlns:a="http://ns.adobe.com/AdobeSVGViewerExtensions/3.0/"
	 x="0px" y="0px" width="75px" height="110px" viewBox="0 0 75 110" enable-background="new 0 0 75 110" xml:space="preserve">
<defs>
</defs>
<rect fill="none" width="75" height="110"/>
<linearGradient id="SVGID_1_" gradientUnits="userSpaceOnUse" x1="1554.4678" y1="1657.9805" x2="1616.5326" y2="1546.0125" gradientTransform="matrix(1 0 0 -1 -1548 1657)">
	<stop  offset="0" style="stop-color:#FFFFFF"/>
	<stop  offset="1" style="stop-color:#DEDEDF"/>
</linearGradient>
<path fill="url(#SVGID_1_)" d="M74.51,105.141c0,2.409-2.02,4.369-4.51,4.369H5c-2.49,0-4.51-1.96-4.51-4.369V4.86
	C0.49,2.45,2.51,0.5,5,0.5h65c2.49,0,4.51,1.96,4.51,4.37V105.141z"/>
<path fill="#B3B3B3" d="M5,110c-2.75-0.01-5-2.17-5-4.859l0,0V4.86C0,2.16,2.25,0.01,5,0l0,0h65c2.75,0.01,5,2.16,5,4.86l0,0v100.27
	l0,0c0,2.7-2.25,4.86-5,4.86l0,0H5V110z M0.99,4.86v100.27c0,2.12,1.78,3.87,4.01,3.87l0,0h65c2.23,0,4.01-1.75,4.01-3.87l0,0V4.86
	c0-2.13-1.779-3.87-4.01-3.87l0,0H5C2.77,0.99,0.99,2.74,0.99,4.86L0.99,4.86z"/>
<path d="M13.51,12.22c-0.26-0.58-1.58-2.2-4.09-2.46C9.2,9.75,9.02,9.73,8.84,9.73l4.74-4.27c0.09-0.08,0.1-0.19,0.07-0.3
	c0.01-0.04,0.02-0.07,0.02-0.11V4.13c0-0.2-0.17-0.37-0.38-0.37H4.71c-0.09,0-0.17,0.03-0.24,0.08C4.46,3.86,4.45,3.86,4.45,3.87
	c-0.01,0-0.02,0.01-0.03,0.02c-0.06,0.05-0.1,0.12-0.1,0.19v2.99c0,0.18,0.2,0.32,0.44,0.32h1.09c0.25,0,0.45-0.14,0.45-0.32V5.41
	h4.63L5.88,9.94c-0.08,0.07-0.1,0.17-0.08,0.27l-0.14,1.02C6.22,11.07,7.08,11,7.46,11c0.89,0,2.8,0.29,3.41,0.88
	c0.61,0.58,0.92,2.32,0.92,3.28c0,1.02-0.33,1.85-1,2.49s-1.46,0.96-2.36,0.96c-1.68,0-2.73-1.08-3.15-3.26l-1.99,0.28
	c0.13,1.42,0.68,2.54,1.64,3.38c0.96,0.84,2.13,1.26,3.52,1.26c1.49,0,2.77-0.48,3.84-1.44s1.61-2.2,1.61-3.71
	C13.9,14.4,13.77,12.8,13.51,12.22z"/>
<path d="M61.49,97.78c0.26,0.579,1.58,2.2,4.09,2.46c0.21,0.02,0.4,0.029,0.58,0.04l-4.74,4.27c-0.09,0.08-0.1,0.19-0.07,0.3
	c-0.01,0.041-0.02,0.07-0.02,0.11v0.91c0,0.2,0.17,0.37,0.38,0.37h8.58c0.09,0,0.17-0.03,0.239-0.08c0.011,0,0.021-0.01,0.021-0.02
	c0.011-0.011,0.021-0.021,0.021-0.021c0.06-0.05,0.1-0.12,0.1-0.19v-2.99c0-0.18-0.199-0.319-0.439-0.319h-1.09
	c-0.25,0-0.451,0.14-0.451,0.319v1.66h-4.629l5.049-4.529c0.08-0.07,0.101-0.17,0.08-0.271l0.141-1.02
	C68.779,98.93,67.92,99,67.54,99c-0.89,0-2.8-0.29-3.41-0.88s-0.92-2.32-0.92-3.28c0-1.02,0.33-1.85,1-2.49
	c0.67-0.64,1.46-0.959,2.36-0.959c1.68,0,2.729,1.08,3.15,3.26l1.989-0.28c-0.13-1.42-0.681-2.54-1.64-3.38
	c-0.961-0.84-2.131-1.26-3.521-1.26c-1.489,0-2.771,0.479-3.84,1.439s-1.61,2.2-1.61,3.71C61.1,95.6,61.23,97.2,61.49,97.78z"/>
<path d="M12.65,32.44c-0.49,0.5-1.07,0.75-1.73,0.75c-0.86,0-1.42-0.57-1.86-1.13c0.06,1.09,0.59,2.39,1.41,3.05H6.96
	c0.81-0.65,1.35-1.96,1.41-3.04C7.94,32.63,7.39,33.2,6.5,33.2c-0.66,0-1.23-0.25-1.72-0.75C4.26,31.91,4,31.27,4,30.5
	c0-0.66,0.18-1.49,0.57-2.12c0.65-1.06,4.14-5.6,4.14-5.6s3.48,4.54,4.12,5.49c0.41,0.6,0.59,1.58,0.59,2.23
	C13.42,31.27,13.17,31.91,12.65,32.44z"/>
<path d="M62.15,75.79c0.49-0.5,1.07-0.76,1.729-0.76c0.86,0,1.42,0.569,1.86,1.13c-0.061-1.09-0.59-2.391-1.41-3.051h3.51
	c-0.811,0.65-1.35,1.961-1.41,3.041c0.43-0.561,0.98-1.121,1.87-1.121c0.66,0,1.229,0.25,1.72,0.761c0.521,0.53,0.78,1.17,0.78,1.94
	c0,0.66-0.18,1.489-0.569,2.119c-0.65,1.061-4.141,5.601-4.141,5.601s-3.48-4.54-4.13-5.49c-0.41-0.601-0.59-1.58-0.59-2.229
	C61.37,76.97,61.63,76.32,62.15,75.79z"/>
<path d="M45.939,61.7c-1.069,1.1-2.319,1.64-3.739,1.64c-1.86,0-3.091-1.24-4.05-2.449c0.14,2.359,1.3,5.199,3.06,6.619h-7.63
	c1.76-1.42,2.92-4.25,3.06-6.609c-0.93,1.209-2.13,2.439-4.05,2.439c-1.43,0-2.68-0.55-3.75-1.64c-1.12-1.14-1.68-2.55-1.68-4.21
	c0-1.44,0.4-3.23,1.23-4.61c1.4-2.31,8.99-12.17,8.99-12.17s7.55,9.86,8.96,11.93c0.891,1.31,1.28,3.43,1.28,4.85
	C47.63,59.16,47.07,60.561,45.939,61.7z"/>
</svg>
