<?xml version="1.0" encoding="utf-8"?>
<!-- Generator: Adobe Illustrator 13.0.2, SVG Export Plug-In  -->
<!DOCTYPE svg PUBLIC "-//W3C//DTD SVG 1.1//EN" "http://www.w3.org/Graphics/SVG/1.1/DTD/svg11.dtd" [
	<!ENTITY ns_flows "http://ns.adobe.com/Flows/1.0/">
]>
<svg version="1.1"
	 xmlns="http://www.w3.org/2000/svg" xmlns:xlink="http://www.w3.org/1999/xlink" xmlns:a="http://ns.adobe.com/AdobeSVGViewerExtensions/3.0/"
	 x="0px" y="0px" width="75px" height="110px" viewBox="0 0 75 110" enable-background="new 0 0 75 110" xml:space="preserve">
<defs>
</defs>
<rect fill="none" width="75" height="110"/>
<linearGradient id="SVGID_1_" gradientUnits="userSpaceOnUse" x1="1554.4678" y1="1657.9805" x2="1616.5326" y2="1546.0125" gradientTransform="matrix(1 0 0 -1 -1548 1657)">
	<stop  offset="0" style="stop-color:#FFFFFF"/>
	<stop  offset="1" style="stop-color:#DEDEDF"/>
</linearGradient>
<path fill="url(#SVGID_1_)" d="M74.51,105.141c0,2.409-2.02,4.369-4.51,4.369H5c-2.49,0-4.51-1.96-4.51-4.369V4.86
	C0.49,2.45,2.51,0.5,5,0.5h65c2.49,0,4.51,1.96,4.51,4.37V105.141z"/>
<path fill="#B3B3B3" d="M5,110c-2.75-0.01-5-2.17-5-4.859l0,0V4.86C0,2.16,2.25,0.01,5,0l0,0h65c2.75,0.01,5,2.16,5,4.86l0,0v100.27
	l0,0c0,2.7-2.25,4.86-5,4.86l0,0H5V110z M0.99,4.86v100.27c0,2.12,1.78,3.87,4.01,3.87l0,0h65c2.23,0,4.01-1.75,4.01-3.87l0,0V4.86
	c0-2.13-1.779-3.87-4.01-3.87l0,0H5C2.77,0.99,0.99,2.74,0.99,4.86L0.99,4.86z"/>
<path d="M5.6,19.74c0,0.17-0.16,0.31-0.36,0.31H4.1c-0.2,0-0.36-0.14-0.36-0.31V4.3c0-0.17,0.16-0.31,0.36-0.31h1.13
	c0.2,0,0.36,0.14,0.36,0.31v15.44H5.6z"/>
<path d="M12.46,3.77c-2.6,0-4.7,1.84-4.7,4.11v8.28c0,2.27,2.11,4.11,4.7,4.11c2.6,0,4.7-1.84,4.7-4.11V7.88
	C17.16,5.61,15.06,3.77,12.46,3.77z M15.38,16.16c0,1.4-1.31,2.55-2.92,2.55s-2.92-1.14-2.92-2.55V7.88c0-1.4,1.31-2.55,2.92-2.55
	s2.92,1.14,2.92,2.55V16.16z"/>
<path d="M69.4,90.26c0-0.17,0.16-0.31,0.359-0.31h1.131c0.199,0,0.359,0.14,0.359,0.31v15.44c0,0.17-0.17,0.31-0.359,0.31H69.76
	c-0.199,0-0.359-0.14-0.359-0.31V90.26z"/>
<path d="M62.54,106.23c2.601,0,4.7-1.84,4.7-4.11v-8.28c0-2.27-2.11-4.109-4.7-4.109c-2.601,0-4.7,1.84-4.7,4.109v8.28
	C57.83,104.391,59.939,106.23,62.54,106.23z M59.62,93.84c0-1.41,1.31-2.55,2.909-2.55c1.611,0,2.921,1.14,2.921,2.55v8.28
	c0,1.41-1.31,2.55-2.921,2.55c-1.609,0-2.909-1.15-2.909-2.55V93.84z"/>
<path d="M12.7,32.91c-0.49,0.5-1.07,0.76-1.73,0.76c-0.86,0-1.42-0.57-1.86-1.13c0.06,1.09,0.6,2.39,1.41,3.05H7.01
	c0.81-0.65,1.35-1.96,1.41-3.04c-0.43,0.56-0.98,1.12-1.87,1.12c-0.66,0-1.23-0.25-1.72-0.76c-0.52-0.53-0.78-1.17-0.78-1.94
	c0-0.66,0.18-1.49,0.57-2.12c0.65-1.06,4.14-5.6,4.14-5.6s3.48,4.54,4.12,5.49c0.41,0.6,0.59,1.58,0.59,2.229
	C13.48,31.74,13.22,32.38,12.7,32.91z"/>
<path d="M62.2,76.26c0.489-0.5,1.069-0.76,1.729-0.76c0.86,0,1.42,0.57,1.86,1.13c-0.06-1.09-0.59-2.39-1.41-3.05h3.511
	c-0.811,0.65-1.351,1.96-1.41,3.04c0.43-0.56,0.979-1.12,1.869-1.12c0.66,0,1.23,0.25,1.721,0.76c0.52,0.53,0.779,1.17,0.779,1.94
	c0,0.659-0.18,1.489-0.57,2.12c-0.649,1.06-4.139,5.6-4.139,5.6s-3.48-4.54-4.131-5.49c-0.41-0.6-0.59-1.58-0.59-2.229
	C61.42,77.439,61.68,76.79,62.2,76.26z"/>
<path d="M45.99,62.17c-1.07,1.1-2.32,1.641-3.74,1.641c-1.859,0-3.09-1.24-4.05-2.451c0.14,2.36,1.3,5.201,3.06,6.621h-7.63
	c1.76-1.42,2.92-4.25,3.06-6.61c-0.93,1.21-2.13,2.44-4.05,2.44c-1.43,0-2.68-0.551-3.75-1.641c-1.12-1.141-1.68-2.55-1.68-4.21
	c0-1.44,0.4-3.23,1.23-4.61c1.4-2.3,8.99-12.16,8.99-12.16s7.55,9.86,8.96,11.93c0.889,1.31,1.289,3.43,1.289,4.85
	C47.68,59.62,47.12,61.03,45.99,62.17z"/>
</svg>
