<?xml version="1.0" encoding="utf-8"?>
<!-- Generator: Adobe Illustrator 13.0.2, SVG Export Plug-In  -->
<!DOCTYPE svg PUBLIC "-//W3C//DTD SVG 1.1//EN" "http://www.w3.org/Graphics/SVG/1.1/DTD/svg11.dtd" [
	<!ENTITY ns_flows "http://ns.adobe.com/Flows/1.0/">
]>
<svg version="1.1"
	 xmlns="http://www.w3.org/2000/svg" xmlns:xlink="http://www.w3.org/1999/xlink" xmlns:a="http://ns.adobe.com/AdobeSVGViewerExtensions/3.0/"
	 x="0px" y="0px" width="75px" height="110px" viewBox="0 0 75 110" enable-background="new 0 0 75 110" xml:space="preserve">
<defs>
</defs>
<rect fill="none" width="75" height="110"/>
<linearGradient id="SVGID_1_" gradientUnits="userSpaceOnUse" x1="1554.4678" y1="1657.9805" x2="1616.5326" y2="1546.0125" gradientTransform="matrix(1 0 0 -1 -1548 1657)">
	<stop  offset="0" style="stop-color:#FFFFFF"/>
	<stop  offset="1" style="stop-color:#DEDEDF"/>
</linearGradient>
<path fill="url(#SVGID_1_)" d="M74.51,105.141c0,2.409-2.02,4.369-4.51,4.369H5c-2.49,0-4.51-1.96-4.51-4.369V4.86
	C0.49,2.45,2.51,0.5,5,0.5h65c2.49,0,4.51,1.96,4.51,4.37V105.141z"/>
<path fill="#B3B3B3" d="M5,110c-2.75-0.01-5-2.17-5-4.859l0,0V4.86C0,2.16,2.25,0.01,5,0l0,0h65c2.75,0.01,5,2.16,5,4.86l0,0v100.27
	l0,0c0,2.7-2.25,4.86-5,4.86l0,0H5V110z M0.99,4.86v100.27c0,2.12,1.78,3.87,4.01,3.87l0,0h65c2.23,0,4.01-1.75,4.01-3.87l0,0V4.86
	c0-2.13-1.779-3.87-4.01-3.87l0,0H5C2.77,0.99,0.99,2.74,0.99,4.86L0.99,4.86z"/>
<path d="M13.68,16.65h-1.03c-0.23,0-0.42,0.14-0.42,0.32v1.37H6.54c0.21-0.37,0.47-0.73,0.8-1.1c0.33-0.37,1.06-1.06,2.18-2.07
	c1.77-1.6,2.97-2.88,3.6-3.84s0.95-1.96,0.95-3.01c0-1.18-0.4-2.23-1.21-3.16c-0.81-0.93-1.99-1.39-3.56-1.39
	c-1.44,0-2.6,0.4-3.48,1.2c-0.89,0.8-1.39,1.99-1.53,3.57l1.96,0.22c0-1.07,0.28-1.9,0.84-2.47c0.56-0.57,1.28-0.86,2.16-0.86
	c0.82,0,1.5,0.26,2.06,0.79c0.56,0.53,0.83,1.21,0.83,2.05c0,0.73-0.27,1.51-0.81,2.35s-1.7,2.04-3.47,3.58
	c-1.51,1.32-2.55,2.47-3.11,3.44c-0.57,0.97-0.84,1.85-0.81,2.63h10.17v-3.3C14.09,16.8,13.91,16.65,13.68,16.65z"/>
<path d="M61.46,93.34h1.03c0.23,0,0.42-0.14,0.42-0.32V91.65h5.68c-0.199,0.369-0.47,0.729-0.8,1.1s-1.06,1.061-2.181,2.07
	c-1.77,1.6-2.969,2.88-3.6,3.84c-0.63,0.96-0.949,1.96-0.949,3.01c0,1.18,0.41,2.23,1.209,3.16c0.811,0.93,1.99,1.39,3.561,1.39
	c1.439,0,2.6-0.399,3.48-1.2c0.89-0.8,1.39-1.989,1.529-3.569l-1.96-0.22c0,1.069-0.28,1.89-0.84,2.47
	c-0.56,0.569-1.28,0.86-2.16,0.86c-0.819,0-1.5-0.261-2.06-0.791c-0.561-0.529-0.83-1.209-0.83-2.05c0-0.729,0.27-1.51,0.81-2.35
	c0.55-0.84,1.7-2.04,3.47-3.58c1.51-1.32,2.551-2.47,3.11-3.44c0.57-0.97,0.841-1.85,0.81-2.63H61.05v3.3
	C61.05,93.2,61.23,93.34,61.46,93.34z"/>
<path d="M12.43,32.74c-0.49,0.5-1.07,0.76-1.73,0.76c-0.86,0-1.42-0.57-1.86-1.13c0.06,1.09,0.59,2.39,1.41,3.05H6.74
	c0.81-0.65,1.35-1.96,1.41-3.04c-0.43,0.56-0.98,1.12-1.86,1.12c-0.66,0-1.23-0.25-1.72-0.76c-0.52-0.53-0.78-1.17-0.78-1.94
	c0-0.66,0.18-1.49,0.57-2.12c0.65-1.06,4.14-5.6,4.14-5.6s3.48,4.54,4.12,5.49c0.41,0.6,0.59,1.58,0.59,2.23
	C13.21,31.56,12.96,32.21,12.43,32.74z"/>
<path d="M61.939,76.09c0.49-0.5,1.07-0.76,1.73-0.76c0.859,0,1.42,0.57,1.859,1.13c-0.059-1.09-0.59-2.39-1.409-3.05h3.51
	c-0.81,0.65-1.351,1.96-1.409,3.04c0.43-0.56,0.979-1.12,1.869-1.12c0.65,0,1.23,0.25,1.721,0.76c0.52,0.53,0.779,1.17,0.779,1.939
	c0,0.66-0.18,1.49-0.57,2.121c-0.649,1.06-4.14,5.6-4.14,5.6s-3.479-4.54-4.12-5.49c-0.41-0.6-0.59-1.58-0.59-2.23
	C61.16,77.27,61.42,76.62,61.939,76.09z"/>
<path d="M45.73,62c-1.07,1.1-2.32,1.641-3.74,1.641c-1.86,0-3.09-1.24-4.05-2.451c0.14,2.36,1.3,5.201,3.06,6.621h-7.63
	c1.76-1.42,2.92-4.25,3.06-6.601c-0.93,1.21-2.13,2.44-4.05,2.44c-1.43,0-2.68-0.551-3.75-1.641c-1.12-1.14-1.68-2.55-1.68-4.21
	c0-1.44,0.4-3.23,1.23-4.61c1.4-2.3,8.99-12.17,8.99-12.17s7.551,9.86,8.96,11.93c0.89,1.31,1.29,3.43,1.29,4.85
	C47.42,59.45,46.85,60.859,45.73,62z"/>
</svg>
