<?xml version="1.0" encoding="utf-8"?>
<!-- Generator: Adobe Illustrator 13.0.2, SVG Export Plug-In  -->
<!DOCTYPE svg PUBLIC "-//W3C//DTD SVG 1.1//EN" "http://www.w3.org/Graphics/SVG/1.1/DTD/svg11.dtd" [
	<!ENTITY ns_flows "http://ns.adobe.com/Flows/1.0/">
]>
<svg version="1.1"
	 xmlns="http://www.w3.org/2000/svg" xmlns:xlink="http://www.w3.org/1999/xlink" xmlns:a="http://ns.adobe.com/AdobeSVGViewerExtensions/3.0/"
	 x="0px" y="0px" width="75px" height="110px" viewBox="0 0 75 110" enable-background="new 0 0 75 110" xml:space="preserve">
<defs>
</defs>
<rect fill="none" width="75" height="110"/>
<linearGradient id="SVGID_1_" gradientUnits="userSpaceOnUse" x1="1554.4678" y1="1657.9805" x2="1616.5326" y2="1546.0125" gradientTransform="matrix(1 0 0 -1 -1548 1657)">
	<stop  offset="0" style="stop-color:#FFFFFF"/>
	<stop  offset="1" style="stop-color:#DEDEDF"/>
</linearGradient>
<path fill="url(#SVGID_1_)" d="M74.51,105.141c0,2.409-2.02,4.369-4.51,4.369H5c-2.49,0-4.51-1.96-4.51-4.369V4.86
	C0.49,2.45,2.51,0.5,5,0.5h65c2.49,0,4.51,1.96,4.51,4.37V105.141z"/>
<path fill="#B3B3B3" d="M5,110c-2.75-0.01-5-2.17-5-4.859l0,0V4.86C0,2.16,2.25,0.01,5,0l0,0h65c2.75,0.01,5,2.16,5,4.86l0,0v100.27
	l0,0c0,2.7-2.25,4.86-5,4.86l0,0H5V110z M0.99,4.86v100.27c0,2.12,1.78,3.87,4.01,3.87l0,0h65c2.23,0,4.01-1.75,4.01-3.87l0,0V4.86
	c0-2.13-1.779-3.87-4.01-3.87l0,0H5C2.77,0.99,0.99,2.74,0.99,4.86L0.99,4.86z"/>
<path d="M14.39,18.75c-0.05-0.01-0.65-0.14-1.47-0.51c0.43-0.61,0.68-1.32,0.68-2.08V7.88c0-2.27-2.2-4.11-4.91-4.11
	c-2.72,0-4.92,1.84-4.92,4.11v5.17c-0.32-0.02-0.57-0.02-0.7-0.02c-0.05,0-0.08,0-0.09,0l0.04,1.56h0.05c0.11,0,0.36,0,0.7,0.02
	v1.55c0,2.27,2.2,4.11,4.92,4.11c1.11,0,2.14-0.31,2.96-0.84c1.27,0.62,2.24,0.82,2.31,0.84L14.39,18.75z M8.69,5.33
	c1.68,0,3.05,1.14,3.05,2.55v8.28c0,0.42-0.12,0.81-0.34,1.16c-0.08-0.08-0.17-0.17-0.26-0.27c-0.38-0.42-0.83-1-1.41-1.58
	c-0.58-0.59-1.3-1.2-2.27-1.66c-0.58-0.28-1.21-0.44-1.81-0.56V7.88C5.64,6.47,7.01,5.33,8.69,5.33z M5.64,16.16v-1.29
	c0.33,0.08,0.65,0.18,0.89,0.3c0.92,0.44,1.62,1.11,2.23,1.8c0.31,0.35,0.59,0.7,0.88,1.021c0.14,0.15,0.28,0.29,0.42,0.43
	C9.64,18.6,9.18,18.7,8.68,18.7C7.01,18.71,5.64,17.56,5.64,16.16z"/>
<path d="M60.609,91.25c0.051,0.01,0.65,0.141,1.471,0.51c-0.43,0.61-0.68,1.32-0.68,2.08v8.28c0,2.271,2.199,4.11,4.91,4.11
	c2.719,0,4.92-1.84,4.92-4.11v-5.17c0.319,0.02,0.569,0.02,0.689,0.02c0.051,0,0.08,0,0.09,0l-0.039-1.56H71.92
	c-0.109,0-0.359,0-0.689-0.02V93.84c0-2.27-2.201-4.109-4.92-4.109c-1.11,0-2.141,0.319-2.961,0.84c-1.27-0.62-2.24-0.82-2.31-0.84
	L60.609,91.25z M66.311,104.67c-1.681,0-3.041-1.14-3.041-2.55v-8.28c0-0.42,0.121-0.81,0.34-1.16c0.08,0.08,0.17,0.17,0.261,0.271
	c0.38,0.42,0.83,1,1.409,1.579c0.58,0.591,1.301,1.201,2.271,1.66c0.58,0.271,1.21,0.44,1.82,0.561v5.38
	C69.359,103.53,67.99,104.67,66.311,104.67z M69.359,93.84v1.29c-0.33-0.08-0.649-0.18-0.889-0.3
	c-0.921-0.439-1.621-1.11-2.23-1.801c-0.311-0.35-0.59-0.699-0.881-1.02c-0.139-0.15-0.279-0.29-0.42-0.43
	c0.42-0.18,0.881-0.28,1.381-0.28C67.99,91.29,69.359,92.439,69.359,93.84z"/>
<path d="M56.779,25.2v59.3H17.87V25.2H56.779z M54.779,27.2H19.87v55.3h34.909V27.2z M51.01,31.1H23.63v47.49h27.38V31.1z
	 M51.96,30.16v49.38H22.69V30.16H51.96z"/>
<path d="M12.32,32.89c-0.49,0.5-1.07,0.76-1.73,0.76c-0.86,0-1.42-0.57-1.86-1.13c0.06,1.09,0.59,2.39,1.41,3.05H6.63
	c0.81-0.65,1.35-1.96,1.41-3.04c-0.43,0.56-0.98,1.12-1.86,1.12c-0.66,0-1.23-0.25-1.72-0.76c-0.52-0.53-0.78-1.17-0.78-1.94
	c0-0.66,0.18-1.49,0.57-2.12c0.65-1.06,4.14-5.6,4.14-5.6s3.48,4.54,4.12,5.49c0.41,0.6,0.59,1.58,0.59,2.23
	C13.1,31.71,12.84,32.36,12.32,32.89z"/>
<path d="M61.82,76.24c0.49-0.5,1.07-0.76,1.729-0.76c0.86,0,1.421,0.569,1.86,1.129c-0.061-1.09-0.59-2.39-1.41-3.049h3.51
	C66.7,74.21,66.16,75.52,66.1,76.6c0.43-0.56,0.98-1.119,1.86-1.119c0.66,0,1.229,0.25,1.72,0.76c0.521,0.529,0.78,1.17,0.78,1.939
	c0,0.66-0.181,1.49-0.569,2.12c-0.65,1.06-4.141,5.601-4.141,5.601s-3.48-4.541-4.12-5.49c-0.409-0.6-0.59-1.58-0.59-2.23
	C61.05,77.42,61.3,76.77,61.82,76.24z"/>
<path d="M45.62,62.15c-1.07,1.1-2.32,1.64-3.74,1.64c-1.86,0-3.09-1.24-4.05-2.45c0.14,2.36,1.3,5.2,3.061,6.62H33.26
	c1.77-1.42,2.92-4.25,3.06-6.601c-0.93,1.211-2.13,2.44-4.05,2.44c-1.43,0-2.68-0.55-3.75-1.64c-1.12-1.141-1.68-2.551-1.68-4.21
	c0-1.44,0.4-3.23,1.23-4.61c1.4-2.3,8.99-12.17,8.99-12.17s7.549,9.86,8.959,11.93c0.891,1.31,1.291,3.43,1.291,4.85
	C47.3,59.6,46.74,61.01,45.62,62.15z"/>
</svg>
