<?xml version="1.0" encoding="utf-8"?>
<!-- Generator: Adobe Illustrator 13.0.2, SVG Export Plug-In  -->
<!DOCTYPE svg PUBLIC "-//W3C//DTD SVG 1.1//EN" "http://www.w3.org/Graphics/SVG/1.1/DTD/svg11.dtd" [
	<!ENTITY ns_flows "http://ns.adobe.com/Flows/1.0/">
]>
<svg version="1.1"
	 xmlns="http://www.w3.org/2000/svg" xmlns:xlink="http://www.w3.org/1999/xlink" xmlns:a="http://ns.adobe.com/AdobeSVGViewerExtensions/3.0/"
	 x="0px" y="0px" width="75px" height="110px" viewBox="0 0 75 110" enable-background="new 0 0 75 110" xml:space="preserve">
<defs>
</defs>
<rect fill="none" width="75" height="110"/>
<linearGradient id="SVGID_1_" gradientUnits="userSpaceOnUse" x1="1554.4678" y1="1657.9805" x2="1616.5326" y2="1546.0125" gradientTransform="matrix(1 0 0 -1 -1548 1657)">
	<stop  offset="0" style="stop-color:#FFFFFF"/>
	<stop  offset="1" style="stop-color:#DEDEDF"/>
</linearGradient>
<path fill="url(#SVGID_1_)" d="M74.51,105.141c0,2.409-2.02,4.369-4.51,4.369H5c-2.49,0-4.51-1.96-4.51-4.369V4.86
	C0.49,2.45,2.51,0.5,5,0.5h65c2.49,0,4.51,1.96,4.51,4.37V105.141z"/>
<path fill="#B3B3B3" d="M5,110c-2.75-0.01-5-2.17-5-4.859l0,0V4.86C0,2.16,2.25,0.01,5,0l0,0h65c2.75,0.01,5,2.16,5,4.86l0,0v100.27
	l0,0c0,2.7-2.25,4.86-5,4.86l0,0H5V110z M0.99,4.86v100.27c0,2.12,1.78,3.87,4.01,3.87l0,0h65c2.23,0,4.01-1.75,4.01-3.87l0,0V4.86
	c0-2.13-1.779-3.87-4.01-3.87l0,0H5C2.77,0.99,0.99,2.74,0.99,4.86L0.99,4.86z"/>
<path d="M14.39,16.31v-1.86H12.2V3.77h-1.65L3.24,14.45v1.86h6.98v2.31H9.36c-0.21,0-0.38,0.17-0.38,0.37v0.91
	c0,0.2,0.17,0.37,0.38,0.37h3.56c0.21,0,0.38-0.17,0.38-0.37v-0.91c0-0.2-0.17-0.37-0.38-0.37H12.2v-2.31H14.39z M5.19,14.45
	l5.03-7.43v7.43H5.19z"/>
<path d="M60.609,93.689v1.86h2.19v10.681h1.65l7.31-10.681v-1.86h-6.98v-2.31h0.861c0.209,0,0.379-0.17,0.379-0.37V90.1
	c0-0.199-0.17-0.369-0.379-0.369H62.08c-0.21,0-0.38,0.17-0.38,0.369v0.91c0,0.2,0.17,0.37,0.38,0.37h0.72v2.31H60.609z
	 M69.811,95.55l-5.031,7.431V95.55H69.811z"/>
<path d="M12.8,32.79c-0.49,0.5-1.07,0.76-1.73,0.76c-0.86,0-1.42-0.57-1.86-1.13c0.06,1.09,0.59,2.39,1.41,3.05H7.11
	c0.81-0.65,1.35-1.96,1.41-3.04c-0.43,0.56-0.98,1.12-1.86,1.12c-0.66,0-1.23-0.25-1.72-0.76c-0.52-0.53-0.78-1.17-0.78-1.94
	c0-0.66,0.18-1.49,0.57-2.12c0.65-1.06,4.14-5.6,4.14-5.6s3.48,4.54,4.12,5.49c0.41,0.6,0.59,1.58,0.59,2.23
	C13.57,31.62,13.32,32.27,12.8,32.79z"/>
<path d="M62.3,76.15c0.49-0.5,1.07-0.75,1.729-0.75c0.861,0,1.421,0.569,1.861,1.13c-0.061-1.091-0.591-2.39-1.41-3.05h3.51
	c-0.811,0.649-1.35,1.959-1.41,3.039c0.43-0.56,0.98-1.119,1.859-1.119c0.66,0,1.23,0.25,1.721,0.75
	c0.52,0.529,0.779,1.17,0.779,1.939c0,0.66-0.18,1.49-0.569,2.12c-0.649,1.06-4.14,5.601-4.14,5.601s-3.48-4.541-4.121-5.49
	c-0.409-0.601-0.59-1.58-0.59-2.23C61.52,77.32,61.779,76.68,62.3,76.15z"/>
<path d="M46.09,62.061c-1.07,1.1-2.32,1.64-3.74,1.64c-1.859,0-3.09-1.24-4.05-2.45c0.14,2.359,1.3,5.2,3.06,6.62H33.73
	c1.77-1.42,2.92-4.25,3.06-6.61c-0.93,1.21-2.13,2.44-4.05,2.44c-1.43,0-2.68-0.55-3.75-1.64c-1.12-1.15-1.68-2.551-1.68-4.211
	c0-1.439,0.4-3.229,1.23-4.609c1.4-2.3,8.99-12.17,8.99-12.17s7.55,9.86,8.96,11.93c0.89,1.31,1.289,3.43,1.289,4.85
	C47.779,59.51,47.221,60.91,46.09,62.061z"/>
</svg>
