<?xml version="1.0" encoding="utf-8"?>
<!-- Generator: Adobe Illustrator 13.0.2, SVG Export Plug-In  -->
<!DOCTYPE svg PUBLIC "-//W3C//DTD SVG 1.1//EN" "http://www.w3.org/Graphics/SVG/1.1/DTD/svg11.dtd" [
	<!ENTITY ns_flows "http://ns.adobe.com/Flows/1.0/">
]>
<svg version="1.1"
	 xmlns="http://www.w3.org/2000/svg" xmlns:xlink="http://www.w3.org/1999/xlink" xmlns:a="http://ns.adobe.com/AdobeSVGViewerExtensions/3.0/"
	 x="0px" y="0px" width="75px" height="110px" viewBox="0 0 75 110" enable-background="new 0 0 75 110" xml:space="preserve">
<defs>
</defs>
<rect fill="none" width="75" height="110"/>
<linearGradient id="SVGID_1_" gradientUnits="userSpaceOnUse" x1="1554.4678" y1="1657.9805" x2="1616.5326" y2="1546.0125" gradientTransform="matrix(1 0 0 -1 -1548 1657)">
	<stop  offset="0" style="stop-color:#FFFFFF"/>
	<stop  offset="1" style="stop-color:#DEDEDF"/>
</linearGradient>
<path fill="url(#SVGID_1_)" d="M74.51,105.141c0,2.409-2.02,4.369-4.51,4.369H5c-2.49,0-4.51-1.96-4.51-4.369V4.86
	C0.49,2.45,2.51,0.5,5,0.5h65c2.49,0,4.51,1.96,4.51,4.37V105.141z"/>
<path fill="#B3B3B3" d="M5,110c-2.75-0.01-5-2.17-5-4.859l0,0V4.86C0,2.16,2.25,0.01,5,0l0,0h65c2.75,0.01,5,2.16,5,4.86l0,0v100.27
	l0,0c0,2.7-2.25,4.86-5,4.86l0,0H5V110z M0.99,4.86v100.27c0,2.12,1.78,3.87,4.01,3.87l0,0h65c2.23,0,4.01-1.75,4.01-3.87l0,0V4.86
	c0-2.13-1.779-3.87-4.01-3.87l0,0H5C2.77,0.99,0.99,2.74,0.99,4.86L0.99,4.86z"/>
<path d="M2.74,3.77v3.36c0,0.18,0.21,0.32,0.48,0.32h1.19c0.26,0,0.48-0.14,0.48-0.32v-1.4h6.46c-1.09,1.19-2.11,2.62-3.05,4.31
	c-0.94,1.69-1.68,3.47-2.22,5.33c-0.54,1.86-0.83,3.5-0.86,4.9h2.22c0.19-2.71,0.94-5.44,2.22-8.19c1.29-2.76,2.78-4.99,4.48-6.71
	v-1.6H2.74z"/>
<path d="M72.26,106.23v-3.36c0-0.181-0.21-0.32-0.48-0.32H70.6c-0.27,0-0.479,0.14-0.479,0.32v1.39h-6.46
	c1.09-1.189,2.109-2.619,3.05-4.31s1.681-3.47,2.22-5.33c0.541-1.86,0.82-3.5,0.85-4.9h-2.219c-0.19,2.71-0.94,5.44-2.221,8.19
	c-1.29,2.76-2.779,4.99-4.48,6.71v1.6h11.4V106.23z"/>
<path d="M12.39,33.07c-0.49,0.5-1.07,0.76-1.73,0.76c-0.86,0-1.42-0.57-1.86-1.13c0.06,1.09,0.6,2.39,1.41,3.05H6.7
	c0.81-0.65,1.35-1.96,1.41-3.04c-0.43,0.56-0.98,1.12-1.87,1.12c-0.66,0-1.23-0.25-1.72-0.76C4,32.54,3.74,31.9,3.74,31.13
	c0-0.66,0.18-1.49,0.57-2.12c0.65-1.06,4.14-5.6,4.14-5.6s3.48,4.54,4.12,5.49c0.41,0.6,0.59,1.58,0.59,2.23
	C13.17,31.9,12.91,32.54,12.39,33.07z"/>
<path d="M61.891,76.43c0.489-0.5,1.069-0.76,1.729-0.76c0.86,0,1.42,0.57,1.86,1.13c-0.061-1.09-0.59-2.39-1.41-3.05h3.51
	c-0.811,0.65-1.35,1.96-1.41,3.04c0.43-0.56,0.98-1.12,1.87-1.12c0.66,0,1.229,0.25,1.72,0.76c0.52,0.53,0.78,1.17,0.78,1.94
	c0,0.66-0.181,1.489-0.569,2.12c-0.65,1.06-4.141,5.6-4.141,5.6s-3.48-4.54-4.13-5.49c-0.41-0.6-0.591-1.58-0.591-2.229
	C61.109,77.6,61.37,76.95,61.891,76.43z"/>
<path d="M45.68,62.34c-1.07,1.1-2.32,1.641-3.74,1.641c-1.859,0-3.09-1.24-4.049-2.45c0.139,2.36,1.299,5.2,3.06,6.62h-7.63
	c1.76-1.42,2.92-4.25,3.06-6.61c-0.93,1.21-2.13,2.44-4.05,2.44c-1.43,0-2.68-0.551-3.75-1.641c-1.12-1.14-1.68-2.55-1.68-4.21
	c0-1.44,0.4-3.23,1.23-4.61c1.4-2.31,8.99-12.17,8.99-12.17s7.55,9.86,8.96,11.93c0.891,1.31,1.29,3.43,1.29,4.85
	C47.37,59.79,46.811,61.189,45.68,62.34z"/>
</svg>
