<?xml version="1.0" encoding="utf-8"?>
<!-- Generator: Adobe Illustrator 13.0.2, SVG Export Plug-In  -->
<!DOCTYPE svg PUBLIC "-//W3C//DTD SVG 1.1//EN" "http://www.w3.org/Graphics/SVG/1.1/DTD/svg11.dtd" [
	<!ENTITY ns_flows "http://ns.adobe.com/Flows/1.0/">
]>
<svg version="1.1"
	 xmlns="http://www.w3.org/2000/svg" xmlns:xlink="http://www.w3.org/1999/xlink" xmlns:a="http://ns.adobe.com/AdobeSVGViewerExtensions/3.0/"
	 x="0px" y="0px" width="75px" height="110px" viewBox="0 0 75 110" enable-background="new 0 0 75 110" xml:space="preserve">
<defs>
</defs>
<rect fill="none" width="75" height="110"/>
<linearGradient id="SVGID_1_" gradientUnits="userSpaceOnUse" x1="1554.4678" y1="1657.9805" x2="1616.5326" y2="1546.0125" gradientTransform="matrix(1 0 0 -1 -1548 1657)">
	<stop  offset="0" style="stop-color:#FFFFFF"/>
	<stop  offset="1" style="stop-color:#DEDEDF"/>
</linearGradient>
<path fill="url(#SVGID_1_)" d="M74.51,105.141c0,2.409-2.02,4.369-4.51,4.369H5c-2.49,0-4.51-1.96-4.51-4.369V4.86
	C0.49,2.45,2.51,0.5,5,0.5h65c2.49,0,4.51,1.96,4.51,4.37V105.141z"/>
<path fill="#B3B3B3" d="M5,110c-2.75-0.01-5-2.17-5-4.859l0,0V4.86C0,2.16,2.25,0.01,5,0l0,0h65c2.75,0.01,5,2.16,5,4.86l0,0v100.27
	l0,0c0,2.7-2.25,4.86-5,4.86l0,0H5V110z M0.99,4.86v100.27c0,2.12,1.78,3.87,4.01,3.87l0,0h65c2.23,0,4.01-1.75,4.01-3.87l0,0V4.86
	c0-2.13-1.779-3.87-4.01-3.87l0,0H5C2.77,0.99,0.99,2.74,0.99,4.86L0.99,4.86z"/>
<path fill="#ED1C24" d="M3.03,16.25L5,16.1c0.19,0.83,0.46,1.42,0.83,1.78c0.52,0.51,1.54,0.77,2.28,0.77
	c1.15,0,2.45-0.59,3.14-1.76c0.6-1.01,0.9-2.51,0.91-4.5c-0.45,0.7-1.02,1.23-1.71,1.6c-0.69,0.36-1.8,0.54-2.56,0.54
	c-1.27,0-2.77-0.48-3.72-1.43c-0.95-0.95-1.42-2.23-1.42-3.82c0-1.08,0.24-2.06,0.72-2.94C3.93,5.46,4.55,4.81,5.3,4.39
	c0.75-0.42,1.96-0.63,2.86-0.63c1.63,0,3.35,0.6,4.4,1.81c1.05,1.21,1.58,3.22,1.58,6.03c0,3.12-0.54,5.35-1.62,6.67
	c-1.08,1.33-2.85,1.99-4.53,1.99c-1.22,0-2.63-0.34-3.45-1.03C3.71,18.56,3.2,17.56,3.03,16.25z M11.85,9.28
	c0-1.17-0.33-2.11-1-2.82S9.03,5.4,8.15,5.4c-0.78,0-1.85,0.33-2.46,1C5.07,7.07,4.77,7.99,4.77,9.16c0,1.15,0.3,2.04,0.91,2.67
	c0.61,0.63,1.73,0.95,2.6,0.95c0.86,0,1.98-0.32,2.62-0.95C11.53,11.21,11.85,10.36,11.85,9.28z"/>
<path fill="#ED1C24" d="M71.971,93.75L70,93.9c-0.189-0.83-0.46-1.42-0.83-1.78c-0.52-0.511-1.54-0.771-2.279-0.771
	c-1.15,0-2.451,0.59-3.141,1.76c-0.6,1.011-0.9,2.511-0.91,4.5c0.45-0.699,1.02-1.229,1.71-1.6c0.69-0.359,1.8-0.539,2.56-0.539
	c1.271,0,2.771,0.479,3.721,1.43c0.949,0.949,1.42,2.229,1.42,3.82c0,1.079-0.24,2.06-0.721,2.939
	c-0.479,0.88-1.09,1.529-1.84,1.949c-0.75,0.421-1.959,0.631-2.859,0.631c-1.63,0-3.35-0.6-4.4-1.811
	c-1.05-1.209-1.58-3.22-1.58-6.029c0-3.12,0.541-5.351,1.621-6.67c1.079-1.33,2.85-1.99,4.529-1.99c1.221,0,2.63,0.34,3.45,1.029
	C71.27,91.46,71.8,92.439,71.971,93.75z M63.15,100.72c0,1.171,0.33,2.11,1,2.82s1.82,1.06,2.699,1.06c0.78,0,1.851-0.33,2.461-1
	c0.609-0.67,0.91-1.59,0.91-2.76c0-1.15-0.301-2.04-0.91-2.67c-0.601-0.63-1.73-0.95-2.601-0.95c-0.86,0-1.979,0.32-2.62,0.95
	C63.45,98.8,63.15,99.641,63.15,100.72z"/>
<path fill="#ED1C24" d="M10.86,26.58c-0.78-1.03-1.4-2.05-1.85-2.98c-0.49,1.02-1.23,2.17-2.18,3.33c-0.87,1.06-1.8,1.99-2.69,2.73
	c0.96,0.8,1.96,1.85,2.87,3.06c0.82,1.08,1.46,2.14,1.91,3.1c0.46-0.97,1.13-2.06,1.98-3.16c0.9-1.17,1.88-2.18,2.82-2.96l0.03-0.04
	C12.79,28.85,11.79,27.8,10.86,26.58z"/>
<path fill="#ED1C24" d="M41.75,48.05c-1.721-2.27-3.09-4.51-4.06-6.55c-1.08,2.24-2.71,4.77-4.8,7.32
	c-1.91,2.33-3.95,4.38-5.92,6.01c2.11,1.77,4.3,4.08,6.32,6.74c1.8,2.369,3.22,4.72,4.19,6.83c1.01-2.141,2.48-4.541,4.36-6.961
	c1.98-2.56,4.141-4.789,6.21-6.52l0.07-0.09C46,53.05,43.779,50.73,41.75,48.05z"/>
<path fill="#ED1C24" d="M64.221,83.311C65,84.34,65.62,85.359,66.07,86.29c0.49-1.021,1.229-2.17,2.18-3.33
	c0.87-1.06,1.8-1.99,2.689-2.729C69.98,79.43,68.98,78.38,68.07,77.17c-0.82-1.08-1.461-2.14-1.91-3.1
	c-0.46,0.97-1.131,2.06-1.98,3.16c-0.9,1.16-1.88,2.18-2.82,2.959L61.33,80.23C62.29,81.04,63.3,82.09,64.221,83.311z"/>
</svg>
