<?xml version="1.0" encoding="utf-8"?>
<!-- Generator: Adobe Illustrator 13.0.2, SVG Export Plug-In  -->
<!DOCTYPE svg PUBLIC "-//W3C//DTD SVG 1.1//EN" "http://www.w3.org/Graphics/SVG/1.1/DTD/svg11.dtd" [
	<!ENTITY ns_flows "http://ns.adobe.com/Flows/1.0/">
]>
<svg version="1.1"
	 xmlns="http://www.w3.org/2000/svg" xmlns:xlink="http://www.w3.org/1999/xlink" xmlns:a="http://ns.adobe.com/AdobeSVGViewerExtensions/3.0/"
	 x="0px" y="0px" width="75px" height="110px" viewBox="0 0 75 110" enable-background="new 0 0 75 110" xml:space="preserve">
<defs>
</defs>
<rect fill="none" width="75" height="110"/>
<linearGradient id="SVGID_1_" gradientUnits="userSpaceOnUse" x1="1554.4678" y1="1657.9805" x2="1616.5326" y2="1546.0125" gradientTransform="matrix(1 0 0 -1 -1548 1657)">
	<stop  offset="0" style="stop-color:#FFFFFF"/>
	<stop  offset="1" style="stop-color:#DEDEDF"/>
</linearGradient>
<path fill="url(#SVGID_1_)" d="M74.51,105.141c0,2.409-2.02,4.369-4.51,4.369H5c-2.49,0-4.51-1.96-4.51-4.369V4.86
	C0.49,2.45,2.51,0.5,5,0.5h65c2.49,0,4.51,1.96,4.51,4.37V105.141z"/>
<path fill="#B3B3B3" d="M5,110c-2.75-0.01-5-2.17-5-4.859l0,0V4.86C0,2.16,2.25,0.01,5,0l0,0h65c2.75,0.01,5,2.16,5,4.86l0,0v100.27
	l0,0c0,2.7-2.25,4.86-5,4.86l0,0H5V110z M0.99,4.86v100.27c0,2.12,1.78,3.87,4.01,3.87l0,0h65c2.23,0,4.01-1.75,4.01-3.87l0,0V4.86
	c0-2.13-1.779-3.87-4.01-3.87l0,0H5C2.77,0.99,0.99,2.74,0.99,4.86L0.99,4.86z"/>
<path fill="#ED1C24" d="M14.85,18.7c-0.05-0.01-0.65-0.14-1.47-0.51c0.43-0.61,0.68-1.32,0.68-2.08V7.83c0-2.27-2.2-4.11-4.91-4.11
	c-2.72,0-4.92,1.84-4.92,4.11V13c-0.32-0.02-0.57-0.02-0.7-0.02c-0.05,0-0.08,0-0.09,0l0.04,1.57h0.05c0.11,0,0.36,0,0.7,0.02v1.55
	c0,2.27,2.2,4.11,4.92,4.11c1.11,0,2.14-0.31,2.96-0.84c1.27,0.62,2.24,0.82,2.31,0.84L14.85,18.7z M9.15,5.28
	c1.68,0,3.05,1.14,3.05,2.55v8.28c0,0.42-0.12,0.81-0.34,1.17c-0.08-0.08-0.17-0.17-0.26-0.271c-0.38-0.42-0.83-1-1.41-1.58
	c-0.58-0.59-1.3-1.2-2.27-1.66c-0.58-0.27-1.21-0.44-1.81-0.56V7.83C6.1,6.42,7.47,5.28,9.15,5.28z M6.1,16.11v-1.29
	c0.33,0.08,0.65,0.18,0.89,0.3c0.92,0.44,1.62,1.11,2.23,1.8c0.31,0.35,0.59,0.7,0.88,1.02c0.14,0.15,0.28,0.29,0.42,0.43
	c-0.42,0.18-0.88,0.28-1.38,0.28C7.47,18.66,6.1,17.52,6.1,16.11z"/>
<path fill="#ED1C24" d="M61.07,91.2c0.05,0.01,0.65,0.14,1.47,0.51c-0.431,0.61-0.681,1.32-0.681,2.08v8.28
	c0,2.27,2.201,4.109,4.91,4.109c2.721,0,4.92-1.84,4.92-4.109V96.9c0.32,0.02,0.57,0.02,0.69,0.02c0.05,0,0.08,0,0.091,0
	l-0.041-1.57h-0.05c-0.11,0-0.36,0-0.69-0.02v-1.55c0-2.271-2.199-4.11-4.92-4.11c-1.109,0-2.14,0.32-2.959,0.84
	c-1.271-0.619-2.24-0.82-2.311-0.84L61.07,91.2z M66.77,104.62c-1.68,0-3.039-1.14-3.039-2.55v-8.28c0-0.42,0.119-0.81,0.34-1.17
	c0.08,0.08,0.17,0.17,0.26,0.271c0.38,0.42,0.83,1,1.41,1.579c0.58,0.591,1.3,1.2,2.27,1.66c0.58,0.271,1.211,0.44,1.82,0.56v5.381
	C69.82,103.48,68.45,104.62,66.77,104.62z M69.82,93.79v1.29c-0.33-0.08-0.65-0.18-0.891-0.3c-0.92-0.44-1.619-1.11-2.229-1.8
	c-0.31-0.351-0.591-0.7-0.88-1.021c-0.141-0.149-0.28-0.29-0.42-0.43c0.42-0.181,0.879-0.28,1.379-0.28
	C68.45,91.25,69.82,92.391,69.82,93.79z"/>
<path fill="#ED1C24" d="M11.29,26.49c-0.78-1.03-1.4-2.05-1.85-2.98c-0.49,1.021-1.23,2.17-2.18,3.33c-0.87,1.06-1.8,1.99-2.69,2.73
	c0.96,0.8,1.96,1.85,2.87,3.06c0.82,1.08,1.46,2.15,1.91,3.1c0.46-0.98,1.13-2.06,1.98-3.16c0.9-1.17,1.88-2.18,2.82-2.96l0.03-0.04
	C13.22,28.76,12.22,27.71,11.29,26.49z"/>
<path fill="#ED1C24" d="M41.99,47.9c-1.721-2.27-3.09-4.51-4.06-6.55c-1.08,2.24-2.71,4.77-4.8,7.32c-1.91,2.33-3.95,4.38-5.92,6.01
	c2.11,1.77,4.3,4.08,6.32,6.74c1.8,2.37,3.21,4.721,4.19,6.83c1.01-2.15,2.48-4.54,4.36-6.96c1.98-2.56,4.141-4.79,6.21-6.52
	l0.069-0.09C46.24,52.91,44.02,50.58,41.99,47.9z"/>
<path fill="#ED1C24" d="M64.65,83.22c0.779,1.03,1.399,2.05,1.85,2.98c0.49-1.021,1.23-2.17,2.18-3.33
	c0.87-1.06,1.801-1.99,2.69-2.729c-0.96-0.801-1.96-1.851-2.87-3.061c-0.82-1.08-1.46-2.141-1.91-3.1
	c-0.46,0.97-1.13,2.06-1.98,3.16c-0.899,1.17-1.879,2.18-2.819,2.959l-0.03,0.041C62.721,80.939,63.73,82,64.65,83.22z"/>
<path fill="#ED1C24" d="M57.24,25.15v59.31H18.33V25.15H57.24z M55.24,27.15H20.33v55.31h34.91V27.15z M51.471,31.06H24.09v47.49
	h27.381V31.06z M52.42,30.11v49.38H23.15V30.11H52.42z"/>
</svg>
