<?xml version="1.0" encoding="utf-8"?>
<!-- Generator: Adobe Illustrator 13.0.2, SVG Export Plug-In  -->
<!DOCTYPE svg PUBLIC "-//W3C//DTD SVG 1.1//EN" "http://www.w3.org/Graphics/SVG/1.1/DTD/svg11.dtd" [
	<!ENTITY ns_flows "http://ns.adobe.com/Flows/1.0/">
]>
<svg version="1.1"
	 xmlns="http://www.w3.org/2000/svg" xmlns:xlink="http://www.w3.org/1999/xlink" xmlns:a="http://ns.adobe.com/AdobeSVGViewerExtensions/3.0/"
	 x="0px" y="0px" width="75px" height="110px" viewBox="0 0 75 110" enable-background="new 0 0 75 110" xml:space="preserve">
<defs>
</defs>
<rect fill="none" width="75" height="110"/>
<linearGradient id="SVGID_1_" gradientUnits="userSpaceOnUse" x1="1554.4678" y1="1657.9805" x2="1616.5326" y2="1546.0125" gradientTransform="matrix(1 0 0 -1 -1548 1657)">
	<stop  offset="0" style="stop-color:#FFFFFF"/>
	<stop  offset="1" style="stop-color:#DEDEDF"/>
</linearGradient>
<path fill="url(#SVGID_1_)" d="M74.51,105.141c0,2.409-2.02,4.369-4.51,4.369H5c-2.49,0-4.51-1.96-4.51-4.369V4.86
	C0.49,2.45,2.51,0.5,5,0.5h65c2.49,0,4.51,1.96,4.51,4.37V105.141z"/>
<path fill="#B3B3B3" d="M5,110c-2.75-0.01-5-2.17-5-4.859l0,0V4.86C0,2.16,2.25,0.01,5,0l0,0h65c2.75,0.01,5,2.16,5,4.86l0,0v100.27
	l0,0c0,2.7-2.25,4.86-5,4.86l0,0H5V110z M0.99,4.86v100.27c0,2.12,1.78,3.87,4.01,3.87l0,0h65c2.23,0,4.01-1.75,4.01-3.87l0,0V4.86
	c0-2.13-1.779-3.87-4.01-3.87l0,0H5C2.77,0.99,0.99,2.74,0.99,4.86L0.99,4.86z"/>
<path fill="#EE3333" d="M13.8,18.63h-0.81l-4.31-8.17l3.74-5.05h0.71c0.19,0,0.33-0.17,0.33-0.37v-0.9c0-0.21-0.15-0.37-0.33-0.37
	H9.67c-0.18,0-0.33,0.16-0.33,0.37v0.91c0,0.2,0.15,0.37,0.33,0.37h0.68l-4.7,6.54V5.41h0.89c0.19,0,0.33-0.17,0.33-0.37v-0.9
	c0-0.21-0.15-0.37-0.33-0.37H3.07c-0.19,0-0.33,0.16-0.33,0.37v0.91c0,0.2,0.15,0.37,0.33,0.37h0.91v13.21H3.07
	c-0.19,0-0.33,0.16-0.33,0.37v0.91c0,0.2,0.15,0.37,0.33,0.37h3.46c0.19,0,0.33-0.17,0.33-0.37V19c0-0.2-0.15-0.37-0.33-0.37H5.65
	v-4.07l1.95-2.63l3.37,6.7h-0.63c-0.18,0-0.33,0.16-0.33,0.37v0.91c0,0.2,0.15,0.37,0.33,0.37h3.52v-0.01
	c0.16-0.03,0.29-0.17,0.29-0.36V19C14.14,18.79,13.99,18.63,13.8,18.63z"/>
<path fill="#EE3333" d="M61.2,91.37h0.81l4.311,8.17l-3.74,5.05h-0.71c-0.19,0-0.33,0.17-0.33,0.37v0.91c0,0.2,0.149,0.37,0.33,0.37
	h3.46c0.189,0,0.33-0.16,0.33-0.37v-0.91c0-0.2-0.15-0.37-0.33-0.37h-0.68l4.699-6.54v6.54h-0.89c-0.19,0-0.33,0.17-0.33,0.37v0.91
	c0,0.2,0.149,0.37,0.33,0.37h3.46c0.189,0,0.33-0.16,0.33-0.37v-0.91c0-0.2-0.15-0.37-0.33-0.37h-0.91V91.37h0.91
	c0.189,0,0.33-0.17,0.33-0.37v-0.9c0-0.199-0.15-0.369-0.33-0.369h-3.46c-0.19,0-0.33,0.17-0.33,0.369v0.91
	c0,0.2,0.149,0.37,0.33,0.37h0.89v4.07L67.4,98.08l-3.371-6.7h0.631c0.18,0,0.33-0.17,0.33-0.37V90.1c0-0.199-0.15-0.369-0.33-0.369
	h-3.52v0.01c-0.16,0.029-0.291,0.18-0.291,0.359v0.91C60.859,91.21,61.01,91.37,61.2,91.37z"/>
<path fill="#EE3333" d="M11.12,26.61c-0.78-1.03-1.4-2.05-1.85-2.98c-0.49,1.02-1.23,2.17-2.18,3.33c-0.87,1.06-1.8,1.99-2.69,2.73
	c0.96,0.8,1.96,1.85,2.87,3.06c0.82,1.08,1.46,2.14,1.91,3.1c0.46-0.97,1.13-2.06,1.98-3.16c0.9-1.17,1.88-2.18,2.82-2.96l0.03-0.04
	C13.05,28.88,12.04,27.83,11.12,26.61z"/>
<path fill="#EE3333" d="M41.811,48.03c-1.721-2.271-3.09-4.51-4.061-6.55c-1.08,2.24-2.71,4.77-4.8,7.32
	c-1.91,2.33-3.95,4.38-5.92,6.01c2.11,1.77,4.3,4.081,6.32,6.74c1.8,2.37,3.22,4.72,4.19,6.83c1.01-2.149,2.479-4.54,4.36-6.96
	c1.979-2.561,4.14-4.79,6.209-6.52l0.07-0.09C46.061,53.03,43.84,50.71,41.811,48.03z"/>
<path fill="#EE3333" d="M64.471,83.34c0.779,1.03,1.399,2.051,1.85,2.98c0.49-1.021,1.229-2.17,2.18-3.33
	c0.87-1.061,1.8-1.99,2.689-2.73c-0.959-0.8-1.959-1.85-2.869-3.06c-0.82-1.08-1.461-2.14-1.91-3.101
	c-0.46,0.98-1.131,2.061-1.98,3.16c-0.9,1.17-1.88,2.18-2.82,2.96l-0.029,0.04C62.54,81.07,63.55,82.12,64.471,83.34z"/>
<path fill="#EE3333" d="M59.891,22.25V87.6H15.32V22.25H59.891z M57.891,24.25H17.32V85.6h40.571V24.25z M54.74,27.32v55.21H20.47
	V27.32H54.74z M53.811,28.25H21.4V81.6h32.42V28.25H53.811z M50.24,31.95H24.97V77.9h25.27V31.95z M51.12,31.07v47.71H24.09V31.07
	H51.12z"/>
</svg>
