<?xml version="1.0" encoding="utf-8"?>
<!-- Generator: Adobe Illustrator 13.0.2, SVG Export Plug-In  -->
<!DOCTYPE svg PUBLIC "-//W3C//DTD SVG 1.1//EN" "http://www.w3.org/Graphics/SVG/1.1/DTD/svg11.dtd" [
	<!ENTITY ns_flows "http://ns.adobe.com/Flows/1.0/">
]>
<svg version="1.1"
	 xmlns="http://www.w3.org/2000/svg" xmlns:xlink="http://www.w3.org/1999/xlink" xmlns:a="http://ns.adobe.com/AdobeSVGViewerExtensions/3.0/"
	 x="0px" y="0px" width="75px" height="110px" viewBox="0 0 75 110" enable-background="new 0 0 75 110" xml:space="preserve">
<defs>
</defs>
<rect fill="none" width="75" height="110"/>
<linearGradient id="SVGID_1_" gradientUnits="userSpaceOnUse" x1="1554.4678" y1="1657.9805" x2="1616.5326" y2="1546.0125" gradientTransform="matrix(1 0 0 -1 -1548 1657)">
	<stop  offset="0" style="stop-color:#FFFFFF"/>
	<stop  offset="1" style="stop-color:#DEDEDF"/>
</linearGradient>
<path fill="url(#SVGID_1_)" d="M74.51,105.141c0,2.409-2.02,4.369-4.51,4.369H5c-2.49,0-4.51-1.96-4.51-4.369V4.86
	C0.49,2.45,2.51,0.5,5,0.5h65c2.49,0,4.51,1.96,4.51,4.37V105.141z"/>
<path fill="#B3B3B3" d="M5,110c-2.75-0.01-5-2.17-5-4.859l0,0V4.86C0,2.16,2.25,0.01,5,0l0,0h65c2.75,0.01,5,2.16,5,4.86l0,0v100.27
	l0,0c0,2.7-2.25,4.86-5,4.86l0,0H5V110z M0.99,4.86v100.27c0,2.12,1.78,3.87,4.01,3.87l0,0h65c2.23,0,4.01-1.75,4.01-3.87l0,0V4.86
	c0-2.13-1.779-3.87-4.01-3.87l0,0H5C2.77,0.99,0.99,2.74,0.99,4.86L0.99,4.86z"/>
<path fill="#ED1C24" d="M2.74,3.77v3.36c0,0.18,0.21,0.32,0.48,0.32h1.19c0.26,0,0.48-0.14,0.48-0.32v-1.4h6.46
	c-1.09,1.19-2.11,2.62-3.05,4.31c-0.94,1.69-1.68,3.47-2.22,5.33c-0.54,1.86-0.83,3.5-0.86,4.9h2.22c0.19-2.71,0.94-5.44,2.22-8.19
	c1.29-2.76,2.78-4.99,4.48-6.71v-1.6H2.74z"/>
<path fill="#ED1C24" d="M72.26,106.23v-3.36c0-0.181-0.21-0.32-0.48-0.32H70.6c-0.27,0-0.479,0.14-0.479,0.32v1.39h-6.46
	c1.09-1.189,2.109-2.619,3.05-4.31s1.681-3.47,2.22-5.33c0.541-1.86,0.82-3.5,0.85-4.9h-2.219c-0.19,2.71-0.94,5.44-2.221,8.19
	c-1.29,2.76-2.779,4.99-4.48,6.71v1.6h11.4V106.23z"/>
<path fill="#ED1C24" d="M11.04,26.84c-0.78-1.03-1.4-2.05-1.85-2.98c-0.49,1.02-1.23,2.17-2.18,3.33c-0.87,1.06-1.8,1.99-2.69,2.73
	c0.96,0.8,1.96,1.85,2.87,3.06c0.82,1.08,1.46,2.14,1.91,3.1c0.46-0.97,1.13-2.06,1.98-3.16c0.9-1.17,1.88-2.18,2.82-2.96l0.03-0.04
	C12.97,29.11,11.96,28.06,11.04,26.84z"/>
<path fill="#ED1C24" d="M41.92,48.3c-1.72-2.27-3.09-4.51-4.06-6.55c-1.08,2.24-2.71,4.77-4.8,7.32c-1.91,2.33-3.95,4.38-5.92,6.01
	c2.11,1.77,4.3,4.08,6.32,6.74c1.8,2.369,3.21,4.72,4.19,6.83c1.01-2.15,2.48-4.541,4.36-6.961c1.98-2.56,4.141-4.789,6.211-6.52
	l0.069-0.09C46.17,53.31,43.95,50.99,41.92,48.3z"/>
<path fill="#ED1C24" d="M64.391,83.57c0.779,1.029,1.399,2.05,1.85,2.979c0.49-1.02,1.23-2.17,2.18-3.33
	c0.87-1.06,1.801-1.989,2.689-2.729c-0.959-0.801-1.959-1.85-2.869-3.061c-0.82-1.08-1.461-2.149-1.91-3.1
	c-0.46,0.98-1.13,2.061-1.98,3.16c-0.899,1.17-1.879,2.18-2.82,2.96L61.5,80.49C62.46,81.29,63.471,82.35,64.391,83.57z"/>
</svg>
