<?xml version="1.0" encoding="utf-8"?>
<!-- Generator: Adobe Illustrator 13.0.2, SVG Export Plug-In  -->
<!DOCTYPE svg PUBLIC "-//W3C//DTD SVG 1.1//EN" "http://www.w3.org/Graphics/SVG/1.1/DTD/svg11.dtd" [
	<!ENTITY ns_flows "http://ns.adobe.com/Flows/1.0/">
]>
<svg version="1.1"
	 xmlns="http://www.w3.org/2000/svg" xmlns:xlink="http://www.w3.org/1999/xlink" xmlns:a="http://ns.adobe.com/AdobeSVGViewerExtensions/3.0/"
	 x="0px" y="0px" width="75px" height="110px" viewBox="0 0 75 110" enable-background="new 0 0 75 110" xml:space="preserve">
<defs>
</defs>
<rect fill="none" width="75" height="110"/>
<linearGradient id="SVGID_1_" gradientUnits="userSpaceOnUse" x1="1554.4678" y1="1657.9805" x2="1616.5326" y2="1546.0125" gradientTransform="matrix(1 0 0 -1 -1548 1657)">
	<stop  offset="0" style="stop-color:#FFFFFF"/>
	<stop  offset="1" style="stop-color:#DEDEDF"/>
</linearGradient>
<path fill="url(#SVGID_1_)" d="M74.51,105.141c0,2.409-2.02,4.369-4.51,4.369H5c-2.49,0-4.51-1.96-4.51-4.369V4.86
	C0.49,2.45,2.51,0.5,5,0.5h65c2.49,0,4.51,1.96,4.51,4.37V105.141z"/>
<path fill="#B3B3B3" d="M5,110c-2.75-0.01-5-2.17-5-4.859l0,0V4.86C0,2.16,2.25,0.01,5,0l0,0h65c2.75,0.01,5,2.16,5,4.86l0,0v100.27
	l0,0c0,2.7-2.25,4.86-5,4.86l0,0H5V110z M0.99,4.86v100.27c0,2.12,1.78,3.87,4.01,3.87l0,0h65c2.23,0,4.01-1.75,4.01-3.87l0,0V4.86
	c0-2.13-1.779-3.87-4.01-3.87l0,0H5C2.77,0.99,0.99,2.74,0.99,4.86L0.99,4.86z"/>
<path fill="#ED1C24" d="M14.39,16.31v-1.86H12.2V3.77h-1.65L3.24,14.45v1.86h6.98v2.31H9.36c-0.21,0-0.38,0.17-0.38,0.37v0.91
	c0,0.2,0.17,0.37,0.38,0.37h3.56c0.21,0,0.38-0.17,0.38-0.37v-0.91c0-0.2-0.17-0.37-0.38-0.37H12.2v-2.31H14.39z M5.19,14.45
	l5.03-7.43v7.43H5.19z"/>
<path fill="#ED1C24" d="M10.82,26.63c-0.78-1.03-1.4-2.05-1.85-2.98c-0.49,1.02-1.23,2.17-2.18,3.33c-0.86,1.06-1.79,2-2.69,2.74
	c0.96,0.8,1.96,1.85,2.87,3.061c0.82,1.08,1.46,2.14,1.91,3.1c0.46-0.97,1.13-2.06,1.98-3.16c0.9-1.17,1.88-2.18,2.82-2.96
	l0.03-0.04C12.75,28.91,11.74,27.85,10.82,26.63z"/>
<path fill="#ED1C24" d="M41.71,48.1c-1.72-2.27-3.09-4.51-4.06-6.55c-1.08,2.24-2.71,4.77-4.79,7.32c-1.91,2.33-3.95,4.38-5.93,6.01
	c2.11,1.771,4.3,4.08,6.32,6.74c1.8,2.37,3.21,4.72,4.19,6.83c1.01-2.15,2.48-4.54,4.36-6.96c1.979-2.561,4.14-4.79,6.21-6.521
	l0.07-0.09C45.95,53.1,43.74,50.78,41.71,48.1z"/>
<path fill="#ED1C24" d="M60.609,93.689v1.86h2.19v10.681h1.65l7.31-10.681v-1.86h-6.98v-2.31h0.861c0.209,0,0.379-0.17,0.379-0.37
	V90.1c0-0.199-0.17-0.369-0.379-0.369H62.08c-0.21,0-0.38,0.17-0.38,0.369v0.91c0,0.2,0.17,0.37,0.38,0.37h0.72v2.31H60.609z
	 M69.811,95.55l-5.031,7.431V95.55H69.811z"/>
<path fill="#ED1C24" d="M64.18,83.37c0.78,1.03,1.4,2.05,1.85,2.979c0.49-1.02,1.23-2.17,2.181-3.33c0.87-1.06,1.8-1.989,2.69-2.729
	c-0.961-0.8-1.961-1.851-2.871-3.06c-0.819-1.08-1.459-2.15-1.909-3.101c-0.46,0.979-1.13,2.06-1.979,3.16
	c-0.9,1.17-1.881,2.181-2.82,2.96l-0.03,0.04C62.25,81.09,63.26,82.15,64.18,83.37z"/>
</svg>
