<?xml version="1.0" encoding="utf-8"?>
<!-- Generator: Adobe Illustrator 13.0.2, SVG Export Plug-In  -->
<!DOCTYPE svg PUBLIC "-//W3C//DTD SVG 1.1//EN" "http://www.w3.org/Graphics/SVG/1.1/DTD/svg11.dtd" [
	<!ENTITY ns_flows "http://ns.adobe.com/Flows/1.0/">
]>
<svg version="1.1"
	 xmlns="http://www.w3.org/2000/svg" xmlns:xlink="http://www.w3.org/1999/xlink" xmlns:a="http://ns.adobe.com/AdobeSVGViewerExtensions/3.0/"
	 x="0px" y="0px" width="75px" height="110px" viewBox="0 0 75 110" enable-background="new 0 0 75 110" xml:space="preserve">
<defs>
</defs>
<rect fill="none" width="75" height="110"/>
<linearGradient id="SVGID_1_" gradientUnits="userSpaceOnUse" x1="1554.4678" y1="1657.9805" x2="1616.5326" y2="1546.0125" gradientTransform="matrix(1 0 0 -1 -1548 1657)">
	<stop  offset="0" style="stop-color:#FFFFFF"/>
	<stop  offset="1" style="stop-color:#DEDEDF"/>
</linearGradient>
<path fill="url(#SVGID_1_)" d="M74.51,105.141c0,2.409-2.02,4.369-4.51,4.369H5c-2.49,0-4.51-1.96-4.51-4.369V4.86
	C0.49,2.45,2.51,0.5,5,0.5h65c2.49,0,4.51,1.96,4.51,4.37V105.141z"/>
<path fill="#B3B3B3" d="M5,110c-2.75-0.01-5-2.17-5-4.859l0,0V4.86C0,2.16,2.25,0.01,5,0l0,0h65c2.75,0.01,5,2.16,5,4.86l0,0v100.27
	l0,0c0,2.7-2.25,4.86-5,4.86l0,0H5V110z M0.99,4.86v100.27c0,2.12,1.78,3.87,4.01,3.87l0,0h65c2.23,0,4.01-1.75,4.01-3.87l0,0V4.86
	c0-2.13-1.779-3.87-4.01-3.87l0,0H5C2.77,0.99,0.99,2.74,0.99,4.86L0.99,4.86z"/>
<path fill="#ED1C24" d="M13.51,12.22c-0.26-0.58-1.58-2.2-4.09-2.46C9.2,9.75,9.02,9.73,8.84,9.73l4.74-4.27
	c0.09-0.08,0.1-0.19,0.07-0.3c0.01-0.04,0.02-0.07,0.02-0.11V4.13c0-0.2-0.17-0.37-0.38-0.37H4.71c-0.09,0-0.17,0.03-0.24,0.08
	C4.46,3.86,4.45,3.86,4.45,3.87c-0.01,0-0.02,0.01-0.03,0.02c-0.06,0.05-0.1,0.12-0.1,0.19v2.99c0,0.18,0.2,0.32,0.44,0.32h1.09
	c0.25,0,0.45-0.14,0.45-0.32V5.41h4.63L5.88,9.94c-0.08,0.07-0.1,0.17-0.08,0.27l-0.14,1.02C6.22,11.07,7.08,11,7.46,11
	c0.89,0,2.8,0.29,3.41,0.88c0.61,0.58,0.92,2.32,0.92,3.28c0,1.02-0.33,1.85-1,2.49s-1.46,0.96-2.36,0.96
	c-1.68,0-2.73-1.08-3.15-3.26l-1.99,0.28c0.13,1.42,0.68,2.54,1.64,3.38c0.96,0.84,2.13,1.26,3.52,1.26c1.49,0,2.77-0.48,3.84-1.44
	s1.61-2.2,1.61-3.71C13.9,14.4,13.77,12.8,13.51,12.22z"/>
<path fill="#ED1C24" d="M61.49,97.78c0.26,0.579,1.58,2.2,4.09,2.46c0.21,0.02,0.4,0.029,0.58,0.04l-4.74,4.27
	c-0.09,0.08-0.1,0.19-0.07,0.3c-0.01,0.041-0.02,0.07-0.02,0.11v0.91c0,0.2,0.17,0.37,0.38,0.37h8.58c0.09,0,0.17-0.03,0.239-0.08
	c0.011,0,0.021-0.01,0.021-0.02c0.011-0.011,0.021-0.021,0.021-0.021c0.06-0.05,0.1-0.12,0.1-0.2v-2.99
	c0-0.18-0.199-0.32-0.439-0.32h-1.09c-0.25,0-0.451,0.141-0.451,0.32v1.66h-4.629l5.049-4.529c0.08-0.07,0.101-0.17,0.08-0.271
	l0.141-1.021C68.779,98.93,67.92,99,67.54,99c-0.89,0-2.8-0.29-3.41-0.88s-0.92-2.32-0.92-3.28c0-1.02,0.33-1.85,1-2.49
	c0.67-0.64,1.46-0.959,2.36-0.959c1.68,0,2.729,1.08,3.15,3.26l1.989-0.28c-0.13-1.42-0.681-2.54-1.64-3.38
	c-0.961-0.84-2.131-1.26-3.521-1.26c-1.489,0-2.771,0.479-3.84,1.439s-1.61,2.2-1.61,3.71C61.1,95.6,61.23,97.2,61.49,97.78z"/>
<path fill="#ED1C24" d="M10.96,26.62c-0.78-1.03-1.4-2.05-1.85-2.98c-0.49,1.02-1.23,2.17-2.18,3.33c-0.87,1.061-1.8,1.99-2.69,2.73
	c0.96,0.8,1.96,1.85,2.87,3.06c0.82,1.08,1.46,2.15,1.91,3.1c0.46-0.98,1.13-2.06,1.98-3.16c0.9-1.17,1.88-2.18,2.82-2.96l0.03-0.04
	C12.89,28.89,11.89,27.83,10.96,26.62z"/>
<path fill="#ED1C24" d="M41.85,48.08c-1.72-2.27-3.09-4.51-4.06-6.55c-1.08,2.24-2.71,4.77-4.8,7.32c-1.91,2.33-3.95,4.38-5.92,6.01
	c2.11,1.77,4.3,4.08,6.32,6.74c1.8,2.37,3.22,4.721,4.19,6.83c1.01-2.149,2.48-4.539,4.359-6.96c1.98-2.56,4.141-4.79,6.211-6.52
	l0.07-0.09C46.1,53.09,43.88,50.76,41.85,48.08z"/>
<path fill="#ED1C24" d="M64.32,83.35c0.779,1.03,1.4,2.051,1.85,2.98c0.49-1.02,1.23-2.17,2.18-3.33
	c0.871-1.061,1.801-1.99,2.69-2.73c-0.96-0.8-1.96-1.85-2.87-3.06c-0.82-1.08-1.46-2.14-1.91-3.101c-0.46,0.98-1.13,2.061-1.98,3.16
	C63.38,78.43,62.4,79.45,61.46,80.23l-0.03,0.039C62.391,81.07,63.4,82.13,64.32,83.35z"/>
</svg>
