<?xml version="1.0" encoding="utf-8"?>
<!-- Generator: Adobe Illustrator 13.0.2, SVG Export Plug-In  -->
<!DOCTYPE svg PUBLIC "-//W3C//DTD SVG 1.1//EN" "http://www.w3.org/Graphics/SVG/1.1/DTD/svg11.dtd" [
	<!ENTITY ns_flows "http://ns.adobe.com/Flows/1.0/">
]>
<svg version="1.1"
	 xmlns="http://www.w3.org/2000/svg" xmlns:xlink="http://www.w3.org/1999/xlink" xmlns:a="http://ns.adobe.com/AdobeSVGViewerExtensions/3.0/"
	 x="0px" y="0px" width="75px" height="110px" viewBox="0 0 75 110" enable-background="new 0 0 75 110" xml:space="preserve">
<defs>
</defs>
<rect fill="none" width="75" height="110"/>
<linearGradient id="SVGID_1_" gradientUnits="userSpaceOnUse" x1="1554.4678" y1="1657.9805" x2="1616.5326" y2="1546.0125" gradientTransform="matrix(1 0 0 -1 -1548 1657)">
	<stop  offset="0" style="stop-color:#FFFFFF"/>
	<stop  offset="1" style="stop-color:#DEDEDF"/>
</linearGradient>
<path fill="url(#SVGID_1_)" d="M74.51,105.141c0,2.409-2.02,4.369-4.51,4.369H5c-2.49,0-4.51-1.96-4.51-4.369V4.86
	C0.49,2.45,2.51,0.5,5,0.5h65c2.49,0,4.51,1.96,4.51,4.37V105.141z"/>
<path fill="#B3B3B3" d="M5,110c-2.75-0.01-5-2.17-5-4.859l0,0V4.86C0,2.16,2.25,0.01,5,0l0,0h65c2.75,0.01,5,2.16,5,4.86l0,0v100.27
	l0,0c0,2.7-2.25,4.86-5,4.86l0,0H5V110z M0.99,4.86v100.27c0,2.12,1.78,3.87,4.01,3.87l0,0h65c2.23,0,4.01-1.75,4.01-3.87l0,0V4.86
	c0-2.13-1.779-3.87-4.01-3.87l0,0H5C2.77,0.99,0.99,2.74,0.99,4.86L0.99,4.86z"/>
<path fill="#ED1C24" d="M13.71,7.78l-1.87,0.16c-0.18-0.83-0.44-1.42-0.78-1.78c-0.5-0.51-1.45-0.77-2.15-0.77
	c-1.08,0-2.31,0.59-2.97,1.76c-0.56,1.01-0.85,2.51-0.86,4.5c0.43-0.7,0.97-1.24,1.62-1.6c0.65-0.36,1.7-0.54,2.42-0.54
	c1.2,0,2.61,0.48,3.51,1.43c0.9,0.95,1.34,2.23,1.34,3.82c0,1.08-0.22,2.06-0.68,2.94c-0.45,0.88-1.03,1.53-1.74,1.95
	s-1.85,0.63-2.7,0.63c-1.54,0-3.16-0.6-4.15-1.811c-1-1.21-1.49-3.22-1.49-6.03c0-3.13,0.51-5.35,1.53-6.68
	c1.02-1.33,2.68-1.99,4.28-1.99c1.16,0,2.48,0.34,3.26,1.03C13.07,5.48,13.54,6.48,13.71,7.78z M5.38,14.75
	c0,1.17,0.32,2.11,0.95,2.82c0.63,0.71,1.72,1.07,2.56,1.07c0.73,0,1.74-0.33,2.32-1.01c0.58-0.67,0.86-1.59,0.86-2.76
	c0-1.15-0.29-2.04-0.86-2.67c-0.57-0.64-1.63-0.95-2.45-0.95c-0.81,0-1.87,0.31-2.47,0.94C5.68,12.83,5.38,13.68,5.38,14.75z"/>
<path fill="#ED1C24" d="M61.29,102.22l1.87-0.159c0.18,0.83,0.439,1.42,0.779,1.779c0.5,0.51,1.451,0.77,2.15,0.77
	c1.08,0,2.311-0.59,2.971-1.76c0.56-1.01,0.85-2.51,0.859-4.49c-0.43,0.701-0.97,1.24-1.62,1.601c-0.649,0.36-1.7,0.54-2.42,0.54
	c-1.2,0-2.61-0.48-3.51-1.43c-0.899-0.95-1.341-2.23-1.341-3.82c0-1.08,0.221-2.061,0.671-2.939c0.45-0.881,1.03-1.531,1.739-1.951
	c0.711-0.42,1.851-0.629,2.701-0.629c1.539,0,3.159,0.6,4.149,1.81c1,1.21,1.489,3.21,1.489,6.03c0,3.119-0.51,5.35-1.529,6.68
	s-2.689,1.99-4.279,1.99c-1.16,0-2.48-0.34-3.261-1.03S61.46,103.52,61.29,102.22z M69.62,95.25c0-1.17-0.31-2.109-0.95-2.82
	c-0.63-0.71-1.72-1.07-2.561-1.07c-0.729,0-1.75,0.33-2.319,1c-0.58,0.671-0.86,1.591-0.86,2.761c0,1.149,0.291,2.04,0.86,2.67
	s1.63,0.95,2.45,0.95c0.81,0,1.869-0.311,2.47-0.94C69.32,97.17,69.62,96.32,69.62,95.25z"/>
<path fill="#ED1C24" d="M11.09,26.63c-0.78-1.03-1.4-2.05-1.85-2.98c-0.49,1.02-1.23,2.17-2.18,3.33c-0.87,1.06-1.8,1.99-2.69,2.73
	c0.96,0.8,1.96,1.85,2.87,3.06c0.82,1.08,1.46,2.14,1.91,3.1c0.46-0.97,1.13-2.06,1.98-3.16c0.9-1.17,1.88-2.18,2.82-2.96l0.03-0.04
	C13.02,28.91,12.02,27.85,11.09,26.63z"/>
<path fill="#ED1C24" d="M41.98,48.1c-1.721-2.27-3.09-4.51-4.061-6.55c-1.08,2.24-2.71,4.77-4.8,7.32
	c-1.91,2.33-3.95,4.38-5.92,6.01c2.11,1.771,4.3,4.08,6.32,6.74c1.8,2.37,3.21,4.72,4.19,6.83c1.011-2.15,2.479-4.54,4.36-6.96
	c1.979-2.561,4.14-4.79,6.209-6.521l0.07-0.09C46.221,53.1,44.01,50.78,41.98,48.1z"/>
<path fill="#ED1C24" d="M64.45,83.359c0.78,1.031,1.399,2.051,1.85,2.98c0.49-1.02,1.229-2.17,2.181-3.33
	c0.869-1.06,1.799-1.99,2.689-2.729c-0.96-0.8-1.96-1.851-2.87-3.061c-0.819-1.079-1.46-2.14-1.909-3.1
	c-0.461,0.979-1.131,2.06-1.98,3.16c-0.9,1.17-1.881,2.18-2.82,2.96l-0.029,0.04C62.52,81.09,63.529,82.15,64.45,83.359z"/>
</svg>
