<?xml version="1.0" encoding="utf-8"?>
<!-- Generator: Adobe Illustrator 13.0.2, SVG Export Plug-In  -->
<!DOCTYPE svg PUBLIC "-//W3C//DTD SVG 1.1//EN" "http://www.w3.org/Graphics/SVG/1.1/DTD/svg11.dtd" [
	<!ENTITY ns_flows "http://ns.adobe.com/Flows/1.0/">
]>
<svg version="1.1"
	 xmlns="http://www.w3.org/2000/svg" xmlns:xlink="http://www.w3.org/1999/xlink" xmlns:a="http://ns.adobe.com/AdobeSVGViewerExtensions/3.0/"
	 x="0px" y="0px" width="75px" height="110px" viewBox="0 0 75 110" enable-background="new 0 0 75 110" xml:space="preserve">
<defs>
</defs>
<rect fill="none" width="75" height="110"/>
<linearGradient id="SVGID_1_" gradientUnits="userSpaceOnUse" x1="1554.4678" y1="1657.9805" x2="1616.5326" y2="1546.0125" gradientTransform="matrix(1 0 0 -1 -1548 1657)">
	<stop  offset="0" style="stop-color:#FFFFFF"/>
	<stop  offset="1" style="stop-color:#DEDEDF"/>
</linearGradient>
<path fill="url(#SVGID_1_)" d="M74.51,105.141c0,2.409-2.02,4.369-4.51,4.369H5c-2.49,0-4.51-1.96-4.51-4.369V4.86
	C0.49,2.45,2.51,0.5,5,0.5h65c2.49,0,4.51,1.96,4.51,4.37V105.141z"/>
<path fill="#B3B3B3" d="M5,110c-2.75-0.01-5-2.17-5-4.859l0,0V4.86C0,2.16,2.25,0.01,5,0l0,0h65c2.75,0.01,5,2.16,5,4.86l0,0v100.27
	l0,0c0,2.7-2.25,4.86-5,4.86l0,0H5V110z M0.99,4.86v100.27c0,2.12,1.78,3.87,4.01,3.87l0,0h65c2.23,0,4.01-1.75,4.01-3.87l0,0V4.86
	c0-2.13-1.779-3.87-4.01-3.87l0,0H5C2.77,0.99,0.99,2.74,0.99,4.86L0.99,4.86z"/>
<path fill="#ED1C24" d="M13.61,16.65h-1.03c-0.23,0-0.42,0.14-0.42,0.32v1.37H6.48c0.21-0.37,0.47-0.73,0.8-1.1
	c0.33-0.37,1.06-1.06,2.18-2.07c1.77-1.6,2.97-2.88,3.6-3.84S14,9.36,14,8.32c0-1.18-0.4-2.23-1.21-3.16
	c-0.81-0.93-1.99-1.39-3.56-1.39c-1.44,0-2.6,0.4-3.48,1.2c-0.89,0.8-1.39,1.99-1.53,3.57l1.96,0.22c0-1.07,0.28-1.9,0.84-2.47
	C7.58,5.71,8.3,5.42,9.18,5.42c0.82,0,1.5,0.26,2.06,0.79c0.56,0.53,0.83,1.21,0.83,2.05c0,0.73-0.27,1.51-0.81,2.35
	c-0.54,0.84-1.7,2.04-3.47,3.58c-1.51,1.32-2.55,2.47-3.11,3.44c-0.57,0.97-0.84,1.85-0.81,2.63h10.17v-3.3
	C14.02,16.8,13.84,16.65,13.61,16.65z"/>
<path fill="#ED1C24" d="M61.391,93.35h1.029c0.23,0,0.42-0.14,0.42-0.319v-1.37h5.68c-0.199,0.37-0.47,0.73-0.799,1.1
	c-0.33,0.37-1.061,1.061-2.181,2.07c-1.771,1.6-2.97,2.88-3.601,3.84c-0.629,0.96-0.949,1.96-0.949,3.01c0,1.18,0.41,2.23,1.21,3.16
	c0.81,0.93,1.989,1.391,3.56,1.391c1.44,0,2.6-0.4,3.48-1.2c0.89-0.8,1.39-1.99,1.529-3.57l-1.959-0.22c0,1.07-0.281,1.89-0.84,2.47
	c-0.561,0.57-1.281,0.86-2.16,0.86c-0.82,0-1.5-0.26-2.061-0.79s-0.83-1.21-0.83-2.05c0-0.73,0.27-1.511,0.811-2.351
	c0.549-0.84,1.699-2.04,3.47-3.58c1.51-1.319,2.55-2.47,3.11-3.44c0.569-0.969,0.84-1.85,0.81-2.629H60.98v3.3
	C60.98,93.2,61.16,93.35,61.391,93.35z"/>
<path fill="#ED1C24" d="M10.8,26.48c-0.78-1.03-1.4-2.05-1.85-2.98c-0.49,1.02-1.23,2.17-2.18,3.33c-0.87,1.06-1.8,1.99-2.69,2.73
	c0.96,0.8,1.96,1.85,2.87,3.06c0.82,1.08,1.46,2.14,1.91,3.1c0.46-0.97,1.13-2.06,1.98-3.16c0.9-1.17,1.88-2.18,2.82-2.96l0.03-0.04
	C12.73,28.75,11.72,27.7,10.8,26.48z"/>
<path fill="#ED1C24" d="M41.689,47.95c-1.719-2.27-3.09-4.51-4.06-6.55c-1.08,2.24-2.71,4.77-4.8,7.32
	c-1.91,2.33-3.95,4.38-5.92,6.01c2.11,1.77,4.3,4.081,6.32,6.74c1.8,2.37,3.22,4.72,4.19,6.83c1.01-2.14,2.48-4.54,4.359-6.96
	c1.98-2.56,4.141-4.79,6.211-6.52l0.07-0.09C45.93,52.95,43.71,50.63,41.689,47.95z"/>
<path fill="#ED1C24" d="M64.15,83.21c0.779,1.03,1.399,2.05,1.85,2.979c0.49-1.02,1.23-2.17,2.18-3.33
	c0.87-1.06,1.801-1.989,2.69-2.729c-0.96-0.8-1.96-1.85-2.87-3.06c-0.82-1.08-1.46-2.141-1.91-3.101
	c-0.46,0.97-1.13,2.061-1.98,3.16c-0.899,1.16-1.879,2.181-2.819,2.96l-0.03,0.04C62.23,80.939,63.23,81.99,64.15,83.21z"/>
</svg>
