<?xml version="1.0" encoding="utf-8"?>
<!-- Generator: Adobe Illustrator 13.0.2, SVG Export Plug-In  -->
<!DOCTYPE svg PUBLIC "-//W3C//DTD SVG 1.1//EN" "http://www.w3.org/Graphics/SVG/1.1/DTD/svg11.dtd" [
	<!ENTITY ns_flows "http://ns.adobe.com/Flows/1.0/">
]>
<svg version="1.1"
	 xmlns="http://www.w3.org/2000/svg" xmlns:xlink="http://www.w3.org/1999/xlink" xmlns:a="http://ns.adobe.com/AdobeSVGViewerExtensions/3.0/"
	 x="0px" y="0px" width="75px" height="110px" viewBox="0 0 75 110" enable-background="new 0 0 75 110" xml:space="preserve">
<defs>
</defs>
<rect fill="none" width="75" height="110"/>
<linearGradient id="SVGID_1_" gradientUnits="userSpaceOnUse" x1="1554.4678" y1="1657.9805" x2="1616.5326" y2="1546.0125" gradientTransform="matrix(1 0 0 -1 -1548 1657)">
	<stop  offset="0" style="stop-color:#FFFFFF"/>
	<stop  offset="1" style="stop-color:#DEDEDF"/>
</linearGradient>
<path fill="url(#SVGID_1_)" d="M74.51,105.141c0,2.409-2.02,4.369-4.51,4.369H5c-2.49,0-4.51-1.96-4.51-4.369V4.86
	C0.49,2.45,2.51,0.5,5,0.5h65c2.49,0,4.51,1.96,4.51,4.37V105.141z"/>
<path fill="#B3B3B3" d="M5,110c-2.75-0.01-5-2.17-5-4.859l0,0V4.86C0,2.16,2.25,0.01,5,0l0,0h65c2.75,0.01,5,2.16,5,4.86l0,0v100.27
	l0,0c0,2.7-2.25,4.86-5,4.86l0,0H5V110z M0.99,4.86v100.27c0,2.12,1.78,3.87,4.01,3.87l0,0h65c2.23,0,4.01-1.75,4.01-3.87l0,0V4.86
	c0-2.13-1.779-3.87-4.01-3.87l0,0H5C2.77,0.99,0.99,2.74,0.99,4.86L0.99,4.86z"/>
<path fill="#EE3333" d="M13.75,3.77H9c-0.21,0-0.38,0.16-0.38,0.36v0.89c0,0.2,0.17,0.36,0.38,0.36h1.33v9.57
	c0,0.97-0.09,1.7-0.28,2.18c-0.14,0.36-0.4,0.65-0.79,0.88c-0.39,0.23-1.23,0.35-1.74,0.35c-0.73,0-1.69-0.23-2.1-0.69
	C5,17.21,4.77,16.36,4.71,15.11l-1.96,0.03c0,1.67,0.44,3.18,1.24,4.02c0.69,0.74,2.13,1.11,3.54,1.11c1.45,0,2.96-0.41,3.75-1.23
	c0.8-0.82,1.2-2.22,1.2-4.22V5.38h1.28c0.21,0,0.38-0.16,0.38-0.36V4.13C14.14,3.93,13.96,3.77,13.75,3.77z"/>
<path fill="#EE3333" d="M61.25,106.23H66c0.21,0,0.38-0.16,0.38-0.36v-0.89c0-0.2-0.17-0.36-0.38-0.36h-1.33v-9.57
	c0-0.97,0.09-1.7,0.28-2.18c0.14-0.36,0.399-0.65,0.79-0.88c0.39-0.23,1.23-0.35,1.74-0.35c0.729,0,1.689,0.229,2.1,0.689
	c0.42,0.46,0.65,1.311,0.71,2.561l1.96-0.031c0-1.67-0.439-3.18-1.24-4.02c-0.689-0.74-2.13-1.109-3.539-1.109
	c-1.451,0-2.961,0.41-3.75,1.229c-0.801,0.82-1.201,2.22-1.201,4.22v9.44H61.24c-0.211,0-0.381,0.16-0.381,0.36v0.89
	C60.859,106.07,61.04,106.23,61.25,106.23z"/>
<path fill="#EE3333" d="M11.06,26.7c-0.78-1.03-1.4-2.05-1.85-2.98c-0.49,1.021-1.23,2.17-2.18,3.33c-0.87,1.06-1.8,1.99-2.69,2.73
	c0.96,0.8,1.96,1.85,2.87,3.06c0.82,1.08,1.46,2.15,1.91,3.1c0.46-0.98,1.13-2.06,1.98-3.16c0.9-1.17,1.88-2.18,2.82-2.96l0.03-0.04
	C12.99,28.98,11.98,27.92,11.06,26.7z"/>
<path fill="#EE3333" d="M41.76,48.12c-1.72-2.27-3.09-4.51-4.06-6.55c-1.08,2.24-2.71,4.77-4.8,7.32c-1.91,2.33-3.95,4.38-5.92,6.01
	c2.11,1.77,4.3,4.081,6.32,6.741c1.8,2.369,3.21,4.719,4.19,6.829c1.01-2.14,2.48-4.54,4.359-6.96c1.98-2.56,4.141-4.79,6.211-6.52
	l0.069-0.09C46,53.12,43.79,50.8,41.76,48.12z"/>
<path fill="#EE3333" d="M64.42,83.43c0.78,1.03,1.4,2.051,1.85,2.98c0.49-1.02,1.23-2.17,2.181-3.33c0.87-1.061,1.8-1.99,2.69-2.73
	c-0.961-0.8-1.961-1.85-2.871-3.06c-0.819-1.08-1.459-2.14-1.91-3.101c-0.459,0.98-1.129,2.061-1.979,3.16
	c-0.899,1.17-1.88,2.181-2.819,2.961l-0.031,0.039C62.49,81.16,63.49,82.22,64.42,83.43z"/>
<path fill="#EE3333" d="M54.05,28.42v53.189H21.04V28.42H54.05z M52.05,30.42H23.04v49.189h29.01V30.42z"/>
</svg>
