<?xml version="1.0" encoding="utf-8"?>
<!-- Generator: Adobe Illustrator 13.0.2, SVG Export Plug-In  -->
<!DOCTYPE svg PUBLIC "-//W3C//DTD SVG 1.1//EN" "http://www.w3.org/Graphics/SVG/1.1/DTD/svg11.dtd" [
	<!ENTITY ns_flows "http://ns.adobe.com/Flows/1.0/">
]>
<svg version="1.1"
	 xmlns="http://www.w3.org/2000/svg" xmlns:xlink="http://www.w3.org/1999/xlink" xmlns:a="http://ns.adobe.com/AdobeSVGViewerExtensions/3.0/"
	 x="0px" y="0px" width="75px" height="110px" viewBox="0 0 75 110" enable-background="new 0 0 75 110" xml:space="preserve">
<defs>
</defs>
<rect fill="none" width="75" height="110"/>
<linearGradient id="SVGID_1_" gradientUnits="userSpaceOnUse" x1="1554.4678" y1="1657.9805" x2="1616.5326" y2="1546.0125" gradientTransform="matrix(1 0 0 -1 -1548 1657)">
	<stop  offset="0" style="stop-color:#FFFFFF"/>
	<stop  offset="1" style="stop-color:#DEDEDF"/>
</linearGradient>
<path fill="url(#SVGID_1_)" d="M74.51,105.141c0,2.409-2.02,4.369-4.51,4.369H5c-2.49,0-4.51-1.96-4.51-4.369V4.86
	C0.49,2.45,2.51,0.5,5,0.5h65c2.49,0,4.51,1.96,4.51,4.37V105.141z"/>
<path fill="#B3B3B3" d="M5,110c-2.75-0.01-5-2.17-5-4.859l0,0V4.86C0,2.16,2.25,0.01,5,0l0,0h65c2.75,0.01,5,2.16,5,4.86l0,0v100.27
	l0,0c0,2.7-2.25,4.86-5,4.86l0,0H5V110z M0.99,4.86v100.27c0,2.12,1.78,3.87,4.01,3.87l0,0h65c2.23,0,4.01-1.75,4.01-3.87l0,0V4.86
	c0-2.13-1.779-3.87-4.01-3.87l0,0H5C2.77,0.99,0.99,2.74,0.99,4.86L0.99,4.86z"/>
<path fill="#ED1C24" d="M14.74,18.64h-0.8L9.48,3.77H7.73L3.51,18.64H2.75c-0.18,0-0.33,0.16-0.33,0.36v0.89
	c0,0.2,0.15,0.36,0.33,0.36h3.09c0.18,0,0.33-0.16,0.33-0.36V19c0-0.2-0.15-0.36-0.33-0.36H5.18l0.89-3.39h5.11l0.96,3.39h-0.49
	c-0.18,0-0.33,0.16-0.33,0.36v0.89c0,0.2,0.15,0.36,0.33,0.36h3.1c0.18,0,0.33-0.16,0.33-0.36V19
	C15.07,18.8,14.92,18.64,14.74,18.64z M6.54,13.48L7.9,8.65C8.18,7.6,8.4,6.55,8.56,5.5c0.18,0.88,0.47,2.01,0.86,3.42l1.26,4.56
	H6.54z"/>
<path fill="#ED1C24" d="M60.26,91.359h0.801l4.469,14.871h1.75l4.211-14.871h0.77c0.18,0,0.33-0.159,0.33-0.359v-0.891
	c0-0.199-0.15-0.359-0.33-0.359h-3.09c-0.18,0-0.33,0.16-0.33,0.359V91c0,0.2,0.15,0.359,0.33,0.359h0.65L68.93,94.75H63.82
	l-0.961-3.391h0.49c0.18,0,0.33-0.159,0.33-0.359v-0.891c0-0.199-0.15-0.359-0.33-0.359h-3.09c-0.18,0-0.33,0.16-0.33,0.359V91
	C59.93,91.2,60.08,91.359,60.26,91.359z M68.46,96.53l-1.36,4.829c-0.289,1.041-0.51,2.091-0.67,3.15
	c-0.18-0.88-0.47-2.01-0.859-3.42l-1.26-4.56H68.46z"/>
<path fill="#ED1C24" d="M10.82,26.63c-0.78-1.03-1.4-2.05-1.85-2.98c-0.49,1.02-1.23,2.17-2.18,3.33c-0.86,1.06-1.79,2-2.69,2.74
	c0.96,0.8,1.96,1.85,2.87,3.061c0.82,1.08,1.46,2.14,1.91,3.1c0.46-0.97,1.13-2.06,1.98-3.16c0.9-1.17,1.88-2.18,2.82-2.96
	l0.03-0.04C12.75,28.91,11.74,27.85,10.82,26.63z"/>
<path fill="#ED1C24" d="M64.18,83.37c0.78,1.03,1.4,2.05,1.85,2.979c0.49-1.02,1.23-2.17,2.181-3.33c0.87-1.06,1.8-1.989,2.69-2.729
	c-0.961-0.8-1.961-1.851-2.871-3.06c-0.819-1.08-1.459-2.15-1.909-3.101c-0.46,0.979-1.13,2.06-1.979,3.16
	c-0.9,1.17-1.881,2.181-2.82,2.96l-0.03,0.04C62.25,81.09,63.26,82.15,64.18,83.37z"/>
<path fill="#EE3333" d="M43.18,45.59c-2.3-3.1-4.13-6.15-5.43-8.93c-1.44,3.05-3.62,6.51-6.42,9.99c-2.55,3.18-5.29,5.97-7.93,8.19
	c2.82,2.41,5.76,5.561,8.46,9.19c2.41,3.229,4.3,6.43,5.61,9.31c1.35-2.93,3.32-6.189,5.83-9.49c2.65-3.49,5.54-6.539,8.31-8.89
	C48.859,52.42,45.891,49.25,43.18,45.59z M44.01,44.13c3.141,4.22,6.561,7.88,9.84,10.67c-3.31,2.87-6.64,6.38-9.699,10.42
	c-2.9,3.811-5.18,7.58-6.74,10.96c-1.51-3.32-3.7-7.02-6.48-10.76c-3.11-4.189-6.51-7.83-9.77-10.62c3.05-2.56,6.21-5.79,9.16-9.46
	c3.23-4.02,5.75-8.01,7.41-11.54C39.23,37.03,41.34,40.56,44.01,44.13z"/>
<path fill="#ED1C24" d="M41.74,48.1c-1.721-2.27-3.09-4.51-4.06-6.55c-1.08,2.24-2.71,4.77-4.8,7.32c-1.91,2.33-3.95,4.38-5.92,6.01
	c2.11,1.771,4.3,4.08,6.32,6.74c1.8,2.37,3.22,4.72,4.19,6.83c1.01-2.15,2.48-4.54,4.36-6.96c1.98-2.561,4.141-4.79,6.21-6.521
	C45.99,53.11,43.77,50.78,41.74,48.1z"/>
</svg>
