<?xml version="1.0" encoding="utf-8"?>
<!-- Generator: Adobe Illustrator 13.0.2, SVG Export Plug-In  -->
<!DOCTYPE svg PUBLIC "-//W3C//DTD SVG 1.1//EN" "http://www.w3.org/Graphics/SVG/1.1/DTD/svg11.dtd" [
	<!ENTITY ns_flows "http://ns.adobe.com/Flows/1.0/">
]>
<svg version="1.1"
	 xmlns="http://www.w3.org/2000/svg" xmlns:xlink="http://www.w3.org/1999/xlink" xmlns:a="http://ns.adobe.com/AdobeSVGViewerExtensions/3.0/"
	 x="0px" y="0px" width="75px" height="110px" viewBox="0 0 75 110" enable-background="new 0 0 75 110" xml:space="preserve">
<defs>
</defs>
<rect fill="none" width="75" height="110"/>
<linearGradient id="SVGID_1_" gradientUnits="userSpaceOnUse" x1="1554.4678" y1="1657.9805" x2="1616.5326" y2="1546.0125" gradientTransform="matrix(1 0 0 -1 -1548 1657)">
	<stop  offset="0" style="stop-color:#FFFFFF"/>
	<stop  offset="1" style="stop-color:#DEDEDF"/>
</linearGradient>
<path fill="url(#SVGID_1_)" d="M74.51,105.141c0,2.409-2.02,4.369-4.51,4.369H5c-2.49,0-4.51-1.96-4.51-4.369V4.86
	C0.49,2.45,2.51,0.5,5,0.5h65c2.49,0,4.51,1.96,4.51,4.37V105.141z"/>
<path fill="#B3B3B3" d="M5,110c-2.75-0.01-5-2.17-5-4.859l0,0V4.86C0,2.16,2.25,0.01,5,0l0,0h65c2.75,0.01,5,2.16,5,4.86l0,0v100.27
	l0,0c0,2.7-2.25,4.86-5,4.86l0,0H5V110z M0.99,4.86v100.27c0,2.12,1.78,3.87,4.01,3.87l0,0h65c2.23,0,4.01-1.75,4.01-3.87l0,0V4.86
	c0-2.13-1.779-3.87-4.01-3.87l0,0H5C2.77,0.99,0.99,2.74,0.99,4.86L0.99,4.86z"/>
<path fill="#ED1C24" d="M4.3,15.69l1.97-0.16c0.15,1.04,0.5,1.81,1.04,2.33c0.54,0.51,1.16,0.76,1.87,0.76
	c0.89,0,1.66-0.36,2.3-1.08c0.64-0.72,0.96-1.71,0.96-2.96c0-1.18-0.31-2.09-0.93-2.74c-0.62-0.65-1.4-0.97-2.34-0.97
	c-0.57,0-1.1,0.14-1.59,0.42c-0.49,0.28-0.89,0.68-1.17,1.18l-1.76-0.25l0.41-8.45h8.66V5.7H6.87L6.8,10.11
	c0.91-0.68,1.87-1.02,2.88-1.02c1.28,0,2.39,0.48,3.33,1.44c0.94,0.96,1.42,2.26,1.42,3.89c0,1.61-0.47,2.99-1.42,4.13
	c-0.94,1.15-2.21,1.72-3.81,1.72c-1.32,0-2.44-0.4-3.35-1.21C4.94,18.24,4.42,17.12,4.3,15.69z"/>
<path fill="#ED1C24" d="M70.77,94.311L68.8,94.47c-0.149-1.04-0.5-1.819-1.04-2.329c-0.539-0.511-1.16-0.761-1.869-0.761
	c-0.891,0-1.66,0.36-2.301,1.08c-0.64,0.72-0.96,1.71-0.96,2.96c0,1.18,0.31,2.09,0.931,2.74c0.619,0.65,1.399,0.97,2.34,0.97
	c0.57,0,1.1-0.14,1.59-0.42s0.89-0.68,1.17-1.18l1.76,0.25l-0.41,8.45h-8.66V104.3h6.83l0.07-4.409c-0.91,0.68-1.87,1.02-2.88,1.02
	c-1.28,0-2.39-0.48-3.33-1.44s-1.41-2.26-1.41-3.89c0-1.61,0.47-2.99,1.42-4.13c0.94-1.15,2.21-1.72,3.81-1.72
	c1.32,0,2.44,0.41,3.351,1.22C70.12,91.75,70.641,92.88,70.77,94.311z"/>
<path fill="#ED1C24" d="M10.82,26.5c-0.78-1.03-1.4-2.05-1.85-2.98c-0.49,1.02-1.23,2.17-2.18,3.33C5.93,27.91,5,28.84,4.1,29.58
	c0.96,0.8,1.96,1.85,2.87,3.06c0.82,1.08,1.46,2.14,1.91,3.1c0.46-0.97,1.13-2.06,1.98-3.16c0.9-1.17,1.88-2.18,2.82-2.96l0.03-0.04
	C12.75,28.77,11.74,27.72,10.82,26.5z"/>
<path fill="#ED1C24" d="M41.71,47.96c-1.72-2.27-3.09-4.51-4.06-6.55c-1.08,2.24-2.71,4.77-4.8,7.32c-1.91,2.33-3.95,4.38-5.92,6.01
	c2.11,1.77,4.3,4.08,6.32,6.74c1.8,2.369,3.22,4.72,4.19,6.83c1.01-2.15,2.48-4.541,4.36-6.961c1.979-2.56,4.14-4.789,6.21-6.52
	l0.07-0.09C45.95,52.97,43.74,50.65,41.71,47.96z"/>
<path fill="#ED1C24" d="M64.18,83.23c0.78,1.029,1.4,2.05,1.85,2.979c0.49-1.021,1.23-2.17,2.181-3.33
	c0.87-1.06,1.8-1.989,2.69-2.729c-0.961-0.801-1.961-1.851-2.871-3.061c-0.819-1.08-1.459-2.14-1.909-3.1
	c-0.46,0.98-1.13,2.06-1.979,3.16c-0.9,1.17-1.881,2.18-2.82,2.959l-0.03,0.041C62.25,80.96,63.26,82.01,64.18,83.23z"/>
</svg>
