<?xml version="1.0" encoding="utf-8"?>
<!-- Generator: Adobe Illustrator 13.0.2, SVG Export Plug-In  -->
<!DOCTYPE svg PUBLIC "-//W3C//DTD SVG 1.1//EN" "http://www.w3.org/Graphics/SVG/1.1/DTD/svg11.dtd" [
	<!ENTITY ns_flows "http://ns.adobe.com/Flows/1.0/">
]>
<svg version="1.1"
	 xmlns="http://www.w3.org/2000/svg" xmlns:xlink="http://www.w3.org/1999/xlink" xmlns:a="http://ns.adobe.com/AdobeSVGViewerExtensions/3.0/"
	 x="0px" y="0px" width="75px" height="110px" viewBox="0 0 75 110" enable-background="new 0 0 75 110" xml:space="preserve">
<defs>
</defs>
<rect fill="none" width="75" height="110"/>
<linearGradient id="SVGID_1_" gradientUnits="userSpaceOnUse" x1="1554.4678" y1="1657.9805" x2="1616.5326" y2="1546.0125" gradientTransform="matrix(1 0 0 -1 -1548 1657)">
	<stop  offset="0" style="stop-color:#FFFFFF"/>
	<stop  offset="1" style="stop-color:#DEDEDF"/>
</linearGradient>
<path fill="url(#SVGID_1_)" d="M74.51,105.141c0,2.409-2.02,4.369-4.51,4.369H5c-2.49,0-4.51-1.96-4.51-4.369V4.86
	C0.49,2.45,2.51,0.5,5,0.5h65c2.49,0,4.51,1.96,4.51,4.37V105.141z"/>
<path fill="#B3B3B3" d="M5,110c-2.75-0.01-5-2.17-5-4.859l0,0V4.86C0,2.16,2.25,0.01,5,0l0,0h65c2.75,0.01,5,2.16,5,4.86l0,0v100.27
	l0,0c0,2.7-2.25,4.86-5,4.86l0,0H5V110z M0.99,4.86v100.27c0,2.12,1.78,3.87,4.01,3.87l0,0h65c2.23,0,4.01-1.75,4.01-3.87l0,0V4.86
	c0-2.13-1.779-3.87-4.01-3.87l0,0H5C2.77,0.99,0.99,2.74,0.99,4.86L0.99,4.86z"/>
<path d="M13.75,3.77H9c-0.21,0-0.38,0.16-0.38,0.36v0.89c0,0.2,0.17,0.36,0.38,0.36h1.33v9.57c0,0.97-0.09,1.7-0.28,2.18
	c-0.14,0.36-0.4,0.65-0.79,0.88c-0.39,0.23-1.23,0.35-1.74,0.35c-0.73,0-1.69-0.23-2.1-0.69C5,17.21,4.77,16.36,4.71,15.11
	l-1.96,0.03c0,1.67,0.44,3.18,1.24,4.02c0.69,0.74,2.13,1.11,3.54,1.11c1.45,0,2.96-0.41,3.75-1.23c0.8-0.82,1.2-2.22,1.2-4.22V5.38
	h1.28c0.21,0,0.38-0.16,0.38-0.36V4.13C14.14,3.93,13.96,3.77,13.75,3.77z"/>
<path d="M61.25,106.23H66c0.21,0,0.38-0.16,0.38-0.36v-0.89c0-0.2-0.17-0.36-0.38-0.36h-1.33v-9.57c0-0.97,0.09-1.7,0.28-2.18
	c0.14-0.36,0.399-0.65,0.79-0.88c0.39-0.23,1.23-0.35,1.74-0.35c0.729,0,1.689,0.229,2.1,0.689c0.42,0.46,0.65,1.311,0.71,2.561
	l1.96-0.031c0-1.67-0.439-3.18-1.24-4.02c-0.689-0.74-2.13-1.109-3.539-1.109c-1.451,0-2.961,0.41-3.75,1.229
	c-0.801,0.82-1.201,2.22-1.201,4.22v9.44H61.24c-0.211,0-0.381,0.16-0.381,0.36v0.89C60.859,106.07,61.04,106.23,61.25,106.23z"/>
<path d="M11.3,28.5c-0.27,0-0.52,0.04-0.76,0.11c0.52-0.48,0.84-1.17,0.84-1.92c0-1.47-1.24-2.67-2.76-2.67s-2.76,1.19-2.76,2.67
	c0,0.75,0.33,1.43,0.85,1.92c-0.24-0.07-0.5-0.11-0.77-0.11c-1.52,0-2.76,1.19-2.76,2.67c0,1.47,1.24,2.67,2.76,2.67
	c0.94,0,1.76-0.45,2.26-1.14c0.02,0.15,0.03,0.3,0.03,0.45c0,1.36-0.64,2.29-1.65,3.1h4.08c-1.01-0.81-1.65-1.74-1.65-3.1
	c0-0.15,0.01-0.3,0.02-0.45c0.5,0.69,1.32,1.14,2.26,1.14c1.52,0,2.76-1.19,2.76-2.67C14.06,29.69,12.82,28.5,11.3,28.5z"/>
<path d="M43.29,51.2c-0.569,0-1.12,0.08-1.649,0.22c1.119-1.04,1.81-2.5,1.81-4.12c0-3.17-2.66-5.73-5.93-5.73
	c-3.28,0-5.94,2.56-5.94,5.73c0,1.62,0.7,3.08,1.82,4.12c-0.52-0.14-1.08-0.22-1.65-0.22c-3.28,0-5.93,2.57-5.93,5.729
	c0,3.17,2.66,5.73,5.93,5.73c2.01,0,3.78-0.971,4.86-2.45c0.04,0.32,0.06,0.64,0.06,0.97c0,2.93-1.38,4.93-3.54,6.67h8.78
	c-2.16-1.74-3.54-3.75-3.54-6.67c0-0.33,0.021-0.649,0.05-0.97c1.08,1.479,2.85,2.45,4.859,2.45c3.281,0,5.931-2.57,5.931-5.73
	C49.221,53.77,46.57,51.2,43.29,51.2z"/>
<path d="M63.75,80.939c0.27,0,0.52-0.039,0.77-0.109C64,81.32,63.67,82,63.67,82.75c0,1.47,1.24,2.67,2.76,2.67
	c1.521,0,2.76-1.189,2.76-2.67c0-0.75-0.33-1.43-0.85-1.92c0.24,0.07,0.5,0.109,0.77,0.109c1.521,0,2.761-1.189,2.761-2.67
	c0-1.479-1.24-2.66-2.761-2.66c-0.939,0-1.76,0.451-2.26,1.141c-0.02-0.15-0.029-0.3-0.029-0.45c0-1.36,0.64-2.29,1.65-3.1h-4.08
	c1.01,0.81,1.649,1.739,1.649,3.1c0,0.15-0.011,0.3-0.03,0.45c-0.5-0.689-1.32-1.141-2.26-1.141c-1.52,0-2.76,1.19-2.76,2.66
	C60.99,79.74,62.23,80.939,63.75,80.939z"/>
<path d="M54.05,28.42v53.189H21.04V28.42H54.05z M52.05,30.42H23.04v49.189h29.01V30.42z"/>
</svg>
