<?xml version="1.0" encoding="utf-8"?>
<!-- Generator: Adobe Illustrator 13.0.2, SVG Export Plug-In  -->
<!DOCTYPE svg PUBLIC "-//W3C//DTD SVG 1.1//EN" "http://www.w3.org/Graphics/SVG/1.1/DTD/svg11.dtd" [
	<!ENTITY ns_flows "http://ns.adobe.com/Flows/1.0/">
]>
<svg version="1.1"
	 xmlns="http://www.w3.org/2000/svg" xmlns:xlink="http://www.w3.org/1999/xlink" xmlns:a="http://ns.adobe.com/AdobeSVGViewerExtensions/3.0/"
	 x="0px" y="0px" width="75px" height="110px" viewBox="0 0 75 110" enable-background="new 0 0 75 110" xml:space="preserve">
<defs>
</defs>
<rect fill="none" width="75" height="110"/>
<linearGradient id="SVGID_1_" gradientUnits="userSpaceOnUse" x1="1554.4678" y1="1657.9805" x2="1616.5326" y2="1546.0125" gradientTransform="matrix(1 0 0 -1 -1548 1657)">
	<stop  offset="0" style="stop-color:#FFFFFF"/>
	<stop  offset="1" style="stop-color:#DEDEDF"/>
</linearGradient>
<path fill="url(#SVGID_1_)" d="M74.51,105.141c0,2.409-2.02,4.369-4.51,4.369H5c-2.49,0-4.51-1.96-4.51-4.369V4.86
	C0.49,2.45,2.51,0.5,5,0.5h65c2.49,0,4.51,1.96,4.51,4.37V105.141z"/>
<path fill="#B3B3B3" d="M5,110c-2.75-0.01-5-2.17-5-4.859l0,0V4.86C0,2.16,2.25,0.01,5,0l0,0h65c2.75,0.01,5,2.16,5,4.86l0,0v100.27
	l0,0c0,2.7-2.25,4.86-5,4.86l0,0H5V110z M0.99,4.86v100.27c0,2.12,1.78,3.87,4.01,3.87l0,0h65c2.23,0,4.01-1.75,4.01-3.87l0,0V4.86
	c0-2.13-1.779-3.87-4.01-3.87l0,0H5C2.77,0.99,0.99,2.74,0.99,4.86L0.99,4.86z"/>
<path d="M6.13,11.23c-0.79-0.29-1.39-0.71-1.8-1.26c-0.4-0.55-0.6-1.229-0.6-2.05c0-1.23,0.44-2.23,1.32-3
	c0.88-0.77,2.36-1.16,3.69-1.16c1.34,0,2.83,0.39,3.72,1.18s1.33,1.8,1.33,3.04c0,0.78-0.2,1.44-0.59,1.98
	c-0.39,0.54-0.99,0.96-1.79,1.26c0.98,0.32,1.73,0.83,2.26,1.53c0.53,0.71,0.79,1.58,0.79,2.62c0,1.44-0.51,2.62-1.52,3.52
	c-1.01,0.91-2.66,1.36-4.16,1.36c-1.52,0-3.17-0.45-4.19-1.36c-1.02-0.91-1.52-2.1-1.52-3.58c0-1.08,0.27-1.97,0.82-2.67
	C4.42,11.96,5.17,11.48,6.13,11.23z M5.09,15.34c0,0.99,0.32,1.79,0.97,2.4c0.65,0.61,1.8,0.91,2.71,0.91s2.06-0.29,2.7-0.88
	c0.63-0.59,0.95-1.37,0.95-2.36c0-0.99-0.33-1.79-0.98-2.4c-0.65-0.6-1.81-0.91-2.72-0.91c-0.9,0-2.05,0.3-2.68,0.9
	C5.4,13.6,5.09,14.38,5.09,15.34z M5.76,7.87c0,0.79,0.25,1.43,0.76,1.9c0.51,0.47,1.51,0.71,2.25,0.71c0.72,0,1.71-0.23,2.22-0.7
	c0.51-0.46,0.76-1.061,0.76-1.8c0-0.76-0.26-1.38-0.78-1.86S9.45,5.4,8.74,5.4c-0.71,0-1.7,0.23-2.21,0.71
	C6.02,6.59,5.76,7.16,5.76,7.87z"/>
<path d="M69.029,98.77c0.791,0.291,1.391,0.711,1.801,1.261s0.609,1.229,0.609,2.05c0,1.23-0.439,2.23-1.319,3s-2.36,1.16-3.69,1.16
	c-1.34,0-2.83-0.391-3.72-1.18c-0.89-0.791-1.33-1.801-1.33-3.041c0-0.779,0.2-1.439,0.591-1.979c0.389-0.54,0.989-0.96,1.789-1.26
	c-0.98-0.32-1.73-0.83-2.26-1.53c-0.529-0.71-0.79-1.58-0.79-2.62c0-1.44,0.511-2.62,1.521-3.521c1.02-0.909,2.66-1.359,4.16-1.359
	c1.52,0,3.17,0.45,4.189,1.359c1.01,0.91,1.52,2.101,1.52,3.58c0,1.08-0.27,1.971-0.82,2.67C70.74,98.04,69.99,98.52,69.029,98.77z
	 M70.07,94.66c0-0.99-0.32-1.79-0.971-2.4c-0.649-0.609-1.8-0.91-2.709-0.91c-0.91,0-2.061,0.291-2.701,0.881
	c-0.629,0.59-0.949,1.369-0.949,2.359s0.33,1.79,0.98,2.4c0.649,0.6,1.819,0.91,2.729,0.91c0.899,0,2.05-0.301,2.68-0.9
	C69.75,96.4,70.07,95.62,70.07,94.66z M69.4,102.13c0-0.79-0.25-1.43-0.76-1.899c-0.511-0.471-1.511-0.711-2.25-0.711
	c-0.721,0-1.711,0.23-2.221,0.7c-0.51,0.46-0.76,1.06-0.76,1.8c0,0.761,0.26,1.381,0.779,1.86c0.521,0.479,1.521,0.72,2.23,0.72
	s1.7-0.229,2.21-0.709C69.141,103.43,69.4,102.84,69.4,102.13z"/>
<path d="M11.02,28.61c-0.27,0-0.52,0.04-0.76,0.1c0.52-0.48,0.84-1.16,0.84-1.92c0-1.47-1.24-2.67-2.76-2.67s-2.76,1.19-2.76,2.67
	c0,0.75,0.32,1.43,0.85,1.92c-0.24-0.07-0.5-0.1-0.77-0.1c-1.52,0-2.76,1.19-2.76,2.67c0,1.479,1.24,2.67,2.76,2.67
	c0.94,0,1.76-0.45,2.26-1.14c0.02,0.15,0.03,0.3,0.03,0.45c0,1.36-0.64,2.3-1.65,3.11h4.08c-1.01-0.81-1.65-1.74-1.65-3.11
	c0-0.15,0.01-0.3,0.03-0.45c0.5,0.69,1.32,1.14,2.26,1.14c1.52,0,2.76-1.19,2.76-2.67C13.78,29.8,12.54,28.61,11.02,28.61z"/>
<path d="M43.01,51.32c-0.57,0-1.119,0.08-1.65,0.23c1.121-1.04,1.811-2.5,1.811-4.12c0-3.17-2.66-5.73-5.93-5.73
	c-3.28,0-5.94,2.56-5.94,5.73c0,1.62,0.7,3.08,1.82,4.12c-0.52-0.14-1.08-0.23-1.65-0.23c-3.28,0-5.93,2.57-5.93,5.73
	c0,3.16,2.66,5.73,5.93,5.73c2.01,0,3.78-0.97,4.86-2.45c0.04,0.32,0.06,0.64,0.06,0.97c0,2.931-1.38,4.931-3.54,6.67h8.78
	c-2.159-1.739-3.54-3.75-3.54-6.67c0-0.33,0.02-0.649,0.051-0.97c1.08,1.48,2.85,2.45,4.859,2.45c3.279,0,5.93-2.57,5.93-5.73
	C48.939,53.88,46.279,51.32,43.01,51.32z"/>
<path d="M63.471,81.05c0.27,0,0.52-0.04,0.77-0.1c-0.52,0.479-0.84,1.159-0.84,1.92c0,1.47,1.24,2.67,2.76,2.67s2.76-1.19,2.76-2.67
	c0-0.75-0.33-1.431-0.85-1.92c0.24,0.069,0.5,0.1,0.77,0.1c1.52,0,2.76-1.19,2.76-2.67c0-1.47-1.24-2.66-2.76-2.66
	c-0.939,0-1.76,0.45-2.26,1.14c-0.02-0.149-0.03-0.299-0.03-0.449c0-1.36,0.64-2.29,1.65-3.1h-4.08c1.01,0.81,1.649,1.739,1.649,3.1
	c0,0.15-0.01,0.3-0.02,0.449c-0.5-0.689-1.32-1.14-2.26-1.14c-1.52,0-2.76,1.19-2.76,2.66C60.71,79.859,61.939,81.05,63.471,81.05z"
	/>
</svg>
