<?xml version="1.0" encoding="utf-8"?>
<!-- Generator: Adobe Illustrator 13.0.2, SVG Export Plug-In  -->
<!DOCTYPE svg PUBLIC "-//W3C//DTD SVG 1.1//EN" "http://www.w3.org/Graphics/SVG/1.1/DTD/svg11.dtd" [
	<!ENTITY ns_flows "http://ns.adobe.com/Flows/1.0/">
]>
<svg version="1.1"
	 xmlns="http://www.w3.org/2000/svg" xmlns:xlink="http://www.w3.org/1999/xlink" xmlns:a="http://ns.adobe.com/AdobeSVGViewerExtensions/3.0/"
	 x="0px" y="0px" width="75px" height="110px" viewBox="0 0 75 110" enable-background="new 0 0 75 110" xml:space="preserve">
<defs>
</defs>
<rect fill="none" width="75" height="110"/>
<linearGradient id="SVGID_1_" gradientUnits="userSpaceOnUse" x1="1554.4678" y1="1657.9805" x2="1616.5326" y2="1546.0125" gradientTransform="matrix(1 0 0 -1 -1548 1657)">
	<stop  offset="0" style="stop-color:#FFFFFF"/>
	<stop  offset="1" style="stop-color:#DEDEDF"/>
</linearGradient>
<path fill="url(#SVGID_1_)" d="M74.51,105.141c0,2.409-2.02,4.369-4.51,4.369H5c-2.49,0-4.51-1.96-4.51-4.369V4.86
	C0.49,2.45,2.51,0.5,5,0.5h65c2.49,0,4.51,1.96,4.51,4.37V105.141z"/>
<path fill="#B3B3B3" d="M5,110c-2.75-0.01-5-2.17-5-4.859l0,0V4.86C0,2.16,2.25,0.01,5,0l0,0h65c2.75,0.01,5,2.16,5,4.86l0,0v100.27
	l0,0c0,2.7-2.25,4.86-5,4.86l0,0H5V110z M0.99,4.86v100.27c0,2.12,1.78,3.87,4.01,3.87l0,0h65c2.23,0,4.01-1.75,4.01-3.87l0,0V4.86
	c0-2.13-1.779-3.87-4.01-3.87l0,0H5C2.77,0.99,0.99,2.74,0.99,4.86L0.99,4.86z"/>
<path d="M14.42,18.75c-0.05-0.01-0.65-0.14-1.47-0.51c0.43-0.61,0.68-1.32,0.68-2.08V7.88c0-2.27-2.2-4.11-4.91-4.11
	C6,3.77,3.8,5.61,3.8,7.88v5.17c-0.32-0.02-0.57-0.02-0.7-0.02c-0.05,0-0.08,0-0.09,0l0.04,1.56H3.1c0.11,0,0.36,0,0.7,0.02v1.55
	c0,2.27,2.2,4.11,4.92,4.11c1.11,0,2.14-0.31,2.96-0.84c1.27,0.62,2.24,0.82,2.31,0.84L14.42,18.75z M8.73,5.33
	c1.68,0,3.05,1.14,3.05,2.55v8.28c0,0.42-0.12,0.81-0.34,1.16c-0.08-0.08-0.17-0.17-0.26-0.27c-0.38-0.42-0.83-1-1.41-1.58
	c-0.58-0.59-1.3-1.2-2.27-1.66c-0.58-0.28-1.21-0.44-1.81-0.56V7.88C5.68,6.47,7.05,5.33,8.73,5.33z M5.68,16.16v-1.29
	c0.33,0.08,0.65,0.18,0.89,0.3c0.92,0.44,1.62,1.11,2.23,1.8c0.31,0.35,0.59,0.7,0.88,1.021c0.14,0.15,0.28,0.29,0.42,0.43
	C9.68,18.6,9.22,18.7,8.72,18.7C7.05,18.71,5.68,17.56,5.68,16.16z"/>
<path d="M60.65,91.25c0.05,0.01,0.649,0.141,1.47,0.51c-0.431,0.61-0.681,1.32-0.681,2.08v8.28c0,2.271,2.201,4.11,4.91,4.11
	c2.721,0,4.92-1.84,4.92-4.11v-5.17c0.32,0.02,0.57,0.02,0.69,0.02c0.05,0,0.08,0,0.09,0l-0.04-1.56h-0.05c-0.11,0-0.36,0-0.69-0.02
	V93.84c0-2.27-2.199-4.109-4.92-4.109c-1.109,0-2.14,0.319-2.959,0.84c-1.271-0.62-2.24-0.82-2.311-0.84L60.65,91.25z M66.34,104.67
	c-1.68,0-3.04-1.14-3.04-2.55v-8.28c0-0.42,0.12-0.81,0.341-1.16c0.08,0.08,0.17,0.17,0.26,0.271c0.379,0.42,0.83,1,1.41,1.579
	c0.58,0.591,1.299,1.201,2.27,1.66c0.58,0.271,1.21,0.44,1.82,0.561v5.38C69.391,103.53,68.02,104.67,66.34,104.67z M69.391,93.84
	v1.29c-0.33-0.08-0.65-0.18-0.891-0.3c-0.92-0.439-1.62-1.11-2.23-1.801c-0.31-0.35-0.59-0.699-0.879-1.02
	c-0.141-0.15-0.281-0.29-0.42-0.43c0.42-0.18,0.879-0.28,1.379-0.28C68.02,91.29,69.391,92.439,69.391,93.84z"/>
<path d="M11.08,28.53c-0.27,0-0.52,0.04-0.77,0.1c0.52-0.48,0.84-1.16,0.84-1.92c0-1.47-1.24-2.66-2.76-2.66s-2.76,1.19-2.76,2.66
	c0,0.75,0.33,1.43,0.85,1.92c-0.24-0.07-0.5-0.1-0.77-0.1c-1.52,0-2.76,1.189-2.76,2.66s1.24,2.67,2.76,2.67
	c0.94,0,1.76-0.45,2.26-1.14C7.99,32.87,8,33.02,8,33.17c0,1.36-0.64,2.3-1.65,3.11h4.08c-1.01-0.811-1.65-1.74-1.65-3.11
	c0-0.15,0.01-0.3,0.02-0.45c0.5,0.69,1.32,1.14,2.26,1.14c1.52,0,2.76-1.19,2.76-2.67C13.84,29.72,12.6,28.53,11.08,28.53z"/>
<path d="M43.07,51.23c-0.57,0-1.12,0.08-1.65,0.23c1.12-1.04,1.811-2.5,1.811-4.12c0-3.17-2.66-5.73-5.931-5.73
	c-3.28,0-5.94,2.56-5.94,5.73c0,1.62,0.7,3.08,1.82,4.12c-0.52-0.14-1.08-0.23-1.65-0.23c-3.28,0-5.93,2.57-5.93,5.73
	s2.66,5.729,5.93,5.729c2.01,0,3.78-0.97,4.86-2.449c0.04,0.32,0.06,0.64,0.06,0.97c0,2.931-1.38,4.94-3.54,6.681h8.779
	c-2.16-1.74-3.539-3.75-3.539-6.681c0-0.33,0.02-0.649,0.05-0.97c1.079,1.479,2.85,2.449,4.86,2.449c3.279,0,5.93-2.56,5.93-5.729
	S46.35,51.23,43.07,51.23z"/>
<path d="M63.529,80.97c0.271,0,0.521-0.04,0.771-0.1c-0.521,0.479-0.84,1.16-0.84,1.92c0,1.47,1.24,2.67,2.761,2.67
	c1.52,0,2.76-1.19,2.76-2.67c0-0.75-0.33-1.431-0.851-1.92c0.24,0.069,0.5,0.1,0.771,0.1c1.52,0,2.76-1.189,2.76-2.659
	c0-1.471-1.24-2.66-2.76-2.66c-0.94,0-1.76,0.449-2.26,1.14c-0.021-0.149-0.031-0.3-0.031-0.45c0-1.359,0.641-2.29,1.65-3.109h-4.08
	c1.01,0.81,1.65,1.739,1.65,3.109c0,0.15-0.01,0.301-0.02,0.45c-0.5-0.69-1.32-1.14-2.261-1.14c-1.521,0-2.76,1.189-2.76,2.66
	C60.77,79.77,62.01,80.97,63.529,80.97z"/>
<path d="M56.811,25.2v59.3H17.9V25.2H56.811z M54.811,27.2H19.9v55.3h34.911V27.2z M51.04,31.1H23.67v47.49h27.38V31.1H51.04z
	 M51.99,30.16v49.38H22.72V30.16H51.99z"/>
</svg>
