<?xml version="1.0" encoding="utf-8"?>
<!-- Generator: Adobe Illustrator 13.0.2, SVG Export Plug-In  -->
<!DOCTYPE svg PUBLIC "-//W3C//DTD SVG 1.1//EN" "http://www.w3.org/Graphics/SVG/1.1/DTD/svg11.dtd" [
	<!ENTITY ns_flows "http://ns.adobe.com/Flows/1.0/">
]>
<svg version="1.1"
	 xmlns="http://www.w3.org/2000/svg" xmlns:xlink="http://www.w3.org/1999/xlink" xmlns:a="http://ns.adobe.com/AdobeSVGViewerExtensions/3.0/"
	 x="0px" y="0px" width="75px" height="110px" viewBox="0 0 75 110" enable-background="new 0 0 75 110" xml:space="preserve">
<defs>
</defs>
<rect fill="none" width="75" height="110"/>
<linearGradient id="SVGID_1_" gradientUnits="userSpaceOnUse" x1="1554.4678" y1="1657.9805" x2="1616.5326" y2="1546.0125" gradientTransform="matrix(1 0 0 -1 -1548 1657)">
	<stop  offset="0" style="stop-color:#FFFFFF"/>
	<stop  offset="1" style="stop-color:#DEDEDF"/>
</linearGradient>
<path fill="url(#SVGID_1_)" d="M74.51,105.141c0,2.409-2.02,4.369-4.51,4.369H5c-2.49,0-4.51-1.96-4.51-4.369V4.86
	C0.49,2.45,2.51,0.5,5,0.5h65c2.49,0,4.51,1.96,4.51,4.37V105.141z"/>
<path fill="#B3B3B3" d="M5,110c-2.75-0.01-5-2.17-5-4.859l0,0V4.86C0,2.16,2.25,0.01,5,0l0,0h65c2.75,0.01,5,2.16,5,4.86l0,0v100.27
	l0,0c0,2.7-2.25,4.86-5,4.86l0,0H5V110z M0.99,4.86v100.27c0,2.12,1.78,3.87,4.01,3.87l0,0h65c2.23,0,4.01-1.75,4.01-3.87l0,0V4.86
	c0-2.13-1.779-3.87-4.01-3.87l0,0H5C2.77,0.99,0.99,2.74,0.99,4.86L0.99,4.86z"/>
<path d="M13.8,18.63h-0.81l-4.31-8.17l3.74-5.05h0.71c0.19,0,0.33-0.17,0.33-0.37v-0.9c0-0.21-0.15-0.37-0.33-0.37H9.67
	c-0.18,0-0.33,0.16-0.33,0.37v0.91c0,0.2,0.15,0.37,0.33,0.37h0.68l-4.7,6.54V5.41h0.89c0.19,0,0.33-0.17,0.33-0.37v-0.9
	c0-0.21-0.15-0.37-0.33-0.37H3.07c-0.19,0-0.33,0.16-0.33,0.37v0.91c0,0.2,0.15,0.37,0.33,0.37h0.91v13.21H3.07
	c-0.19,0-0.33,0.16-0.33,0.37v0.91c0,0.2,0.15,0.37,0.33,0.37h3.46c0.19,0,0.33-0.17,0.33-0.37V19c0-0.2-0.15-0.37-0.33-0.37H5.65
	v-4.07l1.95-2.63l3.37,6.7h-0.63c-0.18,0-0.33,0.16-0.33,0.37v0.91c0,0.2,0.15,0.37,0.33,0.37h3.52v-0.01
	c0.16-0.03,0.29-0.17,0.29-0.36V19C14.14,18.79,13.99,18.63,13.8,18.63z"/>
<path d="M61.2,91.37h0.81l4.311,8.17l-3.74,5.05h-0.71c-0.19,0-0.33,0.17-0.33,0.37v0.91c0,0.2,0.149,0.37,0.33,0.37h3.46
	c0.189,0,0.33-0.16,0.33-0.37v-0.91c0-0.2-0.15-0.37-0.33-0.37h-0.68l4.699-6.54v6.54h-0.89c-0.19,0-0.33,0.17-0.33,0.37v0.91
	c0,0.2,0.149,0.37,0.33,0.37h3.46c0.189,0,0.33-0.16,0.33-0.37v-0.91c0-0.2-0.15-0.37-0.33-0.37h-0.91V91.37h0.91
	c0.189,0,0.33-0.17,0.33-0.37v-0.9c0-0.199-0.15-0.369-0.33-0.369h-3.46c-0.19,0-0.33,0.17-0.33,0.369v0.91
	c0,0.2,0.149,0.37,0.33,0.37h0.89v4.07L67.4,98.08l-3.371-6.7h0.631c0.18,0,0.33-0.17,0.33-0.37V90.1c0-0.199-0.15-0.369-0.33-0.369
	h-3.52v0.01c-0.16,0.029-0.291,0.18-0.291,0.359v0.91C60.859,91.21,61.01,91.37,61.2,91.37z"/>
<path d="M11.14,28.51c-0.27,0-0.52,0.04-0.77,0.1c0.52-0.48,0.84-1.16,0.84-1.92c0-1.47-1.24-2.67-2.76-2.67s-2.76,1.19-2.76,2.67
	c0,0.75,0.33,1.43,0.85,1.92c-0.24-0.07-0.5-0.1-0.76-0.1c-1.53,0-2.76,1.19-2.76,2.67s1.24,2.67,2.76,2.67
	c0.94,0,1.76-0.45,2.26-1.14c0.02,0.15,0.03,0.3,0.03,0.45c0,1.36-0.64,2.3-1.65,3.1h4.08c-1.01-0.81-1.65-1.74-1.65-3.1
	c0-0.15,0.01-0.3,0.02-0.45c0.5,0.69,1.32,1.14,2.26,1.14c1.52,0,2.76-1.19,2.76-2.67S12.67,28.51,11.14,28.51z"/>
<path d="M43.13,51.21c-0.569,0-1.12,0.08-1.649,0.23c1.119-1.04,1.81-2.5,1.81-4.12c0-3.17-2.66-5.73-5.93-5.73
	c-3.28,0-5.94,2.56-5.94,5.73c0,1.62,0.7,3.08,1.82,4.12c-0.52-0.14-1.08-0.23-1.65-0.23c-3.28,0-5.93,2.57-5.93,5.729
	c0,3.16,2.66,5.73,5.93,5.73c2.01,0,3.78-0.97,4.86-2.45c0.04,0.32,0.06,0.64,0.06,0.97c0,2.931-1.38,4.931-3.54,6.67h8.78
	c-2.16-1.739-3.54-3.75-3.54-6.67c0-0.33,0.021-0.649,0.05-0.97c1.08,1.48,2.85,2.45,4.86,2.45c3.271,0,5.93-2.57,5.93-5.73
	C49.061,53.77,46.41,51.21,43.13,51.21z"/>
<path d="M63.59,80.939c0.27,0,0.52-0.039,0.76-0.1c-0.52,0.48-0.84,1.16-0.84,1.92c0,1.471,1.23,2.67,2.76,2.67
	c1.521,0,2.76-1.189,2.76-2.67c0-0.75-0.319-1.43-0.85-1.92c0.24,0.07,0.5,0.1,0.771,0.1c1.521,0,2.76-1.189,2.76-2.67
	c0-1.47-1.239-2.66-2.76-2.66c-0.94,0-1.761,0.451-2.261,1.141c-0.02-0.15-0.029-0.3-0.029-0.45c0-1.36,0.64-2.29,1.65-3.11h-4.08
	C65.24,74,65.88,74.93,65.88,76.3c0,0.15-0.01,0.3-0.021,0.45c-0.5-0.689-1.319-1.141-2.26-1.141c-1.52,0-2.76,1.19-2.76,2.66
	C60.83,79.75,62.07,80.939,63.59,80.939z"/>
<path d="M59.891,22.25V87.6H15.32V22.25H59.891z M57.891,24.25H17.32V85.6h40.571V24.25z M54.74,27.32v55.21H20.47V27.32H54.74z
	 M53.811,28.25H21.4V81.6h32.42V28.25H53.811z M50.24,31.95H24.97V77.9h25.27V31.95z M51.12,31.07v47.71H24.09V31.07H51.12z"/>
</svg>
