<?xml version="1.0" encoding="utf-8"?>
<!-- Generator: Adobe Illustrator 13.0.2, SVG Export Plug-In  -->
<!DOCTYPE svg PUBLIC "-//W3C//DTD SVG 1.1//EN" "http://www.w3.org/Graphics/SVG/1.1/DTD/svg11.dtd" [
	<!ENTITY ns_flows "http://ns.adobe.com/Flows/1.0/">
]>
<svg version="1.1"
	 xmlns="http://www.w3.org/2000/svg" xmlns:xlink="http://www.w3.org/1999/xlink" xmlns:a="http://ns.adobe.com/AdobeSVGViewerExtensions/3.0/"
	 x="0px" y="0px" width="75px" height="110px" viewBox="0 0 75 110" enable-background="new 0 0 75 110" xml:space="preserve">
<defs>
</defs>
<rect fill="none" width="75" height="110"/>
<linearGradient id="SVGID_1_" gradientUnits="userSpaceOnUse" x1="1554.4678" y1="1657.9805" x2="1616.5326" y2="1546.0125" gradientTransform="matrix(1 0 0 -1 -1548 1657)">
	<stop  offset="0" style="stop-color:#FFFFFF"/>
	<stop  offset="1" style="stop-color:#DEDEDF"/>
</linearGradient>
<path fill="url(#SVGID_1_)" d="M74.51,105.141c0,2.409-2.02,4.369-4.51,4.369H5c-2.49,0-4.51-1.96-4.51-4.369V4.86
	C0.49,2.45,2.51,0.5,5,0.5h65c2.49,0,4.51,1.96,4.51,4.37V105.141z"/>
<path fill="#B3B3B3" d="M5,110c-2.75-0.01-5-2.17-5-4.859l0,0V4.86C0,2.16,2.25,0.01,5,0l0,0h65c2.75,0.01,5,2.16,5,4.86l0,0v100.27
	l0,0c0,2.7-2.25,4.86-5,4.86l0,0H5V110z M0.99,4.86v100.27c0,2.12,1.78,3.87,4.01,3.87l0,0h65c2.23,0,4.01-1.75,4.01-3.87l0,0V4.86
	c0-2.13-1.779-3.87-4.01-3.87l0,0H5C2.77,0.99,0.99,2.74,0.99,4.86L0.99,4.86z"/>
<path d="M2.74,3.77v3.36c0,0.18,0.21,0.32,0.48,0.32h1.19c0.26,0,0.48-0.14,0.48-0.32v-1.4h6.46c-1.09,1.19-2.11,2.62-3.05,4.31
	c-0.94,1.69-1.68,3.47-2.22,5.33c-0.54,1.86-0.83,3.5-0.86,4.9h2.22c0.19-2.71,0.94-5.44,2.22-8.19c1.29-2.76,2.78-4.99,4.48-6.71
	v-1.6H2.74z"/>
<path d="M72.26,106.23v-3.36c0-0.181-0.21-0.32-0.48-0.32H70.6c-0.27,0-0.479,0.14-0.479,0.32v1.39h-6.46
	c1.09-1.189,2.109-2.619,3.05-4.31s1.681-3.47,2.22-5.33c0.541-1.86,0.82-3.5,0.85-4.9h-2.219c-0.19,2.71-0.94,5.44-2.221,8.19
	c-1.29,2.76-2.779,4.99-4.48,6.71v1.6h11.4V106.23z"/>
<path d="M11.15,28.77c-0.27,0-0.52,0.04-0.77,0.1c0.52-0.48,0.84-1.16,0.84-1.92c0-1.47-1.24-2.67-2.76-2.67S5.7,25.47,5.7,26.95
	c0,0.75,0.32,1.43,0.85,1.92c-0.24-0.07-0.5-0.1-0.77-0.1c-1.53,0-2.76,1.19-2.76,2.67c0,1.47,1.23,2.67,2.76,2.67
	c0.94,0,1.76-0.45,2.26-1.14c0.02,0.15,0.03,0.3,0.03,0.45c0,1.36-0.64,2.3-1.65,3.11h4.08c-1.01-0.811-1.65-1.74-1.65-3.11
	c0-0.15,0.01-0.3,0.03-0.45c0.5,0.69,1.32,1.14,2.26,1.14c1.52,0,2.76-1.19,2.76-2.67C13.91,29.96,12.67,28.77,11.15,28.77z"/>
<path d="M43.141,51.47c-0.57,0-1.121,0.08-1.65,0.23c1.119-1.04,1.81-2.5,1.81-4.12c0-3.17-2.659-5.73-5.93-5.73
	c-3.28,0-5.94,2.56-5.94,5.73c0,1.62,0.7,3.08,1.82,4.12c-0.52-0.14-1.08-0.23-1.65-0.23c-3.28,0-5.93,2.57-5.93,5.73
	c0,3.159,2.66,5.729,5.93,5.729c2.01,0,3.78-0.97,4.86-2.449c0.04,0.319,0.06,0.64,0.06,0.97c0,2.93-1.38,4.94-3.54,6.67h8.78
	c-2.16-1.74-3.539-3.75-3.539-6.67c0-0.33,0.02-0.65,0.049-0.97c1.08,1.479,2.851,2.449,4.86,2.449c3.28,0,5.931-2.56,5.931-5.729
	S46.41,51.47,43.141,51.47z"/>
<path d="M63.6,81.2c0.271,0,0.521-0.04,0.771-0.101c-0.521,0.48-0.841,1.16-0.841,1.92c0,1.471,1.24,2.67,2.761,2.67
	s2.76-1.189,2.76-2.67c0-0.75-0.329-1.43-0.85-1.92c0.239,0.07,0.5,0.101,0.771,0.101c1.52,0,2.76-1.19,2.76-2.66
	s-1.24-2.67-2.76-2.67c-0.941,0-1.761,0.45-2.261,1.14c-0.021-0.15-0.03-0.3-0.03-0.449c0-1.36,0.641-2.291,1.65-3.101h-4.08
	c1.01,0.81,1.65,1.74,1.65,3.101c0,0.149-0.01,0.299-0.021,0.449c-0.5-0.689-1.319-1.14-2.26-1.14c-1.521,0-2.761,1.19-2.761,2.67
	C60.84,80.01,62.07,81.2,63.6,81.2z"/>
</svg>
