<?xml version="1.0" encoding="utf-8"?>
<!-- Generator: Adobe Illustrator 13.0.2, SVG Export Plug-In  -->
<!DOCTYPE svg PUBLIC "-//W3C//DTD SVG 1.1//EN" "http://www.w3.org/Graphics/SVG/1.1/DTD/svg11.dtd" [
	<!ENTITY ns_flows "http://ns.adobe.com/Flows/1.0/">
]>
<svg version="1.1"
	 xmlns="http://www.w3.org/2000/svg" xmlns:xlink="http://www.w3.org/1999/xlink" xmlns:a="http://ns.adobe.com/AdobeSVGViewerExtensions/3.0/"
	 x="0px" y="0px" width="75px" height="110px" viewBox="0 0 75 110" enable-background="new 0 0 75 110" xml:space="preserve">
<defs>
</defs>
<rect fill="none" width="75" height="110"/>
<linearGradient id="SVGID_1_" gradientUnits="userSpaceOnUse" x1="1554.4678" y1="1657.9805" x2="1616.5326" y2="1546.0125" gradientTransform="matrix(1 0 0 -1 -1548 1657)">
	<stop  offset="0" style="stop-color:#FFFFFF"/>
	<stop  offset="1" style="stop-color:#DEDEDF"/>
</linearGradient>
<path fill="url(#SVGID_1_)" d="M74.51,105.141c0,2.409-2.02,4.369-4.51,4.369H5c-2.49,0-4.51-1.96-4.51-4.369V4.86
	C0.49,2.45,2.51,0.5,5,0.5h65c2.49,0,4.51,1.96,4.51,4.37V105.141z"/>
<path fill="#B3B3B3" d="M5,110c-2.75-0.01-5-2.17-5-4.859l0,0V4.86C0,2.16,2.25,0.01,5,0l0,0h65c2.75,0.01,5,2.16,5,4.86l0,0v100.27
	l0,0c0,2.7-2.25,4.86-5,4.86l0,0H5V110z M0.99,4.86v100.27c0,2.12,1.78,3.87,4.01,3.87l0,0h65c2.23,0,4.01-1.75,4.01-3.87l0,0V4.86
	c0-2.13-1.779-3.87-4.01-3.87l0,0H5C2.77,0.99,0.99,2.74,0.99,4.86L0.99,4.86z"/>
<path d="M4.74,15.69l1.97-0.16c0.15,1.04,0.5,1.81,1.04,2.33c0.54,0.51,1.16,0.76,1.87,0.76c0.89,0,1.66-0.36,2.3-1.08
	c0.64-0.72,0.96-1.71,0.96-2.96c0-1.18-0.31-2.09-0.93-2.74c-0.62-0.65-1.4-0.97-2.34-0.97c-0.57,0-1.1,0.14-1.59,0.42
	c-0.49,0.28-0.89,0.68-1.17,1.18l-1.76-0.25L5.5,3.77h8.66V5.7H7.32l-0.07,4.41c0.91-0.68,1.87-1.02,2.88-1.02
	c1.28,0,2.39,0.48,3.33,1.44c0.94,0.96,1.42,2.26,1.42,3.89c0,1.61-0.47,2.99-1.42,4.13c-0.94,1.15-2.21,1.72-3.81,1.72
	c-1.32,0-2.44-0.4-3.35-1.21C5.39,18.24,4.87,17.12,4.74,15.69z"/>
<path d="M71.221,94.311L69.25,94.47c-0.15-1.04-0.5-1.819-1.04-2.329c-0.54-0.511-1.16-0.761-1.87-0.761c-0.89,0-1.66,0.36-2.3,1.08
	s-0.96,1.71-0.96,2.96c0,1.18,0.311,2.09,0.93,2.74c0.62,0.65,1.4,0.97,2.34,0.97c0.57,0,1.101-0.14,1.59-0.42
	c0.49-0.28,0.891-0.68,1.17-1.18l1.761,0.25l-0.41,8.45H61.8V104.3h6.83l0.07-4.409c-0.91,0.68-1.87,1.02-2.88,1.02
	c-1.28,0-2.391-0.48-3.33-1.44c-0.94-0.96-1.41-2.26-1.41-3.89c0-1.61,0.47-2.99,1.42-4.13c0.939-1.15,2.21-1.72,3.811-1.72
	c1.319,0,2.439,0.41,3.35,1.22C70.57,91.75,71.09,92.88,71.221,94.311z"/>
<path d="M11.27,28.45c-0.27,0-0.52,0.04-0.76,0.11c0.52-0.48,0.84-1.17,0.84-1.92c0-1.47-1.24-2.67-2.76-2.67s-2.76,1.19-2.76,2.67
	c0,0.75,0.32,1.43,0.85,1.92c-0.24-0.07-0.5-0.11-0.77-0.11c-1.52,0-2.76,1.19-2.76,2.67c0,1.47,1.24,2.67,2.76,2.67
	c0.94,0,1.76-0.45,2.26-1.14c0.02,0.15,0.03,0.3,0.03,0.45c0,1.36-0.64,2.29-1.65,3.1h4.08c-1.01-0.81-1.65-1.74-1.65-3.1
	c0-0.15,0.01-0.3,0.03-0.45c0.5,0.69,1.32,1.14,2.26,1.14c1.52,0,2.76-1.19,2.76-2.67S12.8,28.45,11.27,28.45z"/>
<path d="M43.27,51.15c-0.569,0-1.119,0.08-1.649,0.22c1.12-1.04,1.81-2.5,1.81-4.12c0-3.17-2.66-5.73-5.93-5.73
	c-3.28,0-5.94,2.56-5.94,5.73c0,1.62,0.7,3.08,1.82,4.12c-0.52-0.14-1.08-0.22-1.65-0.22c-3.28,0-5.93,2.57-5.93,5.73
	c0,3.17,2.66,5.729,5.93,5.729c2.01,0,3.78-0.969,4.86-2.449c0.04,0.32,0.06,0.64,0.06,0.97c0,2.931-1.38,4.931-3.54,6.67h8.781
	c-2.16-1.739-3.541-3.75-3.541-6.67c0-0.33,0.021-0.649,0.051-0.97c1.08,1.48,2.85,2.449,4.859,2.449c3.28,0,5.93-2.569,5.93-5.729
	C49.2,53.72,46.54,51.15,43.27,51.15z"/>
<path d="M63.73,80.891c0.27,0,0.52-0.041,0.77-0.11c-0.52,0.479-0.84,1.159-0.84,1.92c0,1.47,1.24,2.67,2.76,2.67
	s2.76-1.19,2.76-2.67c0-0.75-0.33-1.431-0.85-1.92c0.24,0.069,0.5,0.11,0.77,0.11c1.521,0,2.76-1.19,2.76-2.671
	c0-1.479-1.239-2.659-2.76-2.659c-0.939,0-1.76,0.449-2.26,1.14c-0.02-0.15-0.029-0.3-0.029-0.45c0-1.359,0.64-2.29,1.649-3.1h-4.08
	c1.011,0.81,1.649,1.74,1.649,3.1c0,0.15-0.01,0.3-0.02,0.45c-0.5-0.69-1.32-1.14-2.26-1.14c-1.52,0-2.76,1.189-2.76,2.659
	S62.2,80.891,63.73,80.891z"/>
</svg>
