<?xml version="1.0" encoding="utf-8"?>
<!-- Generator: Adobe Illustrator 13.0.2, SVG Export Plug-In  -->
<!DOCTYPE svg PUBLIC "-//W3C//DTD SVG 1.1//EN" "http://www.w3.org/Graphics/SVG/1.1/DTD/svg11.dtd" [
	<!ENTITY ns_flows "http://ns.adobe.com/Flows/1.0/">
]>
<svg version="1.1"
	 xmlns="http://www.w3.org/2000/svg" xmlns:xlink="http://www.w3.org/1999/xlink" xmlns:a="http://ns.adobe.com/AdobeSVGViewerExtensions/3.0/"
	 x="0px" y="0px" width="75px" height="110px" viewBox="0 0 75 110" enable-background="new 0 0 75 110" xml:space="preserve">
<defs>
</defs>
<rect fill="none" width="75" height="110"/>
<linearGradient id="SVGID_1_" gradientUnits="userSpaceOnUse" x1="1554.4678" y1="1657.9805" x2="1616.5326" y2="1546.0125" gradientTransform="matrix(1 0 0 -1 -1548 1657)">
	<stop  offset="0" style="stop-color:#FFFFFF"/>
	<stop  offset="1" style="stop-color:#DEDEDF"/>
</linearGradient>
<path fill="url(#SVGID_1_)" d="M74.51,105.141c0,2.409-2.02,4.369-4.51,4.369H5c-2.49,0-4.51-1.96-4.51-4.369V4.86
	C0.49,2.45,2.51,0.5,5,0.5h65c2.49,0,4.51,1.96,4.51,4.37V105.141z"/>
<path fill="#B3B3B3" d="M5,110c-2.75-0.01-5-2.17-5-4.859l0,0V4.86C0,2.16,2.25,0.01,5,0l0,0h65c2.75,0.01,5,2.16,5,4.86l0,0v100.27
	l0,0c0,2.7-2.25,4.86-5,4.86l0,0H5V110z M0.99,4.86v100.27c0,2.12,1.78,3.87,4.01,3.87l0,0h65c2.23,0,4.01-1.75,4.01-3.87l0,0V4.86
	c0-2.13-1.779-3.87-4.01-3.87l0,0H5C2.77,0.99,0.99,2.74,0.99,4.86L0.99,4.86z"/>
<path d="M14.15,16.65h-1.03c-0.23,0-0.42,0.14-0.42,0.32v1.37H7.02c0.21-0.37,0.47-0.73,0.8-1.1c0.33-0.37,1.06-1.06,2.18-2.07
	c1.77-1.6,2.97-2.88,3.6-3.84s0.95-1.96,0.95-3.01c0-1.18-0.4-2.23-1.21-3.16c-0.81-0.93-1.99-1.39-3.56-1.39
	c-1.44,0-2.6,0.4-3.48,1.2c-0.89,0.8-1.39,1.99-1.53,3.57l1.96,0.22c0-1.07,0.28-1.9,0.84-2.47c0.56-0.57,1.28-0.86,2.16-0.86
	c0.82,0,1.5,0.26,2.06,0.79c0.56,0.53,0.83,1.21,0.83,2.05c0,0.73-0.27,1.51-0.81,2.35s-1.7,2.04-3.47,3.58
	c-1.51,1.32-2.55,2.47-3.11,3.44c-0.57,0.97-0.84,1.85-0.81,2.63h10.17v-3.3C14.57,16.8,14.39,16.65,14.15,16.65z"/>
<path d="M61.939,93.35h1.031c0.229,0,0.42-0.14,0.42-0.319v-1.37h5.68c-0.2,0.37-0.471,0.73-0.801,1.1
	c-0.33,0.37-1.06,1.061-2.18,2.07c-1.77,1.6-2.97,2.88-3.6,3.84c-0.631,0.96-0.95,1.96-0.95,3.01c0,1.18,0.41,2.23,1.21,3.16
	c0.811,0.93,1.99,1.391,3.561,1.391c1.439,0,2.6-0.4,3.479-1.2c0.89-0.8,1.39-1.99,1.53-3.57l-1.961-0.22
	c0,1.07-0.279,1.89-0.84,2.47c-0.56,0.57-1.279,0.86-2.16,0.86c-0.819,0-1.5-0.26-2.06-0.79s-0.829-1.21-0.829-2.05
	c0-0.73,0.27-1.511,0.809-2.351c0.551-0.84,1.701-2.04,3.471-3.58c1.51-1.319,2.55-2.47,3.109-3.44
	c0.57-0.969,0.841-1.85,0.811-2.629H61.52v3.3C61.52,93.2,61.71,93.35,61.939,93.35z"/>
<path d="M11.27,28.52c-0.27,0-0.52,0.04-0.76,0.1c0.52-0.48,0.84-1.16,0.84-1.92c0-1.47-1.24-2.66-2.76-2.66s-2.76,1.19-2.76,2.66
	c0,0.75,0.32,1.43,0.85,1.92c-0.24-0.07-0.5-0.1-0.77-0.1c-1.52,0-2.76,1.19-2.76,2.67s1.24,2.67,2.76,2.67
	c0.94,0,1.76-0.45,2.26-1.14c0.02,0.15,0.03,0.3,0.03,0.45c0,1.36-0.64,2.3-1.65,3.1h4.08c-1.01-0.81-1.65-1.74-1.65-3.1
	c0-0.15,0.01-0.3,0.03-0.45c0.5,0.69,1.32,1.14,2.26,1.14c1.52,0,2.76-1.19,2.76-2.67S12.8,28.52,11.27,28.52z"/>
<path d="M43.27,51.22c-0.569,0-1.119,0.08-1.649,0.23c1.12-1.04,1.81-2.5,1.81-4.12c0-3.17-2.66-5.73-5.93-5.73
	c-3.28,0-5.94,2.56-5.94,5.73c0,1.62,0.7,3.08,1.82,4.12c-0.52-0.14-1.08-0.23-1.65-0.23c-3.28,0-5.93,2.57-5.93,5.73
	c0,3.159,2.66,5.729,5.93,5.729c2.01,0,3.78-0.97,4.86-2.449c0.04,0.319,0.06,0.64,0.06,0.97c0,2.93-1.38,4.93-3.54,6.67h8.781
	c-2.16-1.74-3.541-3.75-3.541-6.67c0-0.33,0.021-0.65,0.051-0.97c1.08,1.479,2.85,2.449,4.859,2.449c3.28,0,5.93-2.57,5.93-5.729
	C49.2,53.79,46.54,51.22,43.27,51.22z"/>
<path d="M63.721,80.96c0.27,0,0.52-0.04,0.77-0.101c-0.52,0.48-0.84,1.16-0.84,1.921c0,1.47,1.24,2.67,2.76,2.67
	s2.76-1.19,2.76-2.67c0-0.75-0.33-1.431-0.85-1.921c0.24,0.07,0.5,0.101,0.77,0.101c1.52,0,2.76-1.19,2.76-2.67
	c0-1.47-1.24-2.67-2.76-2.67c-0.939,0-1.76,0.45-2.26,1.14c-0.02-0.15-0.03-0.3-0.03-0.449c0-1.36,0.64-2.291,1.65-3.11h-4.08
	c1.01,0.81,1.649,1.739,1.649,3.11c0,0.149-0.01,0.299-0.02,0.449c-0.5-0.689-1.33-1.14-2.26-1.14c-1.52,0-2.76,1.19-2.76,2.67
	C60.971,79.76,62.2,80.96,63.721,80.96z"/>
</svg>
