<?xml version="1.0" encoding="utf-8"?>
<!-- Generator: Adobe Illustrator 13.0.2, SVG Export Plug-In  -->
<!DOCTYPE svg PUBLIC "-//W3C//DTD SVG 1.1//EN" "http://www.w3.org/Graphics/SVG/1.1/DTD/svg11.dtd" [
	<!ENTITY ns_flows "http://ns.adobe.com/Flows/1.0/">
]>
<svg version="1.1"
	 xmlns="http://www.w3.org/2000/svg" xmlns:xlink="http://www.w3.org/1999/xlink" xmlns:a="http://ns.adobe.com/AdobeSVGViewerExtensions/3.0/"
	 x="0px" y="0px" width="75px" height="110px" viewBox="0 0 75 110" enable-background="new 0 0 75 110" xml:space="preserve">
<defs>
</defs>
<rect fill="none" width="75" height="110"/>
<linearGradient id="SVGID_1_" gradientUnits="userSpaceOnUse" x1="1554.4678" y1="1657.9805" x2="1616.5326" y2="1546.0125" gradientTransform="matrix(1 0 0 -1 -1548 1657)">
	<stop  offset="0" style="stop-color:#FFFFFF"/>
	<stop  offset="1" style="stop-color:#DEDEDF"/>
</linearGradient>
<path fill="url(#SVGID_1_)" d="M74.51,105.141c0,2.409-2.02,4.369-4.51,4.369H5c-2.49,0-4.51-1.96-4.51-4.369V4.86
	C0.49,2.45,2.51,0.5,5,0.5h65c2.49,0,4.51,1.96,4.51,4.37V105.141z"/>
<path fill="#B3B3B3" d="M5,110c-2.75-0.01-5-2.17-5-4.859l0,0V4.86C0,2.16,2.25,0.01,5,0l0,0h65c2.75,0.01,5,2.16,5,4.86l0,0v100.27
	l0,0c0,2.7-2.25,4.86-5,4.86l0,0H5V110z M0.99,4.86v100.27c0,2.12,1.78,3.87,4.01,3.87l0,0h65c2.23,0,4.01-1.75,4.01-3.87l0,0V4.86
	c0-2.13-1.779-3.87-4.01-3.87l0,0H5C2.77,0.99,0.99,2.74,0.99,4.86L0.99,4.86z"/>
<path d="M14.3,16.31v-1.86h-2.19V3.77h-1.65L3.15,14.45v1.86h6.98v2.31H9.27c-0.21,0-0.38,0.17-0.38,0.37v0.91
	c0,0.2,0.17,0.37,0.38,0.37h3.56c0.21,0,0.38-0.17,0.38-0.37v-0.91c0-0.2-0.17-0.37-0.38-0.37h-0.72v-2.31H14.3z M5.1,14.45
	l5.03-7.43v7.43H5.1z"/>
<path d="M60.52,93.689v1.86h2.19v10.681h1.649L71.67,95.55v-1.86h-6.98v-2.31h0.86c0.21,0,0.38-0.17,0.38-0.37V90.1
	c0-0.199-0.17-0.369-0.38-0.369h-3.56c-0.211,0-0.381,0.17-0.381,0.369v0.91c0,0.2,0.17,0.37,0.381,0.37h0.72v2.31H60.52z
	 M69.721,95.55l-5.031,7.431V95.55H69.721z"/>
<path d="M11.28,28.48c-0.27,0-0.52,0.04-0.77,0.11c0.52-0.48,0.84-1.16,0.84-1.92c0-1.47-1.24-2.67-2.76-2.67s-2.76,1.19-2.76,2.67
	c0,0.75,0.33,1.43,0.85,1.92c-0.24-0.07-0.5-0.11-0.77-0.11c-1.52,0-2.76,1.19-2.76,2.67c0,1.47,1.24,2.66,2.76,2.66
	c0.94,0,1.76-0.45,2.26-1.14c0.02,0.15,0.03,0.3,0.03,0.45c0,1.36-0.64,2.29-1.65,3.1h4.08C9.63,35.42,9,34.49,9,33.13
	c0-0.15,0.01-0.3,0.02-0.45c0.5,0.69,1.32,1.14,2.26,1.14c1.52,0,2.76-1.19,2.76-2.66C14.04,29.68,12.8,28.48,11.28,28.48z"/>
<path d="M43.27,51.19c-0.569,0-1.119,0.08-1.649,0.22c1.12-1.04,1.81-2.5,1.81-4.12c0-3.16-2.66-5.73-5.93-5.73
	c-3.28,0-5.94,2.56-5.94,5.73c0,1.62,0.7,3.08,1.82,4.12c-0.52-0.14-1.08-0.22-1.65-0.22c-3.28,0-5.93,2.57-5.93,5.73
	s2.66,5.73,5.93,5.73c2.01,0,3.78-0.971,4.86-2.45c0.04,0.319,0.06,0.64,0.06,0.97c0,2.93-1.38,4.93-3.54,6.67h8.781
	c-2.16-1.74-3.541-3.75-3.541-6.67c0-0.33,0.021-0.65,0.051-0.97c1.08,1.479,2.85,2.45,4.859,2.45c3.28,0,5.93-2.57,5.93-5.73
	C49.2,53.75,46.55,51.19,43.27,51.19z"/>
<path d="M63.73,80.92c0.27,0,0.52-0.04,0.77-0.109c-0.52,0.479-0.84,1.159-0.84,1.92c0,1.47,1.24,2.67,2.76,2.67
	s2.76-1.19,2.76-2.67c0-0.75-0.33-1.431-0.85-1.92c0.24,0.069,0.5,0.109,0.77,0.109c1.521,0,2.76-1.189,2.76-2.67
	c0-1.47-1.239-2.67-2.76-2.67c-0.939,0-1.76,0.45-2.26,1.14c-0.02-0.149-0.029-0.3-0.029-0.45c0-1.359,0.64-2.289,1.649-3.1h-4.08
	c1.011,0.811,1.649,1.74,1.649,3.1c0,0.15-0.01,0.301-0.02,0.45c-0.5-0.689-1.32-1.14-2.26-1.14c-1.52,0-2.76,1.189-2.76,2.67
	C60.971,79.73,62.21,80.92,63.73,80.92z"/>
</svg>
