<?xml version="1.0" encoding="utf-8"?>
<!-- Generator: Adobe Illustrator 13.0.2, SVG Export Plug-In  -->
<!DOCTYPE svg PUBLIC "-//W3C//DTD SVG 1.1//EN" "http://www.w3.org/Graphics/SVG/1.1/DTD/svg11.dtd" [
	<!ENTITY ns_flows "http://ns.adobe.com/Flows/1.0/">
]>
<svg version="1.1"
	 xmlns="http://www.w3.org/2000/svg" xmlns:xlink="http://www.w3.org/1999/xlink" xmlns:a="http://ns.adobe.com/AdobeSVGViewerExtensions/3.0/"
	 x="0px" y="0px" width="75px" height="110px" viewBox="0 0 75 110" enable-background="new 0 0 75 110" xml:space="preserve">
<defs>
</defs>
<rect fill="none" width="75" height="110"/>
<linearGradient id="SVGID_1_" gradientUnits="userSpaceOnUse" x1="1554.4678" y1="1657.9805" x2="1616.5326" y2="1546.0125" gradientTransform="matrix(1 0 0 -1 -1548 1657)">
	<stop  offset="0" style="stop-color:#FFFFFF"/>
	<stop  offset="1" style="stop-color:#DEDEDF"/>
</linearGradient>
<path fill="url(#SVGID_1_)" d="M74.51,105.141c0,2.409-2.02,4.369-4.51,4.369H5c-2.49,0-4.51-1.96-4.51-4.369V4.86
	C0.49,2.45,2.51,0.5,5,0.5h65c2.49,0,4.51,1.96,4.51,4.37V105.141z"/>
<path fill="#B3B3B3" d="M5,110c-2.75-0.01-5-2.17-5-4.859l0,0V4.86C0,2.16,2.25,0.01,5,0l0,0h65c2.75,0.01,5,2.16,5,4.86l0,0v100.27
	l0,0c0,2.7-2.25,4.86-5,4.86l0,0H5V110z M0.99,4.86v100.27c0,2.12,1.78,3.87,4.01,3.87l0,0h65c2.23,0,4.01-1.75,4.01-3.87l0,0V4.86
	c0-2.13-1.779-3.87-4.01-3.87l0,0H5C2.77,0.99,0.99,2.74,0.99,4.86L0.99,4.86z"/>
<path d="M13.59,7.78l-1.87,0.16c-0.18-0.83-0.44-1.42-0.78-1.78c-0.5-0.51-1.45-0.77-2.15-0.77c-1.08,0-2.31,0.59-2.97,1.76
	c-0.56,1.01-0.85,2.51-0.86,4.5c0.43-0.7,0.97-1.24,1.62-1.6C7.23,9.69,8.27,9.51,9,9.51c1.2,0,2.61,0.48,3.51,1.43
	c0.9,0.95,1.34,2.23,1.34,3.82c0,1.08-0.22,2.06-0.68,2.94c-0.45,0.88-1.03,1.53-1.74,1.95s-1.85,0.63-2.7,0.63
	c-1.54,0-3.16-0.6-4.15-1.811c-1-1.21-1.49-3.22-1.49-6.03c0-3.13,0.51-5.35,1.53-6.68C5.64,4.43,7.31,3.77,8.9,3.77
	c1.16,0,2.48,0.34,3.26,1.03C12.94,5.48,13.42,6.48,13.59,7.78z M5.25,14.75c0,1.17,0.32,2.11,0.95,2.82
	c0.63,0.71,1.72,1.07,2.56,1.07c0.73,0,1.74-0.33,2.32-1.01c0.58-0.67,0.86-1.59,0.86-2.76c0-1.15-0.29-2.04-0.86-2.67
	c-0.57-0.64-1.63-0.95-2.45-0.95c-0.81,0-1.87,0.31-2.47,0.94C5.55,12.83,5.25,13.68,5.25,14.75z"/>
<path d="M61.17,102.22l1.87-0.159c0.181,0.83,0.44,1.42,0.78,1.779c0.5,0.51,1.449,0.77,2.15,0.77c1.079,0,2.309-0.59,2.969-1.76
	c0.561-1.01,0.851-2.51,0.86-4.49c-0.43,0.701-0.97,1.24-1.62,1.601s-1.699,0.54-2.42,0.54c-1.199,0-2.609-0.48-3.51-1.43
	c-0.9-0.95-1.34-2.23-1.34-3.82c0-1.08,0.22-2.061,0.67-2.939c0.449-0.881,1.029-1.531,1.74-1.951
	c0.709-0.42,1.85-0.629,2.699-0.629c1.541,0,3.16,0.6,4.15,1.81c1,1.21,1.49,3.21,1.49,6.03c0,3.119-0.51,5.35-1.53,6.68
	s-2.69,1.99-4.28,1.99c-1.16,0-2.479-0.34-3.26-1.03C61.811,104.52,61.34,103.52,61.17,102.22z M69.5,95.25
	c0-1.17-0.311-2.109-0.95-2.82c-0.63-0.71-1.72-1.07-2.56-1.07c-0.73,0-1.75,0.33-2.32,1c-0.58,0.671-0.859,1.591-0.859,2.761
	c0,1.149,0.289,2.04,0.859,2.67s1.63,0.95,2.45,0.95c0.81,0,1.87-0.311,2.47-0.94C69.2,97.17,69.5,96.32,69.5,95.25z"/>
<path d="M11.34,28.57c-0.27,0-0.52,0.04-0.77,0.11c0.52-0.48,0.84-1.17,0.84-1.92c0-1.47-1.24-2.67-2.76-2.67s-2.76,1.19-2.76,2.67
	c0,0.75,0.32,1.43,0.85,1.92c-0.24-0.07-0.5-0.11-0.77-0.11c-1.53,0-2.76,1.19-2.76,2.67c0,1.47,1.23,2.67,2.76,2.67
	c0.94,0,1.76-0.45,2.26-1.14c0.02,0.15,0.03,0.3,0.03,0.45c0,1.36-0.64,2.29-1.65,3.1h4.08c-1.01-0.81-1.65-1.74-1.65-3.1
	c0-0.15,0.01-0.3,0.03-0.45c0.5,0.69,1.32,1.14,2.26,1.14c1.52,0,2.76-1.19,2.76-2.67C14.09,29.76,12.86,28.57,11.34,28.57z"/>
<path d="M43.33,51.27c-0.57,0-1.12,0.08-1.65,0.22c1.12-1.04,1.811-2.5,1.811-4.12c0-3.17-2.66-5.73-5.93-5.73
	c-3.28,0-5.94,2.56-5.94,5.73c0,1.62,0.7,3.08,1.82,4.12c-0.52-0.14-1.08-0.22-1.65-0.22c-3.28,0-5.93,2.57-5.93,5.73
	s2.66,5.73,5.93,5.73c2.01,0,3.78-0.971,4.86-2.45c0.04,0.319,0.06,0.64,0.06,0.97c0,2.93-1.38,4.939-3.54,6.68h8.78
	c-2.16-1.74-3.54-3.75-3.54-6.68c0-0.33,0.02-0.65,0.05-0.97c1.08,1.479,2.851,2.45,4.86,2.45c3.279,0,5.93-2.57,5.93-5.73
	C49.26,53.84,46.6,51.27,43.33,51.27z"/>
<path d="M63.79,81.01c0.271,0,0.521-0.04,0.771-0.1c-0.521,0.48-0.84,1.16-0.84,1.92c0,1.47,1.239,2.67,2.76,2.67
	c1.52,0,2.76-1.189,2.76-2.67c0-0.75-0.33-1.43-0.85-1.92c0.239,0.07,0.5,0.1,0.77,0.1c1.52,0,2.76-1.189,2.76-2.67
	c0-1.47-1.24-2.67-2.76-2.67c-0.939,0-1.76,0.45-2.26,1.141c-0.021-0.15-0.03-0.301-0.03-0.451c0-1.359,0.64-2.299,1.649-3.109
	h-4.08c1.011,0.811,1.65,1.74,1.65,3.109c0,0.15-0.01,0.301-0.02,0.451c-0.5-0.69-1.32-1.141-2.26-1.141
	c-1.521,0-2.761,1.189-2.761,2.67C61.029,79.82,62.26,81.01,63.79,81.01z"/>
</svg>
