<?xml version="1.0" encoding="utf-8"?>
<!-- Generator: Adobe Illustrator 13.0.2, SVG Export Plug-In  -->
<!DOCTYPE svg PUBLIC "-//W3C//DTD SVG 1.1//EN" "http://www.w3.org/Graphics/SVG/1.1/DTD/svg11.dtd" [
	<!ENTITY ns_flows "http://ns.adobe.com/Flows/1.0/">
]>
<svg version="1.1"
	 xmlns="http://www.w3.org/2000/svg" xmlns:xlink="http://www.w3.org/1999/xlink" xmlns:a="http://ns.adobe.com/AdobeSVGViewerExtensions/3.0/"
	 x="0px" y="0px" width="75px" height="110px" viewBox="0 0 75 110" enable-background="new 0 0 75 110" xml:space="preserve">
<defs>
</defs>
<rect fill="none" width="75" height="110"/>
<linearGradient id="SVGID_1_" gradientUnits="userSpaceOnUse" x1="1554.4678" y1="1657.9805" x2="1616.5326" y2="1546.0125" gradientTransform="matrix(1 0 0 -1 -1548 1657)">
	<stop  offset="0" style="stop-color:#FFFFFF"/>
	<stop  offset="1" style="stop-color:#DEDEDF"/>
</linearGradient>
<path fill="url(#SVGID_1_)" d="M74.51,105.141c0,2.409-2.02,4.369-4.51,4.369H5c-2.49,0-4.51-1.96-4.51-4.369V4.86
	C0.49,2.45,2.51,0.5,5,0.5h65c2.49,0,4.51,1.96,4.51,4.37V105.141z"/>
<path fill="#B3B3B3" d="M5,110c-2.75-0.01-5-2.17-5-4.859l0,0V4.86C0,2.16,2.25,0.01,5,0l0,0h65c2.75,0.01,5,2.16,5,4.86l0,0v100.27
	l0,0c0,2.7-2.25,4.86-5,4.86l0,0H5V110z M0.99,4.86v100.27c0,2.12,1.78,3.87,4.01,3.87l0,0h65c2.23,0,4.01-1.75,4.01-3.87l0,0V4.86
	c0-2.13-1.779-3.87-4.01-3.87l0,0H5C2.77,0.99,0.99,2.74,0.99,4.86L0.99,4.86z"/>
<path d="M13.55,12.22c-0.26-0.58-1.58-2.2-4.09-2.46c-0.21-0.02-0.4-0.03-0.58-0.04l4.74-4.27c0.09-0.08,0.1-0.19,0.07-0.3
	c0.01-0.04,0.02-0.07,0.02-0.11V4.13c0-0.2-0.17-0.37-0.38-0.37H4.75c-0.09,0-0.17,0.03-0.24,0.08C4.5,3.86,4.49,3.86,4.49,3.87
	c-0.01,0-0.02,0.01-0.02,0.02c-0.06,0.05-0.1,0.12-0.1,0.19v2.99c0,0.18,0.2,0.32,0.44,0.32H5.9c0.25,0,0.45-0.14,0.45-0.32V5.41
	h4.63L5.93,9.94c-0.08,0.07-0.1,0.17-0.08,0.27l-0.14,1.02C6.27,11.07,7.12,11,7.5,11c0.89,0,2.8,0.29,3.41,0.88
	c0.61,0.58,0.92,2.32,0.92,3.28c0,1.02-0.33,1.85-1,2.49s-1.46,0.96-2.36,0.96c-1.68,0-2.73-1.08-3.15-3.26l-1.99,0.28
	c0.13,1.42,0.68,2.54,1.64,3.38c0.96,0.84,2.13,1.26,3.52,1.26c1.49,0,2.77-0.48,3.84-1.44c1.07-0.96,1.61-2.2,1.61-3.71
	C13.94,14.4,13.81,12.8,13.55,12.22z"/>
<path d="M61.54,97.78c0.26,0.579,1.58,2.2,4.09,2.46c0.21,0.02,0.399,0.029,0.58,0.04l-4.739,4.27c-0.091,0.08-0.101,0.19-0.07,0.3
	c-0.01,0.041-0.021,0.07-0.021,0.11v0.91c0,0.2,0.17,0.37,0.38,0.37h8.58c0.09,0,0.17-0.03,0.24-0.08c0.01,0,0.02-0.01,0.02-0.02
	c0.01-0.011,0.021-0.021,0.021-0.021c0.06-0.05,0.101-0.12,0.101-0.2v-2.99c0-0.18-0.201-0.32-0.441-0.32h-1.09
	c-0.25,0-0.449,0.141-0.449,0.32v1.66h-4.631l5.051-4.529c0.08-0.07,0.1-0.17,0.08-0.271l0.14-1.021c-0.56,0.16-1.42,0.23-1.8,0.23
	c-0.891,0-2.801-0.29-3.41-0.88s-0.92-2.32-0.92-3.28c0-1.02,0.33-1.85,1-2.49c0.67-0.64,1.46-0.959,2.359-0.959
	c1.681,0,2.73,1.08,3.15,3.26l1.99-0.28c-0.13-1.42-0.68-2.54-1.641-3.38c-0.959-0.84-2.129-1.26-3.52-1.26
	c-1.49,0-2.77,0.479-3.84,1.439s-1.609,2.2-1.609,3.71C61.15,95.6,61.27,97.2,61.54,97.78z"/>
<path d="M11.28,28.25c-0.27,0-0.52,0.04-0.77,0.11c0.52-0.48,0.84-1.16,0.84-1.92c0-1.47-1.24-2.67-2.76-2.67s-2.76,1.19-2.76,2.67
	c0,0.75,0.32,1.43,0.85,1.92c-0.24-0.07-0.5-0.11-0.77-0.11c-1.52,0-2.76,1.19-2.76,2.67c0,1.47,1.24,2.66,2.76,2.66
	c0.94,0,1.76-0.45,2.26-1.14c0.02,0.15,0.03,0.3,0.03,0.45c0,1.36-0.64,2.29-1.65,3.1h4.08c-1.01-0.81-1.65-1.74-1.65-3.1
	c0-0.15,0.01-0.3,0.02-0.45c0.5,0.69,1.32,1.14,2.26,1.14c1.52,0,2.76-1.19,2.76-2.66C14.03,29.45,12.8,28.25,11.28,28.25z"/>
<path d="M43.27,50.96c-0.569,0-1.119,0.08-1.649,0.22c1.12-1.04,1.81-2.5,1.81-4.12c0-3.16-2.66-5.73-5.93-5.73
	c-3.28,0-5.94,2.56-5.94,5.73c0,1.62,0.7,3.08,1.82,4.12c-0.52-0.14-1.08-0.22-1.65-0.22c-3.28,0-5.93,2.57-5.93,5.729
	c0,3.16,2.66,5.73,5.93,5.73c2.01,0,3.78-0.97,4.86-2.45c0.04,0.32,0.06,0.64,0.06,0.97c0,2.931-1.38,4.94-3.54,6.67h8.781
	c-2.16-1.739-3.541-3.75-3.541-6.67c0-0.33,0.021-0.649,0.051-0.97c1.08,1.48,2.85,2.45,4.859,2.45c3.28,0,5.93-2.57,5.93-5.73
	C49.2,53.52,46.54,50.96,43.27,50.96z"/>
<path d="M63.721,80.689c0.27,0,0.52-0.039,0.77-0.109c-0.52,0.48-0.84,1.16-0.84,1.92c0,1.47,1.24,2.67,2.76,2.67
	s2.76-1.189,2.76-2.67c0-0.75-0.33-1.43-0.85-1.92c0.24,0.07,0.5,0.109,0.77,0.109c1.52,0,2.76-1.189,2.76-2.67
	c0-1.47-1.24-2.67-2.76-2.67c-0.939,0-1.76,0.45-2.26,1.141c-0.02-0.15-0.03-0.301-0.03-0.45c0-1.36,0.64-2.29,1.65-3.101h-4.08
	c1.01,0.811,1.649,1.74,1.649,3.101c0,0.149-0.01,0.3-0.02,0.45c-0.5-0.69-1.32-1.141-2.26-1.141c-1.52,0-2.76,1.19-2.76,2.67
	C60.971,79.5,62.2,80.689,63.721,80.689z"/>
</svg>
