<?xml version="1.0" encoding="utf-8"?>
<!-- Generator: Adobe Illustrator 13.0.2, SVG Export Plug-In  -->
<!DOCTYPE svg PUBLIC "-//W3C//DTD SVG 1.1//EN" "http://www.w3.org/Graphics/SVG/1.1/DTD/svg11.dtd" [
	<!ENTITY ns_flows "http://ns.adobe.com/Flows/1.0/">
]>
<svg version="1.1"
	 xmlns="http://www.w3.org/2000/svg" xmlns:xlink="http://www.w3.org/1999/xlink" xmlns:a="http://ns.adobe.com/AdobeSVGViewerExtensions/3.0/"
	 x="0px" y="0px" width="75px" height="110px" viewBox="0 0 75 110" enable-background="new 0 0 75 110" xml:space="preserve">
<defs>
</defs>
<rect fill="none" width="75" height="110"/>
<linearGradient id="SVGID_1_" gradientUnits="userSpaceOnUse" x1="1554.4678" y1="1657.9805" x2="1616.5326" y2="1546.0125" gradientTransform="matrix(1 0 0 -1 -1548 1657)">
	<stop  offset="0" style="stop-color:#FFFFFF"/>
	<stop  offset="1" style="stop-color:#DEDEDF"/>
</linearGradient>
<path fill="url(#SVGID_1_)" d="M74.51,105.141c0,2.409-2.02,4.369-4.51,4.369H5c-2.49,0-4.51-1.96-4.51-4.369V4.86
	C0.49,2.45,2.51,0.5,5,0.5h65c2.49,0,4.51,1.96,4.51,4.37V105.141z"/>
<path fill="#B3B3B3" d="M5,110c-2.75-0.01-5-2.17-5-4.859l0,0V4.86C0,2.16,2.25,0.01,5,0l0,0h65c2.75,0.01,5,2.16,5,4.86l0,0v100.27
	l0,0c0,2.7-2.25,4.86-5,4.86l0,0H5V110z M0.99,4.86v100.27c0,2.12,1.78,3.87,4.01,3.87l0,0h65c2.23,0,4.01-1.75,4.01-3.87l0,0V4.86
	c0-2.13-1.779-3.87-4.01-3.87l0,0H5C2.77,0.99,0.99,2.74,0.99,4.86L0.99,4.86z"/>
<path d="M14.74,18.64h-0.8L9.48,3.77H7.73L3.51,18.64H2.75c-0.18,0-0.33,0.16-0.33,0.36v0.89c0,0.2,0.15,0.36,0.33,0.36h3.09
	c0.18,0,0.33-0.16,0.33-0.36V19c0-0.2-0.15-0.36-0.33-0.36H5.18l0.89-3.39h5.11l0.96,3.39h-0.49c-0.18,0-0.33,0.16-0.33,0.36v0.89
	c0,0.2,0.15,0.36,0.33,0.36h3.1c0.18,0,0.33-0.16,0.33-0.36V19C15.07,18.8,14.92,18.64,14.74,18.64z M6.54,13.48L7.9,8.65
	C8.18,7.6,8.4,6.55,8.56,5.5c0.18,0.88,0.47,2.01,0.86,3.42l1.26,4.56H6.54z"/>
<path d="M60.26,91.359h0.801l4.469,14.871h1.75l4.211-14.871h0.77c0.18,0,0.33-0.159,0.33-0.359v-0.891
	c0-0.199-0.15-0.359-0.33-0.359h-3.09c-0.18,0-0.33,0.16-0.33,0.359V91c0,0.2,0.15,0.359,0.33,0.359h0.65L68.93,94.75H63.82
	l-0.961-3.391h0.49c0.18,0,0.33-0.159,0.33-0.359v-0.891c0-0.199-0.15-0.359-0.33-0.359h-3.09c-0.18,0-0.33,0.16-0.33,0.359V91
	C59.93,91.2,60.08,91.359,60.26,91.359z M68.46,96.53l-1.36,4.829c-0.289,1.041-0.51,2.091-0.67,3.15
	c-0.18-0.88-0.47-2.01-0.859-3.42l-1.26-4.56H68.46z"/>
<path d="M10.95,28.44c-0.27,0-0.52,0.04-0.76,0.11c0.52-0.48,0.84-1.16,0.84-1.92c0-1.47-1.24-2.67-2.76-2.67s-2.76,1.19-2.76,2.67
	c0,0.75,0.32,1.43,0.85,1.92c-0.24-0.07-0.5-0.11-0.77-0.11c-1.52,0-2.76,1.19-2.76,2.67s1.24,2.66,2.76,2.66
	c0.94,0,1.76-0.45,2.26-1.14c0.02,0.15,0.03,0.3,0.03,0.45c0,1.36-0.64,2.29-1.65,3.1h4.08c-1.01-0.81-1.65-1.74-1.65-3.1
	c0-0.15,0.01-0.3,0.03-0.45c0.5,0.69,1.32,1.14,2.26,1.14c1.52,0,2.76-1.19,2.76-2.66C13.71,29.64,12.47,28.44,10.95,28.44z"/>
<path d="M42.939,51.45c-0.569,0-1.119,0.08-1.649,0.22c1.12-1.04,1.81-2.5,1.81-4.12c0-3.17-2.66-5.73-5.93-5.73
	c-3.28,0-5.94,2.56-5.94,5.73c0,1.62,0.7,3.08,1.82,4.12c-0.52-0.14-1.08-0.22-1.65-0.22c-3.28,0-5.93,2.57-5.93,5.729
	c0,3.16,2.66,5.73,5.93,5.73c2.01,0,3.78-0.971,4.86-2.45c0.04,0.32,0.06,0.64,0.06,0.97c0,2.93-0.25,6.93-2.41,8.67h6.55
	c-2.16-1.74-2.44-5.75-2.44-8.67c0-0.33,0.021-0.649,0.051-0.97c1.08,1.479,2.85,2.45,4.859,2.45c3.28,0,5.93-2.57,5.93-5.73
	C48.87,54.01,46.221,51.45,42.939,51.45z"/>
<path d="M63.4,80.88c0.27,0,0.52-0.04,0.77-0.1c-0.52,0.479-0.84,1.159-0.84,1.92c0,1.47,1.24,2.67,2.76,2.67s2.76-1.19,2.76-2.67
	c0-0.75-0.33-1.431-0.85-1.92c0.24,0.069,0.5,0.1,0.77,0.1c1.521,0,2.76-1.19,2.76-2.67c0-1.47-1.239-2.67-2.76-2.67
	c-0.939,0-1.76,0.45-2.26,1.14c-0.02-0.149-0.029-0.3-0.029-0.449c0-1.36,0.64-2.291,1.649-3.101h-4.08
	c1.011,0.81,1.65,1.74,1.65,3.101c0,0.149-0.011,0.3-0.03,0.449c-0.5-0.689-1.32-1.14-2.26-1.14c-1.52,0-2.76,1.19-2.76,2.67
	C60.641,79.689,61.88,80.88,63.4,80.88z"/>
<path d="M30.26,71.23c1.97-1.631,3.78-3.471,4.3-6.061c-1.39,0.86-3.04,1.36-4.81,1.36c-4.91,0-8.98-3.86-8.98-8.71
	c0-4.62,3.68-8.34,8.28-8.69c-0.55-1.12-0.85-2.38-0.85-3.71c0-4.86,4.07-8.71,8.98-8.71c4.91,0,8.98,3.86,8.98,8.71
	c0,1.33-0.311,2.59-0.85,3.71c4.59,0.35,8.279,4.07,8.279,8.69c0,4.859-4.061,8.71-8.97,8.71c-1.771,0-3.42-0.5-4.82-1.36
	c0.521,2.59,2.33,4.43,4.3,6.061l2.131,1.379H28.25L30.26,71.23z M40.55,68.939c-1.67-2.029-1.93-3.75-2.11-6.26
	c1.83,1.521,3.33,2.521,5.84,2.521c4.181,0,7.591-3.28,7.591-7.341c0-4.06-3.41-7.339-7.591-7.339l-1.069,0.01
	c0.931-1.51,1.55-2.69,1.55-4.54c0-4.06-3.41-7.34-7.59-7.34c-4.19,0-7.6,3.28-7.6,7.34c0,1.85,0.62,3.03,1.56,4.54l-1.07-0.01
	c-4.19,0-7.59,3.28-7.59,7.339c0,4.061,3.41,7.341,7.59,7.341c2.51,0,4.01-1,5.84-2.521c-0.29,4.11-1.31,5.811-3.83,8.021h10.209
	C41.66,70.15,41.08,69.57,40.55,68.939z"/>
</svg>
