<?xml version="1.0" encoding="utf-8"?>
<!-- Generator: Adobe Illustrator 13.0.2, SVG Export Plug-In  -->
<!DOCTYPE svg PUBLIC "-//W3C//DTD SVG 1.1//EN" "http://www.w3.org/Graphics/SVG/1.1/DTD/svg11.dtd" [
	<!ENTITY ns_flows "http://ns.adobe.com/Flows/1.0/">
]>
<svg version="1.1"
	 xmlns="http://www.w3.org/2000/svg" xmlns:xlink="http://www.w3.org/1999/xlink" xmlns:a="http://ns.adobe.com/AdobeSVGViewerExtensions/3.0/"
	 x="0px" y="0px" width="75px" height="110px" viewBox="0 0 75 110" enable-background="new 0 0 75 110" xml:space="preserve">
<defs>
</defs>
<rect fill="none" width="75" height="110"/>
<linearGradient id="SVGID_1_" gradientUnits="userSpaceOnUse" x1="1554.4678" y1="1657.9805" x2="1616.5326" y2="1546.0125" gradientTransform="matrix(1 0 0 -1 -1548 1657)">
	<stop  offset="0" style="stop-color:#FFFFFF"/>
	<stop  offset="1" style="stop-color:#DEDEDF"/>
</linearGradient>
<path fill="url(#SVGID_1_)" d="M74.51,105.141c0,2.409-2.02,4.369-4.51,4.369H5c-2.49,0-4.51-1.96-4.51-4.369V4.86
	C0.49,2.45,2.51,0.5,5,0.5h65c2.49,0,4.51,1.96,4.51,4.37V105.141z"/>
<path fill="#B3B3B3" d="M5,110c-2.75-0.01-5-2.17-5-4.859l0,0V4.86C0,2.16,2.25,0.01,5,0l0,0h65c2.75,0.01,5,2.16,5,4.86l0,0v100.27
	l0,0c0,2.7-2.25,4.86-5,4.86l0,0H5V110z M0.99,4.86v100.27c0,2.12,1.78,3.87,4.01,3.87l0,0h65c2.23,0,4.01-1.75,4.01-3.87l0,0V4.86
	c0-2.13-1.779-3.87-4.01-3.87l0,0H5C2.77,0.99,0.99,2.74,0.99,4.86L0.99,4.86z"/>
<path d="M3.13,16.25l1.98-0.16c0.19,0.83,0.46,1.42,0.83,1.78c0.52,0.51,1.54,0.77,2.28,0.77c1.15,0,2.45-0.59,3.14-1.76
	c0.6-1.01,0.9-2.51,0.91-4.5c-0.45,0.7-1.02,1.23-1.71,1.6c-0.69,0.36-1.8,0.54-2.56,0.54c-1.27,0-2.77-0.48-3.72-1.43
	c-0.95-0.95-1.42-2.23-1.42-3.82c0-1.08,0.24-2.06,0.72-2.94S4.67,4.8,5.42,4.38s1.96-0.63,2.86-0.63c1.63,0,3.35,0.6,4.4,1.81
	c1.05,1.21,1.58,3.22,1.58,6.03c0,3.12-0.54,5.35-1.62,6.67c-1.08,1.33-2.85,1.99-4.53,1.99c-1.22,0-2.63-0.34-3.45-1.03
	C3.81,18.56,3.31,17.56,3.13,16.25z M11.96,9.28c0-1.17-0.33-2.11-1-2.82S9.14,5.4,8.26,5.4c-0.78,0-1.85,0.33-2.46,1
	C5.18,7.07,4.87,7.99,4.87,9.16c0,1.15,0.3,2.04,0.91,2.67c0.61,0.63,1.73,0.95,2.6,0.95c0.86,0,1.98-0.32,2.62-0.95
	C11.64,11.21,11.96,10.36,11.96,9.28z"/>
<path d="M72.08,93.75L70.1,93.9c-0.189-0.83-0.459-1.42-0.83-1.78c-0.52-0.511-1.539-0.771-2.279-0.771
	c-1.15,0-2.45,0.59-3.141,1.76c-0.6,1.011-0.899,2.511-0.91,4.5c0.451-0.699,1.021-1.229,1.711-1.6
	c0.689-0.359,1.8-0.539,2.56-0.539c1.271,0,2.771,0.479,3.72,1.43c0.95,0.949,1.42,2.229,1.42,3.82c0,1.079-0.24,2.06-0.72,2.939
	s-1.09,1.529-1.84,1.949c-0.75,0.421-1.96,0.631-2.86,0.631c-1.63,0-3.35-0.6-4.4-1.811c-1.049-1.209-1.579-3.22-1.579-6.029
	c0-3.12,0.54-5.351,1.62-6.67c1.08-1.33,2.85-1.99,4.529-1.99c1.221,0,2.631,0.34,3.45,1.029C71.37,91.46,71.9,92.439,72.08,93.75z
	 M63.26,100.72c0,1.171,0.33,2.11,1,2.82s1.82,1.06,2.7,1.06c0.78,0,1.851-0.33,2.46-1s0.91-1.59,0.91-2.76
	c0-1.15-0.301-2.04-0.91-2.67c-0.6-0.63-1.73-0.95-2.6-0.95c-0.86,0-1.98,0.32-2.62,0.95S63.26,99.641,63.26,100.72z"/>
<path d="M10.75,28.42c-0.27,0-0.52,0.04-0.76,0.1c0.52-0.48,0.84-1.16,0.84-1.92c0-1.47-1.24-2.67-2.76-2.67s-2.76,1.19-2.76,2.67
	c0,0.75,0.33,1.43,0.85,1.92c-0.24-0.07-0.5-0.1-0.77-0.1c-1.52,0-2.76,1.19-2.76,2.67c0,1.47,1.24,2.67,2.76,2.67
	c0.94,0,1.76-0.45,2.26-1.14c0.02,0.15,0.03,0.3,0.03,0.45c0,1.36-0.64,2.29-1.65,3.1h4.08c-1.01-0.81-1.65-1.74-1.65-3.1
	c0-0.15,0.01-0.3,0.02-0.45c0.5,0.69,1.32,1.14,2.26,1.14c1.52,0,2.76-1.19,2.76-2.67C13.51,29.62,12.28,28.42,10.75,28.42z"/>
<path d="M42.75,51.13c-0.57,0-1.12,0.08-1.65,0.23c1.121-1.04,1.811-2.5,1.811-4.12c0-3.17-2.66-5.73-5.93-5.73
	c-3.28,0-5.94,2.56-5.94,5.73c0,1.62,0.7,3.08,1.82,4.12c-0.52-0.14-1.08-0.23-1.65-0.23c-3.28,0-5.93,2.57-5.93,5.729
	c0,3.16,2.66,5.73,5.93,5.73c2.01,0,3.78-0.97,4.86-2.449c0.04,0.319,0.06,0.64,0.06,0.969c0,2.931-1.38,4.94-3.54,6.671h8.78
	c-2.16-1.74-3.54-3.75-3.54-6.671c0-0.329,0.02-0.649,0.05-0.969c1.08,1.479,2.851,2.449,4.86,2.449c3.279,0,5.93-2.56,5.93-5.73
	C48.67,53.69,46.02,51.13,42.75,51.13z"/>
<path d="M63.2,80.859c0.271,0,0.521-0.039,0.771-0.1c-0.521,0.48-0.841,1.16-0.841,1.92c0,1.471,1.24,2.67,2.761,2.67
	c1.52,0,2.76-1.189,2.76-2.67c0-0.75-0.33-1.43-0.851-1.92c0.24,0.07,0.5,0.1,0.771,0.1c1.52,0,2.76-1.189,2.76-2.659
	s-1.24-2.67-2.76-2.67c-0.94,0-1.76,0.45-2.26,1.14c-0.021-0.15-0.031-0.3-0.031-0.45c0-1.36,0.641-2.29,1.65-3.1h-4.08
	c1.01,0.81,1.65,1.739,1.65,3.1c0,0.15-0.01,0.3-0.029,0.45c-0.5-0.689-1.32-1.14-2.261-1.14c-1.521,0-2.76,1.189-2.76,2.67
	C60.45,79.67,61.68,80.859,63.2,80.859z"/>
</svg>
