<?xml version="1.0" encoding="utf-8"?>
<!-- Generator: Adobe Illustrator 13.0.2, SVG Export Plug-In  -->
<!DOCTYPE svg PUBLIC "-//W3C//DTD SVG 1.1//EN" "http://www.w3.org/Graphics/SVG/1.1/DTD/svg11.dtd" [
	<!ENTITY ns_flows "http://ns.adobe.com/Flows/1.0/">
]>
<svg version="1.1"
	 xmlns="http://www.w3.org/2000/svg" xmlns:xlink="http://www.w3.org/1999/xlink" xmlns:a="http://ns.adobe.com/AdobeSVGViewerExtensions/3.0/"
	 x="0px" y="0px" width="75px" height="110px" viewBox="0 0 75 110" enable-background="new 0 0 75 110" xml:space="preserve">
<defs>
</defs>
<rect fill="none" width="75" height="110"/>
<linearGradient id="SVGID_1_" gradientUnits="userSpaceOnUse" x1="1554.4678" y1="1657.9805" x2="1616.5326" y2="1546.0125" gradientTransform="matrix(1 0 0 -1 -1548 1657)">
	<stop  offset="0" style="stop-color:#FFFFFF"/>
	<stop  offset="1" style="stop-color:#DEDEDF"/>
</linearGradient>
<path fill="url(#SVGID_1_)" d="M74.51,105.141c0,2.409-2.02,4.369-4.51,4.369H5c-2.49,0-4.51-1.96-4.51-4.369V4.86
	C0.49,2.45,2.51,0.5,5,0.5h65c2.49,0,4.51,1.96,4.51,4.37V105.141z"/>
<path fill="#B3B3B3" d="M5,110c-2.75-0.01-5-2.17-5-4.859l0,0V4.86C0,2.16,2.25,0.01,5,0l0,0h65c2.75,0.01,5,2.16,5,4.86l0,0v100.27
	l0,0c0,2.7-2.25,4.86-5,4.86l0,0H5V110z M0.99,4.86v100.27c0,2.12,1.78,3.87,4.01,3.87l0,0h65c2.23,0,4.01-1.75,4.01-3.87l0,0V4.86
	c0-2.13-1.779-3.87-4.01-3.87l0,0H5C2.77,0.99,0.99,2.74,0.99,4.86L0.99,4.86z"/>
<path d="M5.6,19.74c0,0.17-0.16,0.31-0.36,0.31H4.1c-0.2,0-0.36-0.14-0.36-0.31V4.3c0-0.17,0.16-0.31,0.36-0.31h1.13
	c0.2,0,0.36,0.14,0.36,0.31v15.44H5.6z"/>
<path d="M12.46,3.77c-2.6,0-4.7,1.84-4.7,4.11v8.28c0,2.27,2.11,4.11,4.7,4.11c2.6,0,4.7-1.84,4.7-4.11V7.88
	C17.16,5.61,15.06,3.77,12.46,3.77z M15.38,16.16c0,1.4-1.31,2.55-2.92,2.55s-2.92-1.14-2.92-2.55V7.88c0-1.4,1.31-2.55,2.92-2.55
	s2.92,1.14,2.92,2.55V16.16z"/>
<path d="M69.4,90.26c0-0.17,0.16-0.31,0.359-0.31h1.131c0.199,0,0.359,0.14,0.359,0.31v15.44c0,0.17-0.17,0.31-0.359,0.31H69.76
	c-0.199,0-0.359-0.14-0.359-0.31V90.26z"/>
<path d="M62.54,106.23c2.601,0,4.7-1.84,4.7-4.11v-8.28c0-2.27-2.11-4.109-4.7-4.109c-2.601,0-4.7,1.84-4.7,4.109v8.28
	C57.83,104.391,59.939,106.23,62.54,106.23z M59.62,93.84c0-1.41,1.31-2.55,2.909-2.55c1.611,0,2.921,1.14,2.921,2.55v8.28
	c0,1.41-1.31,2.55-2.921,2.55c-1.609,0-2.909-1.15-2.909-2.55V93.84z"/>
<path d="M11.47,28.67c-0.27,0-0.52,0.04-0.77,0.11c0.52-0.48,0.84-1.16,0.84-1.92c0-1.47-1.24-2.67-2.76-2.67s-2.76,1.19-2.76,2.67
	c0,0.75,0.33,1.43,0.85,1.92c-0.24-0.07-0.5-0.11-0.76-0.11c-1.53,0-2.76,1.19-2.76,2.67C3.35,32.8,4.58,34,6.11,34
	c0.94,0,1.76-0.45,2.26-1.14c0.02,0.15,0.03,0.3,0.03,0.45c0,1.36-0.64,2.29-1.65,3.1h4.08c-1.01-0.81-1.65-1.74-1.65-3.1
	c0-0.15,0.01-0.3,0.03-0.45c0.5,0.69,1.32,1.14,2.26,1.14c1.52,0,2.76-1.19,2.76-2.66C14.23,29.86,12.99,28.67,11.47,28.67z"/>
<path d="M43.46,51.37c-0.569,0-1.12,0.08-1.649,0.22c1.119-1.04,1.81-2.5,1.81-4.12c0-3.17-2.66-5.729-5.93-5.729
	c-3.28,0-5.94,2.56-5.94,5.729c0,1.62,0.7,3.08,1.82,4.12c-0.52-0.14-1.08-0.22-1.65-0.22c-3.28,0-5.93,2.57-5.93,5.729
	c0,3.16,2.66,5.73,5.93,5.73c2.01,0,3.78-0.971,4.86-2.45c0.04,0.32,0.06,0.64,0.06,0.97c0,2.931-1.38,4.94-3.54,6.67h8.78
	c-2.16-1.739-3.54-3.75-3.54-6.67c0-0.33,0.021-0.649,0.05-0.97c1.08,1.479,2.85,2.45,4.86,2.45c3.271,0,5.93-2.57,5.93-5.73
	C49.391,53.94,46.74,51.37,43.46,51.37z"/>
<path d="M63.92,81.109c0.27,0,0.52-0.039,0.76-0.109c-0.52,0.48-0.84,1.16-0.84,1.92c0,1.471,1.24,2.67,2.76,2.67
	c1.521,0,2.76-1.189,2.76-2.67c0-0.75-0.33-1.43-0.85-1.92c0.24,0.07,0.5,0.109,0.77,0.109c1.521,0,2.761-1.189,2.761-2.67
	c0-1.47-1.24-2.67-2.761-2.67c-0.939,0-1.76,0.45-2.26,1.141c-0.02-0.15-0.029-0.301-0.029-0.45c0-1.36,0.64-2.29,1.65-3.101h-4.08
	c1.01,0.811,1.649,1.74,1.649,3.101c0,0.149-0.01,0.3-0.021,0.45c-0.5-0.69-1.319-1.141-2.26-1.141c-1.52,0-2.76,1.19-2.76,2.67
	C61.16,79.91,62.4,81.109,63.92,81.109z"/>
</svg>
