<?xml version="1.0" encoding="utf-8"?>
<!-- Generator: Adobe Illustrator 13.0.2, SVG Export Plug-In  -->
<!DOCTYPE svg PUBLIC "-//W3C//DTD SVG 1.1//EN" "http://www.w3.org/Graphics/SVG/1.1/DTD/svg11.dtd" [
	<!ENTITY ns_flows "http://ns.adobe.com/Flows/1.0/">
]>
<svg version="1.1"
	 xmlns="http://www.w3.org/2000/svg" xmlns:xlink="http://www.w3.org/1999/xlink" xmlns:a="http://ns.adobe.com/AdobeSVGViewerExtensions/3.0/"
	 x="0px" y="0px" width="75px" height="110px" viewBox="0 0 75 110" enable-background="new 0 0 75 110" xml:space="preserve">
<defs>
</defs>
<rect fill="none" width="75" height="110"/>
<linearGradient id="SVGID_1_" gradientUnits="userSpaceOnUse" x1="1792.0693" y1="1297.1445" x2="1854.1334" y2="1185.1781" gradientTransform="matrix(1 0 0 -1 -1785.5996 1296.1602)">
	<stop  offset="0" style="stop-color:#FFFFFF"/>
	<stop  offset="1" style="stop-color:#DEDEDF"/>
</linearGradient>
<path fill="url(#SVGID_1_)" d="M74.506,105.136c0,2.412-2.016,4.369-4.506,4.369H5c-2.489,0-4.505-1.957-4.505-4.369V4.864
	C0.494,2.451,2.51,0.495,5,0.495h65c2.49,0,4.506,1.956,4.506,4.369V105.136z"/>
<path fill="#B3B3B3" d="M5,110c-2.75-0.006-4.998-2.166-5-4.864l0,0V4.864C0.002,2.164,2.25,0.006,5,0l0,0h65
	c2.75,0.006,4.996,2.164,5,4.864l0,0v100.271h-0.002C74.996,107.834,72.75,109.994,70,110l0,0H5L5,110z M0.988,4.864v100.271
	c0.004,2.125,1.782,3.871,4.012,3.873l0,0h65c2.23-0.002,4.008-1.748,4.012-3.873l0,0V4.864C74.008,2.737,72.23,0.991,70,0.991l0,0
	H5C2.77,0.991,0.992,2.737,0.988,4.864L0.988,4.864z"/>
<polygon fill="#B32318" points="67.717,99.551 67.717,98.657 8.232,98.657 8.232,11.343 66.768,11.343 66.768,99.551 67.717,99.551 
	67.717,98.657 67.717,99.551 68.667,99.551 68.667,9.553 6.333,9.553 6.333,100.447 68.667,100.447 68.667,99.551 "/>
<path fill="#B32318" d="M52.042,44.359l-1.192-1.742l-1.192,1.742l-3.849-5.616l5.041-7.359l5.041,7.359L52.042,44.359z
	 M37.697,29.646l6.243-9.112l6.244,9.112l-4.767,6.957l-1.478-2.157l-1.478,2.157L37.697,29.646z M38.298,44.359l-1.193-1.742
	l-1.193,1.742l-3.847-5.616l5.04-7.359l5.042,7.359L38.298,44.359z M22.166,44.359l-3.846-5.616l5.041-7.359l5.04,7.359
	l-3.849,5.616l-1.191-1.742L22.166,44.359z M14.966,36.603l-4.765-6.957l6.241-9.112l6.244,9.112l-4.766,6.957l-1.479-2.157
	L14.966,36.603z M23.949,29.646l6.242-9.112l6.244,9.112l-4.766,6.957l-1.479-2.157l-1.478,2.157L23.949,29.646z M51.445,29.646
	l6.242-9.112l6.244,9.112l-4.766,6.957l-1.479-2.157l-1.477,2.157L51.445,29.646z M65.29,43.633l-0.694-1.016l-1.191,1.742
	l-3.85-5.616l5.041-7.359L65.29,32.4V43.633z M30.191,51.434l-1.478,2.158l-4.765-6.956l6.242-9.115l6.244,9.115l-4.766,6.956
	L30.191,51.434z M24.552,61.348l-1.191-1.742l-1.195,1.742l-3.846-5.615l5.041-7.359l5.04,7.359L24.552,61.348z M9.71,31.524
	l4.945,7.219l-3.848,5.616L9.71,42.758V31.524z M9.71,48.513l4.945,7.219l-3.848,5.615L9.71,59.747V48.513z M14.966,53.592
	l-4.765-6.956l6.241-9.115l6.244,9.115l-4.766,6.956l-1.479-2.158L14.966,53.592z M38.298,61.348l-1.193-1.742l-1.193,1.742
	l-3.847-5.615l5.04-7.359l5.042,7.359L38.298,61.348z M43.939,51.434l-1.477,2.158l-4.767-6.956l6.244-9.115l6.242,9.115
	l-4.766,6.956L43.939,51.434z M59.555,21.755l5.041-7.359l0.693,1.014v11.235l-0.693-1.016l-1.191,1.744L59.555,21.755z
	 M51.445,12.659l0.177-0.26h12.133l0.179,0.26l-4.767,6.954l-1.479-2.156l-1.476,2.156L51.445,12.659z M45.809,21.755l5.041-7.359
	l5.041,7.359l-3.849,5.618l-1.192-1.744l-1.192,1.744L45.809,21.755z M10.202,12.659l0.177-0.26H22.51l0.178,0.26l-4.766,6.954
	l-1.479-2.156l-1.477,2.156L10.202,12.659z M32.065,21.755l5.04-7.359l5.042,7.359l-3.849,5.618l-1.193-1.744l-1.193,1.744
	L32.065,21.755z M23.949,12.659l0.178-0.26h12.131l0.178,0.26l-4.766,6.954l-1.479-2.156l-1.478,2.156L23.949,12.659z
	 M37.697,12.659l0.177-0.26h12.133l0.177,0.26l-4.766,6.954l-1.479-2.156l-1.477,2.156L37.697,12.659z M18.32,21.755l5.041-7.359
	l5.04,7.359l-3.849,5.618l-1.191-1.744l-1.195,1.744L18.32,21.755z M9.71,14.536l4.945,7.219l-3.848,5.618L9.71,25.77V14.536z
	 M16.443,85.41l-1.477,2.156l-4.765-6.957l6.241-9.11l6.244,9.11l-4.766,6.957L16.443,85.41z M30.191,85.41l-1.478,2.156
	l-4.765-6.957l6.242-9.11l6.244,9.11l-4.766,6.957L30.191,85.41z M38.298,95.324l-1.193-1.742l-1.193,1.742l-3.847-5.615l5.04-7.359
	l5.042,7.359L38.298,95.324z M10.808,95.324l-1.098-1.6V82.49l4.945,7.219L10.808,95.324z M43.939,85.41l-1.477,2.156l-4.767-6.957
	l6.244-9.11l6.242,9.11l-4.766,6.957L43.939,85.41z M52.042,95.324l-1.192-1.742l-1.192,1.742l-3.849-5.615l5.041-7.359l5.041,7.359
	L52.042,95.324z M57.688,85.41l-1.477,2.156l-4.768-6.957l6.242-9.11l6.246,9.11l-4.767,6.957L57.688,85.41z M65.29,94.598
	l-0.694-1.016l-1.191,1.742l-3.85-5.615l5.041-7.359l0.694,1.014V94.598z M23.949,97.6l6.242-9.111l6.244,9.111H23.949z
	 M37.697,97.6l6.243-9.111l6.244,9.111H37.697z M10.202,97.6l6.241-9.111l6.244,9.111H10.202z M51.445,97.6l6.242-9.111l6.244,9.111
	H51.445z M52.042,61.348l-1.192-1.742l-1.192,1.742l-3.849-5.615l5.041-7.359l5.041,7.359L52.042,61.348z M57.688,51.434
	l-1.477,2.158l-4.768-6.956l6.242-9.115l6.246,9.115l-4.767,6.956L57.688,51.434z M65.29,60.621l-0.694-1.016l-1.191,1.742
	l-3.85-5.617l5.041-7.358l0.694,1.014V60.621z M65.29,77.609l-0.694-1.014l-1.191,1.739l-3.85-5.614l5.041-7.361l0.694,1.015V77.609
	z M57.688,68.422l-1.477,2.156l-4.768-6.956l6.242-9.113l6.246,9.113l-4.767,6.956L57.688,68.422z M52.042,78.336l-1.192-1.74
	l-1.192,1.74l-3.849-5.615l5.041-7.359l5.041,7.359L52.042,78.336z M43.939,68.422l-1.477,2.156l-4.767-6.956l6.244-9.113
	l6.242,9.113l-4.766,6.956L43.939,68.422z M38.298,78.336l-1.193-1.74l-1.193,1.74l-3.847-5.615l5.04-7.359l5.042,7.359
	L38.298,78.336z M14.966,70.578l-4.765-6.956l6.241-9.113l6.244,9.113l-4.766,6.956l-1.479-2.156L14.966,70.578z M30.191,68.422
	l-1.478,2.156l-4.765-6.956l6.242-9.113l6.244,9.113l-4.766,6.956L30.191,68.422z M24.552,78.336l-1.191-1.74l-1.195,1.74
	l-3.846-5.615l5.041-7.359l5.04,7.359L24.552,78.336z M9.71,65.502l4.945,7.219l-3.848,5.615l-1.098-1.6L9.71,65.502L9.71,65.502z
	 M24.552,95.324l-1.191-1.742l-1.195,1.742l-3.846-5.615l5.041-7.359l5.04,7.359L24.552,95.324z"/>
</svg>
