<?xml version="1.0" encoding="UTF-8"?>
<!DOCTYPE svg PUBLIC "-//W3C//DTD SVG 1.1 Tiny//EN" "http://www.w3.org/Graphics/SVG/1.1/DTD/svg11-tiny.dtd">
<svg baseProfile="tiny" version="1.1" xmlns="http://www.w3.org/2000/svg" xmlns:xlink="http://www.w3.org/1999/xlink" x="0px" y="0px" width="44px" height="44px" viewBox="0 0 44 44">
<rect fill="none" width="44" height="44"/>
<linearGradient id="SVGID_1_" gradientUnits="userSpaceOnUse" x1="6.1714" y1="22.8828" x2="26.5967" y2="22.8828">
<stop offset="0" style="stop-color:#E6E6E6"/>
<stop offset="1" style="stop-color:#A6A6A6"/>
</linearGradient>
<polygon fill-rule="evenodd" fill="url(#SVGID_1_)" points="26.6,8.42 6.17,8.49 6.83,37.35 26.23,37.13 "/>
<path fill="#E9E9E9" d="M25.81,24.45v9.95c0,1.28-1.04,2.31-2.31,2.31H9.61c-1.28,0-2.31-1.04-2.31-2.31v-9.95  c2.18,2.7,5.52,2.11,9.26,2.11C20.29,26.56,23.63,27.15,25.81,24.45z"/>
<linearGradient id="SVGID_2_" gradientUnits="userSpaceOnUse" x1="19.4585" y1="18.6826" x2="38.2246" y2="18.6826">
<stop offset="0" style="stop-color:#E6E6E6"/>
<stop offset="1" style="stop-color:#A6A6A6"/>
</linearGradient>
<polygon fill-rule="evenodd" fill="url(#SVGID_2_)" points="19.46,6.92 22.44,3.63 38.22,12.3 27.51,33.74   25.89,8.33 "/>
<path fill="#FFFFFF" d="M36.51,14.42L28.2,31.47v-2.15l7.13-14.61c0.61-1.25,0.09-2.75-1.16-3.36L22.88,5.84  c-0.35-0.17-0.72-0.25-1.09-0.25c0.68-0.36,1.53-0.4,2.28-0.04l11.29,5.51C36.6,11.67,37.12,13.17,36.51,14.42z"/>
<path d="M26.98,37.55c-0.85,0.96-2.09,1.56-3.47,1.56H9.55c-2.56,0-4.65-2.09-4.65-4.65V11.2c0-2.57,2.09-4.65,4.65-4.65h8.79  l0.57-1.12c1.17-2.29,3.97-3.2,6.26-2.03l11.4,5.81c2.29,1.17,3.2,3.97,2.03,6.26L28.04,36.18C27.76,36.71,27.4,37.17,26.98,37.55z   M23.51,6.55c2.57,0,4.65,2.09,4.65,4.65v19.62l8.37-16.42c0.58-1.14,0.13-2.55-1.02-3.13l-11.4-5.81  c-1.14-0.58-2.55-0.13-3.13,1.02L23.51,6.55z M25.83,11.2c0-1.28-1.04-2.33-2.33-2.33H9.55c-1.28,0-2.33,1.04-2.33,2.33v23.26  c0,1.28,1.04,2.33,2.33,2.33h13.96c1.28,0,2.33-1.04,2.33-2.33V11.2z"/>
<path fill="#FFFFFF" d="M25.76,11.23v23.13c0,0.97-0.56,1.8-1.38,2.2c0.29-0.4,0.46-0.9,0.46-1.43V12c0-1.34-1.09-2.43-2.43-2.43  H9.08c-0.38,0-0.73,0.09-1.05,0.24c0.44-0.61,1.16-1,1.97-1h13.33C24.67,8.8,25.76,9.89,25.76,11.23z"/>
<polygon fill="#9B1202" points="21.97,30.48 23.42,30.48 23.42,32.98 17.89,32.98 17.89,30.48 18.97,30.48 15.47,23.53 13.54,26.13   13.54,30.48 14.97,30.48 14.97,32.98 9.58,32.98 9.58,30.48 11.02,30.48 11.02,15.69 9.58,15.69 9.58,13.19 14.97,13.19   14.97,15.69 13.54,15.69 13.54,22.1 18.16,15.69 17.25,15.69 17.25,13.19 22.64,13.19 22.64,15.69 21.28,15.69 17.12,21.3 "/>
</svg>
